<svg xmlns="http://www.w3.org/2000/svg" xmlns:xlink="http://www.w3.org/1999/xlink" contentStyleType="text/css" height="740px" preserveAspectRatio="none" style="width:712px;height:740px;background:#FFFFFF;" version="1.1" viewBox="0 0 712 740" width="712px" zoomAndPan="magnify"><defs/><g><!--class CreateHabitView--><g id="elem_CreateHabitView"><rect codeLine="7" fill="#F1F1F1" height="48" id="CreateHabitView" rx="2.5" ry="2.5" style="stroke:#181818;stroke-width:0.5;" width="137.0479" x="275.5" y="7"/><ellipse cx="290.5" cy="23" fill="#ADD1B2" rx="11" ry="11" style="stroke:#181818;stroke-width:1.0;"/><path d="M293.2656,18.875 Q293.4219,18.6563 293.6094,18.5469 Q293.7969,18.4375 294.0156,18.4375 Q294.3906,18.4375 294.625,18.7031 Q294.8594,18.9531 294.8594,19.5625 L294.8594,21.0156 Q294.8594,21.625 294.625,21.8906 Q294.3906,22.1563 294.0156,22.1563 Q293.6719,22.1563 293.4688,21.9531 Q293.2656,21.7656 293.1563,21.25 Q293.1094,20.8906 292.9219,20.7031 Q292.5938,20.3281 291.9844,20.1094 Q291.375,19.8906 290.75,19.8906 Q289.9844,19.8906 289.3438,20.2188 Q288.7188,20.5469 288.2188,21.2969 Q287.7344,22.0469 287.7344,23.0781 L287.7344,24.1719 Q287.7344,25.4063 288.625,26.2344 Q289.5156,27.0469 291.1094,27.0469 Q292.0469,27.0469 292.7031,26.7969 Q293.0938,26.6406 293.5156,26.2031 Q293.7813,25.9375 293.9219,25.8594 Q294.0781,25.7813 294.2813,25.7813 Q294.6094,25.7813 294.8594,26.0469 Q295.125,26.2969 295.125,26.6406 Q295.125,26.9844 294.7813,27.3906 Q294.2813,27.9688 293.4844,28.2969 Q292.4063,28.75 291.1094,28.75 Q289.5938,28.75 288.3906,28.125 Q287.4063,27.625 286.7188,26.5625 Q286.0313,25.4844 286.0313,24.2031 L286.0313,23.0469 Q286.0313,21.7188 286.6406,20.5781 Q287.2656,19.4219 288.3594,18.8125 Q289.4531,18.1875 290.6875,18.1875 Q291.4219,18.1875 292.0625,18.3594 Q292.7188,18.5156 293.2656,18.875 Z " fill="#000000"/><text fill="#000000" font-family="sans-serif" font-size="14" lengthAdjust="spacing" textLength="105.0479" x="304.5" y="28.7969">CreateHabitView</text><line style="stroke:#181818;stroke-width:0.5;" x1="276.5" x2="411.5479" y1="39" y2="39"/><line style="stroke:#181818;stroke-width:0.5;" x1="276.5" x2="411.5479" y1="47" y2="47"/></g><!--class CreateHabitViewModel--><g id="elem_CreateHabitViewModel"><rect codeLine="10" fill="#F1F1F1" height="122.4844" id="CreateHabitViewModel" rx="2.5" ry="2.5" style="stroke:#181818;stroke-width:0.5;" width="175.1787" x="256.5" y="134"/><ellipse cx="271.5" cy="150" fill="#ADD1B2" rx="11" ry="11" style="stroke:#181818;stroke-width:1.0;"/><path d="M274.2656,145.875 Q274.4219,145.6563 274.6094,145.5469 Q274.7969,145.4375 275.0156,145.4375 Q275.3906,145.4375 275.625,145.7031 Q275.8594,145.9531 275.8594,146.5625 L275.8594,148.0156 Q275.8594,148.625 275.625,148.8906 Q275.3906,149.1563 275.0156,149.1563 Q274.6719,149.1563 274.4688,148.9531 Q274.2656,148.7656 274.1563,148.25 Q274.1094,147.8906 273.9219,147.7031 Q273.5938,147.3281 272.9844,147.1094 Q272.375,146.8906 271.75,146.8906 Q270.9844,146.8906 270.3438,147.2188 Q269.7188,147.5469 269.2188,148.2969 Q268.7344,149.0469 268.7344,150.0781 L268.7344,151.1719 Q268.7344,152.4063 269.625,153.2344 Q270.5156,154.0469 272.1094,154.0469 Q273.0469,154.0469 273.7031,153.7969 Q274.0938,153.6406 274.5156,153.2031 Q274.7813,152.9375 274.9219,152.8594 Q275.0781,152.7813 275.2813,152.7813 Q275.6094,152.7813 275.8594,153.0469 Q276.125,153.2969 276.125,153.6406 Q276.125,153.9844 275.7813,154.3906 Q275.2813,154.9688 274.4844,155.2969 Q273.4063,155.75 272.1094,155.75 Q270.5938,155.75 269.3906,155.125 Q268.4063,154.625 267.7188,153.5625 Q267.0313,152.4844 267.0313,151.2031 L267.0313,150.0469 Q267.0313,148.7188 267.6406,147.5781 Q268.2656,146.4219 269.3594,145.8125 Q270.4531,145.1875 271.6875,145.1875 Q272.4219,145.1875 273.0625,145.3594 Q273.7188,145.5156 274.2656,145.875 Z " fill="#000000"/><text fill="#000000" font-family="sans-serif" font-size="14" lengthAdjust="spacing" textLength="143.1787" x="285.5" y="155.7969">CreateHabitViewModel</text><line style="stroke:#181818;stroke-width:0.5;" x1="257.5" x2="430.6787" y1="166" y2="166"/><line style="stroke:#181818;stroke-width:0.5;" x1="257.5" x2="430.6787" y1="174" y2="174"/><text fill="#000000" font-family="sans-serif" font-size="14" lengthAdjust="spacing" textLength="101.5479" x="262.5" y="193.1074">+addNewHabit()</text><text fill="#000000" font-family="sans-serif" font-size="14" lengthAdjust="spacing" textLength="95.3271" x="262.5" y="211.7285">+validateData()</text><text fill="#000000" font-family="sans-serif" font-size="14" lengthAdjust="spacing" textLength="154.4648" x="262.5" y="230.3496">+getHabitCategoryById()</text><text fill="#000000" font-family="sans-serif" font-size="14" lengthAdjust="spacing" textLength="134.9961" x="262.5" y="248.9707">+listHabitCategories()</text></g><!--class Habit--><g id="elem_Habit"><rect codeLine="17" fill="#F1F1F1" height="234.2109" id="Habit" rx="2.5" ry="2.5" style="stroke:#181818;stroke-width:0.5;" width="139.6064" x="7" y="499"/><ellipse cx="56.2119" cy="515" fill="#ADD1B2" rx="11" ry="11" style="stroke:#181818;stroke-width:1.0;"/><path d="M58.9775,510.875 Q59.1338,510.6563 59.3213,510.5469 Q59.5088,510.4375 59.7275,510.4375 Q60.1025,510.4375 60.3369,510.7031 Q60.5713,510.9531 60.5713,511.5625 L60.5713,513.0156 Q60.5713,513.625 60.3369,513.8906 Q60.1025,514.1563 59.7275,514.1563 Q59.3838,514.1563 59.1807,513.9531 Q58.9775,513.7656 58.8682,513.25 Q58.8213,512.8906 58.6338,512.7031 Q58.3057,512.3281 57.6963,512.1094 Q57.0869,511.8906 56.4619,511.8906 Q55.6963,511.8906 55.0557,512.2188 Q54.4307,512.5469 53.9307,513.2969 Q53.4463,514.0469 53.4463,515.0781 L53.4463,516.1719 Q53.4463,517.4063 54.3369,518.2344 Q55.2275,519.0469 56.8213,519.0469 Q57.7588,519.0469 58.415,518.7969 Q58.8057,518.6406 59.2275,518.2031 Q59.4932,517.9375 59.6338,517.8594 Q59.79,517.7813 59.9932,517.7813 Q60.3213,517.7813 60.5713,518.0469 Q60.8369,518.2969 60.8369,518.6406 Q60.8369,518.9844 60.4932,519.3906 Q59.9932,519.9688 59.1963,520.2969 Q58.1182,520.75 56.8213,520.75 Q55.3057,520.75 54.1025,520.125 Q53.1182,519.625 52.4307,518.5625 Q51.7432,517.4844 51.7432,516.2031 L51.7432,515.0469 Q51.7432,513.7188 52.3525,512.5781 Q52.9775,511.4219 54.0713,510.8125 Q55.165,510.1875 56.3994,510.1875 Q57.1338,510.1875 57.7744,510.3594 Q58.4307,510.5156 58.9775,510.875 Z " fill="#000000"/><text fill="#000000" font-family="sans-serif" font-size="14" lengthAdjust="spacing" textLength="32.6826" x="76.7119" y="520.7969">Habit</text><line style="stroke:#181818;stroke-width:0.5;" x1="8" x2="145.6064" y1="531" y2="531"/><text fill="#000000" font-family="sans-serif" font-size="14" lengthAdjust="spacing" textLength="15.5586" x="13" y="550.1074">-id</text><text fill="#000000" font-family="sans-serif" font-size="14" lengthAdjust="spacing" textLength="26.4482" x="13" y="568.7285">-title</text><text fill="#000000" font-family="sans-serif" font-size="14" lengthAdjust="spacing" textLength="72.3652" x="13" y="587.3496">-description</text><text fill="#000000" font-family="sans-serif" font-size="14" lengthAdjust="spacing" textLength="90.2549" x="13" y="605.9707">-measurement</text><text fill="#000000" font-family="sans-serif" font-size="14" lengthAdjust="spacing" textLength="127.6064" x="13" y="624.5918">-unitOfMeasurement</text><text fill="#000000" font-family="sans-serif" font-size="14" lengthAdjust="spacing" textLength="61.4619" x="13" y="643.2129">-startDate</text><text fill="#000000" font-family="sans-serif" font-size="14" lengthAdjust="spacing" textLength="57.5928" x="13" y="661.834">-endDate</text><text fill="#000000" font-family="sans-serif" font-size="14" lengthAdjust="spacing" textLength="66.1445" x="13" y="680.4551">-frequency</text><text fill="#000000" font-family="sans-serif" font-size="14" lengthAdjust="spacing" textLength="46.6689" x="13" y="699.0762">-priority</text><text fill="#000000" font-family="sans-serif" font-size="14" lengthAdjust="spacing" textLength="70.0342" x="13" y="717.6973">-categoryId</text><line style="stroke:#181818;stroke-width:0.5;" x1="8" x2="145.6064" y1="725.2109" y2="725.2109"/></g><!--class HabitDAO--><g id="elem_HabitDAO"><rect codeLine="30" fill="#F1F1F1" height="66.6211" id="HabitDAO" rx="2.5" ry="2.5" style="stroke:#181818;stroke-width:0.5;" width="95.0205" x="211.5" y="582.5"/><ellipse cx="226.5" cy="598.5" fill="#ADD1B2" rx="11" ry="11" style="stroke:#181818;stroke-width:1.0;"/><path d="M229.2656,594.375 Q229.4219,594.1563 229.6094,594.0469 Q229.7969,593.9375 230.0156,593.9375 Q230.3906,593.9375 230.625,594.2031 Q230.8594,594.4531 230.8594,595.0625 L230.8594,596.5156 Q230.8594,597.125 230.625,597.3906 Q230.3906,597.6563 230.0156,597.6563 Q229.6719,597.6563 229.4688,597.4531 Q229.2656,597.2656 229.1563,596.75 Q229.1094,596.3906 228.9219,596.2031 Q228.5938,595.8281 227.9844,595.6094 Q227.375,595.3906 226.75,595.3906 Q225.9844,595.3906 225.3438,595.7188 Q224.7188,596.0469 224.2188,596.7969 Q223.7344,597.5469 223.7344,598.5781 L223.7344,599.6719 Q223.7344,600.9063 224.625,601.7344 Q225.5156,602.5469 227.1094,602.5469 Q228.0469,602.5469 228.7031,602.2969 Q229.0938,602.1406 229.5156,601.7031 Q229.7813,601.4375 229.9219,601.3594 Q230.0781,601.2813 230.2813,601.2813 Q230.6094,601.2813 230.8594,601.5469 Q231.125,601.7969 231.125,602.1406 Q231.125,602.4844 230.7813,602.8906 Q230.2813,603.4688 229.4844,603.7969 Q228.4063,604.25 227.1094,604.25 Q225.5938,604.25 224.3906,603.625 Q223.4063,603.125 222.7188,602.0625 Q222.0313,600.9844 222.0313,599.7031 L222.0313,598.5469 Q222.0313,597.2188 222.6406,596.0781 Q223.2656,594.9219 224.3594,594.3125 Q225.4531,593.6875 226.6875,593.6875 Q227.4219,593.6875 228.0625,593.8594 Q228.7188,594.0156 229.2656,594.375 Z " fill="#000000"/><text fill="#000000" font-family="sans-serif" font-size="14" lengthAdjust="spacing" textLength="63.0205" x="240.5" y="604.2969">HabitDAO</text><line style="stroke:#181818;stroke-width:0.5;" x1="212.5" x2="305.5205" y1="614.5" y2="614.5"/><line style="stroke:#181818;stroke-width:0.5;" x1="212.5" x2="305.5205" y1="622.5" y2="622.5"/><text fill="#000000" font-family="sans-serif" font-size="14" lengthAdjust="spacing" textLength="73.541" x="217.5" y="641.6074">+addHabit()</text></g><!--class HabitCategoryDAO--><g id="elem_HabitCategoryDAO"><rect codeLine="34" fill="#F1F1F1" height="66.6211" id="HabitCategoryDAO" rx="2.5" ry="2.5" style="stroke:#181818;stroke-width:0.5;" width="151.8271" x="438" y="582.5"/><ellipse cx="453" cy="598.5" fill="#ADD1B2" rx="11" ry="11" style="stroke:#181818;stroke-width:1.0;"/><path d="M455.7656,594.375 Q455.9219,594.1563 456.1094,594.0469 Q456.2969,593.9375 456.5156,593.9375 Q456.8906,593.9375 457.125,594.2031 Q457.3594,594.4531 457.3594,595.0625 L457.3594,596.5156 Q457.3594,597.125 457.125,597.3906 Q456.8906,597.6563 456.5156,597.6563 Q456.1719,597.6563 455.9688,597.4531 Q455.7656,597.2656 455.6563,596.75 Q455.6094,596.3906 455.4219,596.2031 Q455.0938,595.8281 454.4844,595.6094 Q453.875,595.3906 453.25,595.3906 Q452.4844,595.3906 451.8438,595.7188 Q451.2188,596.0469 450.7188,596.7969 Q450.2344,597.5469 450.2344,598.5781 L450.2344,599.6719 Q450.2344,600.9063 451.125,601.7344 Q452.0156,602.5469 453.6094,602.5469 Q454.5469,602.5469 455.2031,602.2969 Q455.5938,602.1406 456.0156,601.7031 Q456.2813,601.4375 456.4219,601.3594 Q456.5781,601.2813 456.7813,601.2813 Q457.1094,601.2813 457.3594,601.5469 Q457.625,601.7969 457.625,602.1406 Q457.625,602.4844 457.2813,602.8906 Q456.7813,603.4688 455.9844,603.7969 Q454.9063,604.25 453.6094,604.25 Q452.0938,604.25 450.8906,603.625 Q449.9063,603.125 449.2188,602.0625 Q448.5313,600.9844 448.5313,599.7031 L448.5313,598.5469 Q448.5313,597.2188 449.1406,596.0781 Q449.7656,594.9219 450.8594,594.3125 Q451.9531,593.6875 453.1875,593.6875 Q453.9219,593.6875 454.5625,593.8594 Q455.2188,594.0156 455.7656,594.375 Z " fill="#000000"/><text fill="#000000" font-family="sans-serif" font-size="14" lengthAdjust="spacing" textLength="119.8271" x="467" y="604.2969">HabitCategoryDAO</text><line style="stroke:#181818;stroke-width:0.5;" x1="439" x2="588.8271" y1="614.5" y2="614.5"/><line style="stroke:#181818;stroke-width:0.5;" x1="439" x2="588.8271" y1="622.5" y2="622.5"/><text fill="#000000" font-family="sans-serif" font-size="14" lengthAdjust="spacing" textLength="134.9961" x="444" y="641.6074">+listHabitCategories()</text></g><!--class HabitCategoryRepository--><g id="elem_HabitCategoryRepository"><rect codeLine="38" fill="#F1F1F1" height="85.2422" id="HabitCategoryRepository" rx="2.5" ry="2.5" style="stroke:#181818;stroke-width:0.5;" width="188.4063" x="517" y="335"/><ellipse cx="532" cy="351" fill="#ADD1B2" rx="11" ry="11" style="stroke:#181818;stroke-width:1.0;"/><path d="M534.7656,346.875 Q534.9219,346.6563 535.1094,346.5469 Q535.2969,346.4375 535.5156,346.4375 Q535.8906,346.4375 536.125,346.7031 Q536.3594,346.9531 536.3594,347.5625 L536.3594,349.0156 Q536.3594,349.625 536.125,349.8906 Q535.8906,350.1563 535.5156,350.1563 Q535.1719,350.1563 534.9688,349.9531 Q534.7656,349.7656 534.6563,349.25 Q534.6094,348.8906 534.4219,348.7031 Q534.0938,348.3281 533.4844,348.1094 Q532.875,347.8906 532.25,347.8906 Q531.4844,347.8906 530.8438,348.2188 Q530.2188,348.5469 529.7188,349.2969 Q529.2344,350.0469 529.2344,351.0781 L529.2344,352.1719 Q529.2344,353.4063 530.125,354.2344 Q531.0156,355.0469 532.6094,355.0469 Q533.5469,355.0469 534.2031,354.7969 Q534.5938,354.6406 535.0156,354.2031 Q535.2813,353.9375 535.4219,353.8594 Q535.5781,353.7813 535.7813,353.7813 Q536.1094,353.7813 536.3594,354.0469 Q536.625,354.2969 536.625,354.6406 Q536.625,354.9844 536.2813,355.3906 Q535.7813,355.9688 534.9844,356.2969 Q533.9063,356.75 532.6094,356.75 Q531.0938,356.75 529.8906,356.125 Q528.9063,355.625 528.2188,354.5625 Q527.5313,353.4844 527.5313,352.2031 L527.5313,351.0469 Q527.5313,349.7188 528.1406,348.5781 Q528.7656,347.4219 529.8594,346.8125 Q530.9531,346.1875 532.1875,346.1875 Q532.9219,346.1875 533.5625,346.3594 Q534.2188,346.5156 534.7656,346.875 Z " fill="#000000"/><text fill="#000000" font-family="sans-serif" font-size="14" lengthAdjust="spacing" textLength="156.4063" x="546" y="356.7969">HabitCategoryRepository</text><line style="stroke:#181818;stroke-width:0.5;" x1="518" x2="704.4063" y1="367" y2="367"/><line style="stroke:#181818;stroke-width:0.5;" x1="518" x2="704.4063" y1="375" y2="375"/><text fill="#000000" font-family="sans-serif" font-size="14" lengthAdjust="spacing" textLength="134.9961" x="523" y="394.1074">+listHabitCategories()</text><text fill="#000000" font-family="sans-serif" font-size="14" lengthAdjust="spacing" textLength="157.5752" x="523" y="412.7285">+findHabitCategoryById()</text></g><!--class HabitRepository--><g id="elem_HabitRepository"><rect codeLine="43" fill="#F1F1F1" height="66.6211" id="HabitRepository" rx="2.5" ry="2.5" style="stroke:#181818;stroke-width:0.5;" width="131.5996" x="11" y="344"/><ellipse cx="26" cy="360" fill="#ADD1B2" rx="11" ry="11" style="stroke:#181818;stroke-width:1.0;"/><path d="M28.7656,355.875 Q28.9219,355.6563 29.1094,355.5469 Q29.2969,355.4375 29.5156,355.4375 Q29.8906,355.4375 30.125,355.7031 Q30.3594,355.9531 30.3594,356.5625 L30.3594,358.0156 Q30.3594,358.625 30.125,358.8906 Q29.8906,359.1563 29.5156,359.1563 Q29.1719,359.1563 28.9688,358.9531 Q28.7656,358.7656 28.6563,358.25 Q28.6094,357.8906 28.4219,357.7031 Q28.0938,357.3281 27.4844,357.1094 Q26.875,356.8906 26.25,356.8906 Q25.4844,356.8906 24.8438,357.2188 Q24.2188,357.5469 23.7188,358.2969 Q23.2344,359.0469 23.2344,360.0781 L23.2344,361.1719 Q23.2344,362.4063 24.125,363.2344 Q25.0156,364.0469 26.6094,364.0469 Q27.5469,364.0469 28.2031,363.7969 Q28.5938,363.6406 29.0156,363.2031 Q29.2813,362.9375 29.4219,362.8594 Q29.5781,362.7813 29.7813,362.7813 Q30.1094,362.7813 30.3594,363.0469 Q30.625,363.2969 30.625,363.6406 Q30.625,363.9844 30.2813,364.3906 Q29.7813,364.9688 28.9844,365.2969 Q27.9063,365.75 26.6094,365.75 Q25.0938,365.75 23.8906,365.125 Q22.9063,364.625 22.2188,363.5625 Q21.5313,362.4844 21.5313,361.2031 L21.5313,360.0469 Q21.5313,358.7188 22.1406,357.5781 Q22.7656,356.4219 23.8594,355.8125 Q24.9531,355.1875 26.1875,355.1875 Q26.9219,355.1875 27.5625,355.3594 Q28.2188,355.5156 28.7656,355.875 Z " fill="#000000"/><text fill="#000000" font-family="sans-serif" font-size="14" lengthAdjust="spacing" textLength="99.5996" x="40" y="365.7969">HabitRepository</text><line style="stroke:#181818;stroke-width:0.5;" x1="12" x2="141.5996" y1="376" y2="376"/><line style="stroke:#181818;stroke-width:0.5;" x1="12" x2="141.5996" y1="384" y2="384"/><text fill="#000000" font-family="sans-serif" font-size="14" lengthAdjust="spacing" textLength="101.5479" x="17" y="403.1074">+addNewHabit()</text></g><!--class Database--><g id="elem_Database"><rect codeLine="47" fill="#F1F1F1" height="85.2422" id="Database" rx="2.5" ry="2.5" style="stroke:#181818;stroke-width:0.5;" width="147.0029" x="256.5" y="335"/><ellipse cx="296.2825" cy="351" fill="#ADD1B2" rx="11" ry="11" style="stroke:#181818;stroke-width:1.0;"/><path d="M299.0481,346.875 Q299.2044,346.6563 299.3919,346.5469 Q299.5794,346.4375 299.7981,346.4375 Q300.1731,346.4375 300.4075,346.7031 Q300.6419,346.9531 300.6419,347.5625 L300.6419,349.0156 Q300.6419,349.625 300.4075,349.8906 Q300.1731,350.1563 299.7981,350.1563 Q299.4544,350.1563 299.2513,349.9531 Q299.0481,349.7656 298.9388,349.25 Q298.8919,348.8906 298.7044,348.7031 Q298.3763,348.3281 297.7669,348.1094 Q297.1575,347.8906 296.5325,347.8906 Q295.7669,347.8906 295.1263,348.2188 Q294.5013,348.5469 294.0013,349.2969 Q293.5169,350.0469 293.5169,351.0781 L293.5169,352.1719 Q293.5169,353.4063 294.4075,354.2344 Q295.2981,355.0469 296.8919,355.0469 Q297.8294,355.0469 298.4856,354.7969 Q298.8763,354.6406 299.2981,354.2031 Q299.5638,353.9375 299.7044,353.8594 Q299.8606,353.7813 300.0638,353.7813 Q300.3919,353.7813 300.6419,354.0469 Q300.9075,354.2969 300.9075,354.6406 Q300.9075,354.9844 300.5638,355.3906 Q300.0638,355.9688 299.2669,356.2969 Q298.1888,356.75 296.8919,356.75 Q295.3763,356.75 294.1731,356.125 Q293.1888,355.625 292.5013,354.5625 Q291.8138,353.4844 291.8138,352.2031 L291.8138,351.0469 Q291.8138,349.7188 292.4231,348.5781 Q293.0481,347.4219 294.1419,346.8125 Q295.2356,346.1875 296.47,346.1875 Q297.2044,346.1875 297.845,346.3594 Q298.5013,346.5156 299.0481,346.875 Z " fill="#000000"/><text fill="#000000" font-family="sans-serif" font-size="14" lengthAdjust="spacing" textLength="59.9307" x="315.7897" y="356.7969">Database</text><line style="stroke:#181818;stroke-width:0.5;" x1="257.5" x2="402.5029" y1="367" y2="367"/><line style="stroke:#181818;stroke-width:0.5;" x1="257.5" x2="402.5029" y1="375" y2="375"/><text fill="#000000" font-family="sans-serif" font-size="14" lengthAdjust="spacing" textLength="135.0029" x="262.5" y="394.1074">+habitCategoryDAO()</text><text fill="#000000" font-family="sans-serif" font-size="14" lengthAdjust="spacing" textLength="78.1963" x="262.5" y="412.7285">+habitDAO()</text></g><!--link CreateHabitView to CreateHabitView--><g id="link_CreateHabitView_CreateHabitView"><path codeLine="53" d="M412.68,19.42 C432.34,19.87 447.5,23.73 447.5,31 C447.5,38.27 438.3384,41.9927 418.6784,42.4427 " fill="none" id="CreateHabitView-to-CreateHabitView" style="stroke:#181818;stroke-width:1.0;"/><polygon fill="#181818" points="412.68,42.58,421.7692,46.373,417.6787,42.4656,421.5861,38.3751,412.68,42.58" style="stroke:#181818;stroke-width:1.0;"/><text fill="#000000" font-family="sans-serif" font-size="13" lengthAdjust="spacing" textLength="48.4199" x="453.5" y="36.5283">instance</text></g><!--link CreateHabitViewModel to CreateHabitViewModel--><g id="link_CreateHabitViewModel_CreateHabitViewModel"><path codeLine="54" d="M431.54,176.66 C451.69,178.24 466.5,184.36 466.5,195 C466.5,205.64 457.6716,211.291 437.5216,212.871 " fill="none" id="CreateHabitViewModel-to-CreateHabitViewModel" style="stroke:#181818;stroke-width:1.0;"/><polygon fill="#181818" points="431.54,213.34,440.8251,216.6242,436.5247,212.9491,440.1998,208.6487,431.54,213.34" style="stroke:#181818;stroke-width:1.0;"/><text fill="#000000" font-family="sans-serif" font-size="13" lengthAdjust="spacing" textLength="48.4199" x="472.5" y="200.5283">instance</text></g><!--link HabitRepository to HabitRepository--><g id="link_HabitRepository_HabitRepository"><path codeLine="55" d="M143.05,362.16 C162.71,362.62 178,367.73 178,377.5 C178,387.27 168.7084,392.2397 149.0484,392.6997 " fill="none" id="HabitRepository-to-HabitRepository" style="stroke:#181818;stroke-width:1.0;"/><polygon fill="#181818" points="143.05,392.84,152.1411,396.6284,148.0486,392.723,151.954,388.6306,143.05,392.84" style="stroke:#181818;stroke-width:1.0;"/><text fill="#000000" font-family="sans-serif" font-size="13" lengthAdjust="spacing" textLength="48.4199" x="184" y="383.0283">instance</text></g><!--link Database to Database--><g id="link_Database_Database"><path codeLine="56" d="M403.53,362.24 C423.39,363.04 438.5,368.13 438.5,377.5 C438.5,386.87 429.3851,391.7185 409.5251,392.5185 " fill="none" id="Database-to-Database" style="stroke:#181818;stroke-width:1.0;"/><polygon fill="#181818" points="403.53,392.76,412.6837,396.3945,408.5259,392.5588,412.3617,388.401,403.53,392.76" style="stroke:#181818;stroke-width:1.0;"/><text fill="#000000" font-family="sans-serif" font-size="13" lengthAdjust="spacing" textLength="48.4199" x="444.5" y="383.0283">instance</text></g><!--link CreateHabitView to CreateHabitViewModel--><g id="link_CreateHabitView_CreateHabitViewModel"><path codeLine="59" d="M344,55.21 C344,75.68 344,100.43 344,127.79 " fill="none" id="CreateHabitView-to-CreateHabitViewModel" style="stroke:#181818;stroke-width:1.0;"/><polygon fill="#181818" points="344,133.79,348,124.79,344,128.79,340,124.79,344,133.79" style="stroke:#181818;stroke-width:1.0;"/><text fill="#000000" font-family="sans-serif" font-size="13" lengthAdjust="spacing" textLength="42.6309" x="345" y="100.0283">creates</text></g><!--link CreateHabitViewModel to HabitRepository--><g id="link_CreateHabitViewModel_HabitRepository"><path codeLine="60" d="M256.2,255.35 C212.58,284.84 166.5312,315.9804 130.1012,340.6004 " fill="none" id="CreateHabitViewModel-to-HabitRepository" style="stroke:#181818;stroke-width:1.0;"/><polygon fill="#181818" points="125.13,343.96,134.8266,342.2347,129.2727,341.1603,130.3471,335.6064,125.13,343.96" style="stroke:#181818;stroke-width:1.0;"/><text fill="#000000" font-family="sans-serif" font-size="13" lengthAdjust="spacing" textLength="90.3271" x="212" y="301.0283">habitRepository</text></g><!--link CreateHabitViewModel to HabitCategoryRepository--><g id="link_CreateHabitViewModel_HabitCategoryRepository"><path codeLine="61" d="M431.8,255.35 C470.25,281.35 509.4899,307.8687 544.3699,331.4587 " fill="none" id="CreateHabitViewModel-to-HabitCategoryRepository" style="stroke:#181818;stroke-width:1.0;"/><polygon fill="#181818" points="549.34,334.82,544.1258,326.4646,545.1983,332.0189,539.644,333.0914,549.34,334.82" style="stroke:#181818;stroke-width:1.0;"/><text fill="#000000" font-family="sans-serif" font-size="13" lengthAdjust="spacing" textLength="143.0762" x="503" y="301.0283">habitCategoryRepository</text></g><!--link HabitRepository to Habit--><g id="link_HabitRepository_Habit"><path codeLine="63" d="M77,411.38 C77,434.42 77,460.71 77,492.8 " fill="none" id="HabitRepository-to-Habit" style="stroke:#181818;stroke-width:1.0;"/><polygon fill="#181818" points="77,498.8,81,489.8,77,493.8,73,489.8,77,498.8" style="stroke:#181818;stroke-width:1.0;"/><text fill="#000000" font-family="sans-serif" font-size="13" lengthAdjust="spacing" textLength="42.6309" x="78" y="465.0283">creates</text></g><!--link HabitRepository to HabitDAO--><g id="link_HabitRepository_HabitDAO"><path codeLine="64" d="M102.31,411.38 C137.08,456.57 195.5903,532.6054 230.2503,577.6354 " fill="none" id="HabitRepository-to-HabitDAO" style="stroke:#181818;stroke-width:1.0;"/><polygon fill="#181818" points="233.91,582.39,231.5902,572.8182,230.8603,578.4278,225.2507,577.6978,233.91,582.39" style="stroke:#181818;stroke-width:1.0;"/></g><!--link HabitCategoryRepository to HabitCategoryDAO--><g id="link_HabitCategoryRepository_HabitCategoryDAO"><path codeLine="65" d="M593.88,420.24 C574.9,466.52 546.9572,534.6489 529.6372,576.8689 " fill="none" id="HabitCategoryRepository-to-HabitCategoryDAO" style="stroke:#181818;stroke-width:1.0;"/><polygon fill="#181818" points="527.36,582.42,534.4765,575.6116,529.2577,577.7941,527.0751,572.5753,527.36,582.42" style="stroke:#181818;stroke-width:1.0;"/></g><!--link Database to HabitDAO--><g id="link_Database_HabitDAO"><path codeLine="67" d="M317.47,420.24 C303.58,466.52 283.1858,534.4536 270.5058,576.6736 " fill="none" id="Database-to-HabitDAO" style="stroke:#181818;stroke-width:1.0;"/><polygon fill="#181818" points="268.78,582.42,275.1997,574.9509,270.2182,577.6313,267.5378,572.6498,268.78,582.42" style="stroke:#181818;stroke-width:1.0;"/></g><!--link Database to HabitCategoryDAO--><g id="link_Database_HabitCategoryDAO"><path codeLine="68" d="M362.47,420.24 C398.48,466.52 452.1155,535.4646 484.9655,577.6846 " fill="none" id="Database-to-HabitCategoryDAO" style="stroke:#181818;stroke-width:1.0;"/><polygon fill="#181818" points="488.65,582.42,486.2802,572.8605,485.5796,578.4738,479.9663,577.7732,488.65,582.42" style="stroke:#181818;stroke-width:1.0;"/></g><!--SRC=[ZLBBJiCm4BpxAtm4eKgSUq0gxO4UIYKgST_QstI5wmHxGnKG_uwR9fRpKl79dfbTZsVjFyWMuE0a2r0VaE6EAuFIeMAmcK7Xey0VGUTdifayWF4fOyWYLmNA8ZVLvP1moe3t2sP7-v9nhNAxes-KZqA8cf9BXy3u0dlYTyAp_16_4zGcrsW2ByDwaA3rAvvhykw-mRx0a0ubAs28O8PSgvQ1o79NFLTh7Kb3liCI-i151pNLN3cJf9iD4uTehdkDNZagc7BR82S4NpeyeUK6AItnzh0Pu9x1SJ3RzaAhazF1uMU9LbNDkN0K379xLCrxrhhdTxNOfYcr4NL5RHgf-3zXj7LlMEIUEEnkb5-v0razDeLkyv6ctJ57-MN2U_0OTSVUe-BDnoQIQxNeVxVPq-07pYNPC1chK8p-m6795K_g-gy99NqeKSV715dS9_o8wsaFgeRzXFLH8ySkSgDqv0VCk_4dhOP9j6qIgvEQC3OnTUV0pqMSH9ds6AAT8l47]--></g></svg>