<svg xmlns="http://www.w3.org/2000/svg" xmlns:xlink="http://www.w3.org/1999/xlink" contentStyleType="text/css" height="1443px" preserveAspectRatio="none" style="width:1376px;height:1443px;background:#FFFFFF;" version="1.1" viewBox="0 0 1376 1443" width="1376px" zoomAndPan="magnify"><defs/><g><rect fill="#FFFFFF" height="1248.9902" style="stroke:#181818;stroke-width:1.0;" width="10" x="17.7793" y="93.6211"/><rect fill="#FFFFFF" height="423.3945" style="stroke:#181818;stroke-width:1.0;" width="10" x="225.5981" y="116.9121"/><rect fill="#FFFFFF" height="31.291" style="stroke:#181818;stroke-width:1.0;" width="10" x="225.5981" y="571.5977"/><rect fill="#FFFFFF" height="717.4316" style="stroke:#181818;stroke-width:1.0;" width="10" x="225.5981" y="634.1797"/><rect fill="#FFFFFF" height="281.2793" style="stroke:#181818;stroke-width:1.0;" width="10" x="383.5898" y="210.4453"/><rect fill="#FFFFFF" height="645.8496" style="stroke:#181818;stroke-width:1.0;" width="10" x="383.5898" y="665.4707"/><rect fill="#FFFFFF" height="42.291" style="stroke:#181818;stroke-width:1.0;" width="10" x="388.5898" y="704.7617"/><rect fill="#FFFFFF" height="230.0371" style="stroke:#181818;stroke-width:1.0;" width="10" x="388.5898" y="793.3438"/><rect fill="#FFFFFF" height="156.4551" style="stroke:#181818;stroke-width:1.0;" width="10" x="663.6704" y="303.9785"/><rect fill="#FFFFFF" height="156.4551" style="stroke:#181818;stroke-width:1.0;" width="10" x="663.6704" y="829.6348"/><rect fill="#FFFFFF" height="31.291" style="stroke:#181818;stroke-width:1.0;" width="10" x="837.4697" y="335.2695"/><rect fill="#FFFFFF" height="31.291" style="stroke:#181818;stroke-width:1.0;" width="10" x="837.4697" y="860.9258"/><rect fill="#FFFFFF" height="31.291" style="stroke:#181818;stroke-width:1.0;" width="10" x="992.1968" y="397.8516"/><rect fill="#FFFFFF" height="31.291" style="stroke:#181818;stroke-width:1.0;" width="10" x="992.1968" y="923.5078"/><rect fill="#FFFFFF" height="156.1152" style="stroke:#181818;stroke-width:1.0;" width="10" x="1126.6929" y="1123.9141"/><rect fill="#FFFFFF" height="31.291" style="stroke:#181818;stroke-width:1.0;" width="10" x="1266.6509" y="1217.4473"/><line style="stroke:#181818;stroke-width:0.5;stroke-dasharray:5.0,5.0;" x1="22" x2="22" y1="83.6211" y2="1360.6113"/><line style="stroke:#181818;stroke-width:0.5;stroke-dasharray:5.0,5.0;" x1="229.6846" x2="229.6846" y1="83.6211" y2="1360.6113"/><line style="stroke:#181818;stroke-width:0.5;stroke-dasharray:5.0,5.0;" x1="387.6108" x2="387.6108" y1="166.0332" y2="1360.6113"/><line style="stroke:#181818;stroke-width:0.5;stroke-dasharray:5.0,5.0;" x1="667.6846" x2="667.6846" y1="259.5664" y2="1360.6113"/><line style="stroke:#181818;stroke-width:0.5;stroke-dasharray:5.0,5.0;" x1="841.6563" x2="841.6563" y1="83.6211" y2="1360.6113"/><line style="stroke:#181818;stroke-width:0.5;stroke-dasharray:5.0,5.0;" x1="996.2832" x2="996.2832" y1="83.6211" y2="1360.6113"/><line style="stroke:#181818;stroke-width:0.5;stroke-dasharray:5.0,5.0;" x1="1131.1104" x2="1131.1104" y1="1079.502" y2="1360.6113"/><line style="stroke:#181818;stroke-width:0.5;stroke-dasharray:5.0,5.0;" x1="1271.1406" x2="1271.1406" y1="83.6211" y2="1360.6113"/><line style="stroke:#181818;stroke-width:0.5;stroke-dasharray:5.0,5.0;" x1="1345.1611" x2="1345.1611" y1="1173.0352" y2="1360.6113"/><text fill="#000000" font-family="sans-serif" font-size="14" lengthAdjust="spacing" textLength="29.5586" x="5" y="80.1074">User</text><ellipse cx="22.7793" cy="13.5" fill="#E3E3E3" rx="8" ry="8" style="stroke:#181818;stroke-width:0.5;"/><path d="M22.7793,21.5 L22.7793,48.5 M9.7793,29.5 L35.7793,29.5 M22.7793,48.5 L9.7793,63.5 M22.7793,48.5 L35.7793,63.5 " fill="none" style="stroke:#181818;stroke-width:0.5;"/><text fill="#000000" font-family="sans-serif" font-size="14" lengthAdjust="spacing" textLength="29.5586" x="5" y="1374.7188">User</text><ellipse cx="22.7793" cy="1386.7324" fill="#E3E3E3" rx="8" ry="8" style="stroke:#181818;stroke-width:0.5;"/><path d="M22.7793,1394.7324 L22.7793,1421.7324 M9.7793,1402.7324 L35.7793,1402.7324 M22.7793,1421.7324 L9.7793,1436.7324 M22.7793,1421.7324 L35.7793,1436.7324 " fill="none" style="stroke:#181818;stroke-width:0.5;"/><rect fill="#E3E3E3" height="51.2422" rx="2.5" ry="2.5" style="stroke:#181818;stroke-width:0.5;" width="119.8271" x="170.6846" y="31.3789"/><text fill="#000000" font-family="sans-serif" font-size="14" lengthAdjust="spacing" textLength="105.8271" x="177.6846" y="53.4863">createHabitView:</text><text fill="#000000" font-family="sans-serif" font-size="14" lengthAdjust="spacing" textLength="105.0479" x="178.0742" y="72.1074">CreateHabitView</text><rect fill="#E3E3E3" height="51.2422" rx="2.5" ry="2.5" style="stroke:#181818;stroke-width:0.5;" width="119.8271" x="170.6846" y="1359.6113"/><text fill="#000000" font-family="sans-serif" font-size="14" lengthAdjust="spacing" textLength="105.8271" x="177.6846" y="1381.7188">createHabitView:</text><text fill="#000000" font-family="sans-serif" font-size="14" lengthAdjust="spacing" textLength="105.0479" x="178.0742" y="1400.3398">CreateHabitView</text><rect fill="#E3E3E3" height="51.2422" rx="2.5" ry="2.5" style="stroke:#181818;stroke-width:0.5;" width="157.958" x="309.6108" y="1359.6113"/><text fill="#000000" font-family="sans-serif" font-size="14" lengthAdjust="spacing" textLength="143.958" x="316.6108" y="1381.7188">createHabitViewModel:</text><text fill="#000000" font-family="sans-serif" font-size="14" lengthAdjust="spacing" textLength="143.1787" x="317.0005" y="1400.3398">CreateHabitViewModel</text><rect fill="#E3E3E3" height="51.2422" rx="2.5" ry="2.5" style="stroke:#181818;stroke-width:0.5;" width="171.9717" x="582.6846" y="1359.6113"/><text fill="#000000" font-family="sans-serif" font-size="14" lengthAdjust="spacing" textLength="157.9717" x="589.6846" y="1381.7188">habitCategoryRepository:</text><text fill="#000000" font-family="sans-serif" font-size="14" lengthAdjust="spacing" textLength="156.4063" x="590.4673" y="1400.3398">HabitCategoryRepository</text><rect fill="#E3E3E3" height="51.2422" rx="2.5" ry="2.5" style="stroke:#181818;stroke-width:0.5;" width="155.627" x="764.6563" y="31.3789"/><text fill="#000000" font-family="sans-serif" font-size="14" lengthAdjust="spacing" textLength="141.627" x="771.6563" y="53.4863">habitTrackerDatabase:</text><text fill="#000000" font-family="sans-serif" font-size="14" lengthAdjust="spacing" textLength="140.0615" x="772.439" y="72.1074">HabitTrackerDatabase</text><rect fill="#E3E3E3" height="51.2422" rx="2.5" ry="2.5" style="stroke:#181818;stroke-width:0.5;" width="155.627" x="764.6563" y="1359.6113"/><text fill="#000000" font-family="sans-serif" font-size="14" lengthAdjust="spacing" textLength="141.627" x="771.6563" y="1381.7188">habitTrackerDatabase:</text><text fill="#000000" font-family="sans-serif" font-size="14" lengthAdjust="spacing" textLength="140.0615" x="772.439" y="1400.3398">HabitTrackerDatabase</text><rect fill="#E3E3E3" height="32.6211" rx="2.5" ry="2.5" style="stroke:#181818;stroke-width:0.5;" width="133.8271" x="930.2832" y="50"/><text fill="#000000" font-family="sans-serif" font-size="14" lengthAdjust="spacing" textLength="119.8271" x="937.2832" y="72.1074">HabitCategoryDAO</text><rect fill="#E3E3E3" height="32.6211" rx="2.5" ry="2.5" style="stroke:#181818;stroke-width:0.5;" width="133.8271" x="930.2832" y="1359.6113"/><text fill="#000000" font-family="sans-serif" font-size="14" lengthAdjust="spacing" textLength="119.8271" x="937.2832" y="1381.7188">HabitCategoryDAO</text><rect fill="#E3E3E3" height="51.2422" rx="2.5" ry="2.5" style="stroke:#181818;stroke-width:0.5;" width="115.165" x="1074.1104" y="1359.6113"/><text fill="#000000" font-family="sans-serif" font-size="14" lengthAdjust="spacing" textLength="101.165" x="1081.1104" y="1381.7188">habitRepository:</text><text fill="#000000" font-family="sans-serif" font-size="14" lengthAdjust="spacing" textLength="99.5996" x="1081.8931" y="1400.3398">HabitRepository</text><rect fill="#E3E3E3" height="32.6211" rx="2.5" ry="2.5" style="stroke:#181818;stroke-width:0.5;" width="77.0205" x="1233.1406" y="50"/><text fill="#000000" font-family="sans-serif" font-size="14" lengthAdjust="spacing" textLength="63.0205" x="1240.1406" y="72.1074">HabitDAO</text><rect fill="#E3E3E3" height="32.6211" rx="2.5" ry="2.5" style="stroke:#181818;stroke-width:0.5;" width="77.0205" x="1233.1406" y="1359.6113"/><text fill="#000000" font-family="sans-serif" font-size="14" lengthAdjust="spacing" textLength="63.0205" x="1240.1406" y="1381.7188">HabitDAO</text><rect fill="#E3E3E3" height="51.2422" rx="2.5" ry="2.5" style="stroke:#181818;stroke-width:0.5;" width="50.5723" x="1320.1611" y="1359.6113"/><text fill="#000000" font-family="sans-serif" font-size="14" lengthAdjust="spacing" textLength="30.3584" x="1330.2681" y="1381.7188">habit</text><text fill="#000000" font-family="sans-serif" font-size="14" lengthAdjust="spacing" textLength="36.5723" x="1327.1611" y="1400.3398">:Habit</text><rect fill="#FFFFFF" height="1248.9902" style="stroke:#181818;stroke-width:1.0;" width="10" x="17.7793" y="93.6211"/><rect fill="#FFFFFF" height="423.3945" style="stroke:#181818;stroke-width:1.0;" width="10" x="225.5981" y="116.9121"/><rect fill="#FFFFFF" height="31.291" style="stroke:#181818;stroke-width:1.0;" width="10" x="225.5981" y="571.5977"/><rect fill="#FFFFFF" height="717.4316" style="stroke:#181818;stroke-width:1.0;" width="10" x="225.5981" y="634.1797"/><rect fill="#FFFFFF" height="281.2793" style="stroke:#181818;stroke-width:1.0;" width="10" x="383.5898" y="210.4453"/><rect fill="#FFFFFF" height="645.8496" style="stroke:#181818;stroke-width:1.0;" width="10" x="383.5898" y="665.4707"/><rect fill="#FFFFFF" height="42.291" style="stroke:#181818;stroke-width:1.0;" width="10" x="388.5898" y="704.7617"/><rect fill="#FFFFFF" height="230.0371" style="stroke:#181818;stroke-width:1.0;" width="10" x="388.5898" y="793.3438"/><rect fill="#FFFFFF" height="156.4551" style="stroke:#181818;stroke-width:1.0;" width="10" x="663.6704" y="303.9785"/><rect fill="#FFFFFF" height="156.4551" style="stroke:#181818;stroke-width:1.0;" width="10" x="663.6704" y="829.6348"/><rect fill="#FFFFFF" height="31.291" style="stroke:#181818;stroke-width:1.0;" width="10" x="837.4697" y="335.2695"/><rect fill="#FFFFFF" height="31.291" style="stroke:#181818;stroke-width:1.0;" width="10" x="837.4697" y="860.9258"/><rect fill="#FFFFFF" height="31.291" style="stroke:#181818;stroke-width:1.0;" width="10" x="992.1968" y="397.8516"/><rect fill="#FFFFFF" height="31.291" style="stroke:#181818;stroke-width:1.0;" width="10" x="992.1968" y="923.5078"/><rect fill="#FFFFFF" height="156.1152" style="stroke:#181818;stroke-width:1.0;" width="10" x="1126.6929" y="1123.9141"/><rect fill="#FFFFFF" height="31.291" style="stroke:#181818;stroke-width:1.0;" width="10" x="1266.6509" y="1217.4473"/><polygon fill="#181818" points="213.5981,112.9121,223.5981,116.9121,213.5981,120.9121,217.5981,116.9121" style="stroke:#181818;stroke-width:1.0;"/><line style="stroke:#181818;stroke-width:1.0;" x1="27.7793" x2="219.5981" y1="116.9121" y2="116.9121"/><text fill="#000000" font-family="sans-serif" font-size="13" font-weight="bold" lengthAdjust="spacing" textLength="7.23" x="34.7793" y="111.6494">1</text><text fill="#000000" font-family="sans-serif" font-size="13" lengthAdjust="spacing" textLength="151.0298" x="46.0093" y="111.6494">asks to create a new habit</text><polygon fill="#181818" points="297.6108,144.2031,307.6108,148.2031,297.6108,152.2031,301.6108,148.2031" style="stroke:#181818;stroke-width:1.0;"/><line style="stroke:#181818;stroke-width:1.0;" x1="235.5981" x2="303.6108" y1="148.2031" y2="148.2031"/><text fill="#000000" font-family="sans-serif" font-size="13" font-weight="bold" lengthAdjust="spacing" textLength="7.23" x="242.5981" y="142.9404">2</text><text fill="#000000" font-family="sans-serif" font-size="13" lengthAdjust="spacing" textLength="36.1309" x="253.8281" y="142.9404">create</text><rect fill="#E3E3E3" height="51.2422" rx="2.5" ry="2.5" style="stroke:#181818;stroke-width:0.5;" width="157.958" x="309.6108" y="124.9121"/><text fill="#000000" font-family="sans-serif" font-size="14" lengthAdjust="spacing" textLength="143.958" x="316.6108" y="147.0195">createHabitViewModel:</text><text fill="#000000" font-family="sans-serif" font-size="14" lengthAdjust="spacing" textLength="143.1787" x="317.0005" y="165.6406">CreateHabitViewModel</text><polygon fill="#181818" points="371.5898,206.4453,381.5898,210.4453,371.5898,214.4453,375.5898,210.4453" style="stroke:#181818;stroke-width:1.0;"/><line style="stroke:#181818;stroke-width:1.0;" x1="235.5981" x2="377.5898" y1="210.4453" y2="210.4453"/><text fill="#000000" font-family="sans-serif" font-size="13" font-weight="bold" lengthAdjust="spacing" textLength="7.23" x="242.5981" y="205.1826">3</text><text fill="#000000" font-family="sans-serif" font-size="13" lengthAdjust="spacing" textLength="117.7617" x="253.8281" y="205.1826">listHabitCategories()</text><polygon fill="#181818" points="570.6846,237.7363,580.6846,241.7363,570.6846,245.7363,574.6846,241.7363" style="stroke:#181818;stroke-width:1.0;"/><line style="stroke:#181818;stroke-width:1.0;" x1="393.5898" x2="576.6846" y1="241.7363" y2="241.7363"/><text fill="#000000" font-family="sans-serif" font-size="13" font-weight="bold" lengthAdjust="spacing" textLength="7.23" x="400.5898" y="236.4736">4</text><text fill="#000000" font-family="sans-serif" font-size="13" lengthAdjust="spacing" textLength="36.1309" x="411.8198" y="236.4736">create</text><rect fill="#E3E3E3" height="51.2422" rx="2.5" ry="2.5" style="stroke:#181818;stroke-width:0.5;" width="171.9717" x="582.6846" y="218.4453"/><text fill="#000000" font-family="sans-serif" font-size="14" lengthAdjust="spacing" textLength="157.9717" x="589.6846" y="240.5527">habitCategoryRepository:</text><text fill="#000000" font-family="sans-serif" font-size="14" lengthAdjust="spacing" textLength="156.4063" x="590.4673" y="259.1738">HabitCategoryRepository</text><polygon fill="#181818" points="651.6704,299.9785,661.6704,303.9785,651.6704,307.9785,655.6704,303.9785" style="stroke:#181818;stroke-width:1.0;"/><line style="stroke:#181818;stroke-width:1.0;" x1="393.5898" x2="657.6704" y1="303.9785" y2="303.9785"/><text fill="#000000" font-family="sans-serif" font-size="13" font-weight="bold" lengthAdjust="spacing" textLength="7.23" x="400.5898" y="298.7158">5</text><text fill="#000000" font-family="sans-serif" font-size="13" lengthAdjust="spacing" textLength="117.7617" x="411.8198" y="298.7158">listHabitCategories()</text><polygon fill="#181818" points="825.4697,331.2695,835.4697,335.2695,825.4697,339.2695,829.4697,335.2695" style="stroke:#181818;stroke-width:1.0;"/><line style="stroke:#181818;stroke-width:1.0;" x1="673.6704" x2="831.4697" y1="335.2695" y2="335.2695"/><text fill="#000000" font-family="sans-serif" font-size="13" font-weight="bold" lengthAdjust="spacing" textLength="7.23" x="680.6704" y="330.0068">6</text><text fill="#000000" font-family="sans-serif" font-size="13" lengthAdjust="spacing" textLength="117.7681" x="691.9004" y="330.0068">habitCategoryDAO()</text><polygon fill="#181818" points="684.6704,362.5605,674.6704,366.5605,684.6704,370.5605,680.6704,366.5605" style="stroke:#181818;stroke-width:1.0;"/><line style="stroke:#181818;stroke-width:1.0;stroke-dasharray:2.0,2.0;" x1="678.6704" x2="841.4697" y1="366.5605" y2="366.5605"/><text fill="#000000" font-family="sans-serif" font-size="13" font-weight="bold" lengthAdjust="spacing" textLength="7.23" x="690.6704" y="361.2979">7</text><text fill="#000000" font-family="sans-serif" font-size="13" lengthAdjust="spacing" textLength="109.1099" x="701.9004" y="361.2979">habitCategoryDAO</text><polygon fill="#181818" points="980.1968,393.8516,990.1968,397.8516,980.1968,401.8516,984.1968,397.8516" style="stroke:#181818;stroke-width:1.0;"/><line style="stroke:#181818;stroke-width:1.0;" x1="673.6704" x2="986.1968" y1="397.8516" y2="397.8516"/><text fill="#000000" font-family="sans-serif" font-size="13" font-weight="bold" lengthAdjust="spacing" textLength="7.23" x="680.6704" y="392.5889">8</text><text fill="#000000" font-family="sans-serif" font-size="13" lengthAdjust="spacing" textLength="117.7617" x="691.9004" y="392.5889">listHabitCategories()</text><polygon fill="#181818" points="684.6704,425.1426,674.6704,429.1426,684.6704,433.1426,680.6704,429.1426" style="stroke:#181818;stroke-width:1.0;"/><line style="stroke:#181818;stroke-width:1.0;stroke-dasharray:2.0,2.0;" x1="678.6704" x2="996.1968" y1="429.1426" y2="429.1426"/><text fill="#000000" font-family="sans-serif" font-size="13" font-weight="bold" lengthAdjust="spacing" textLength="7.23" x="690.6704" y="423.8799">9</text><text fill="#000000" font-family="sans-serif" font-size="13" lengthAdjust="spacing" textLength="101.1689" x="701.9004" y="423.8799">habitCategoryList</text><polygon fill="#181818" points="404.5898,456.4336,394.5898,460.4336,404.5898,464.4336,400.5898,460.4336" style="stroke:#181818;stroke-width:1.0;"/><line style="stroke:#181818;stroke-width:1.0;stroke-dasharray:2.0,2.0;" x1="398.5898" x2="667.6704" y1="460.4336" y2="460.4336"/><text fill="#000000" font-family="sans-serif" font-size="13" font-weight="bold" lengthAdjust="spacing" textLength="14.46" x="410.5898" y="455.1709">10</text><text fill="#000000" font-family="sans-serif" font-size="13" lengthAdjust="spacing" textLength="101.1689" x="429.0498" y="455.1709">habitCategoryList</text><polygon fill="#181818" points="246.5981,487.7246,236.5981,491.7246,246.5981,495.7246,242.5981,491.7246" style="stroke:#181818;stroke-width:1.0;"/><line style="stroke:#181818;stroke-width:1.0;stroke-dasharray:2.0,2.0;" x1="240.5981" x2="387.5898" y1="491.7246" y2="491.7246"/><text fill="#000000" font-family="sans-serif" font-size="13" font-weight="bold" lengthAdjust="spacing" textLength="14.46" x="252.5981" y="486.4619">11</text><text fill="#000000" font-family="sans-serif" font-size="13" lengthAdjust="spacing" textLength="101.1689" x="271.0581" y="486.4619">habitCategoryList</text><polygon fill="#181818" points="38.7793,536.3066,28.7793,540.3066,38.7793,544.3066,34.7793,540.3066" style="stroke:#181818;stroke-width:1.0;"/><line style="stroke:#181818;stroke-width:1.0;stroke-dasharray:2.0,2.0;" x1="32.7793" x2="229.5981" y1="540.3066" y2="540.3066"/><text fill="#000000" font-family="sans-serif" font-size="13" font-weight="bold" lengthAdjust="spacing" textLength="14.46" x="44.7793" y="526.3984">12</text><text fill="#000000" font-family="sans-serif" font-size="13" lengthAdjust="spacing" textLength="145.2407" x="63.2393" y="517.7529">display habit category list</text><text fill="#000000" font-family="sans-serif" font-size="13" lengthAdjust="spacing" textLength="129.3589" x="66.8511" y="535.0439">and asks to select one</text><polygon fill="#181818" points="213.5981,567.5977,223.5981,571.5977,213.5981,575.5977,217.5981,571.5977" style="stroke:#181818;stroke-width:1.0;"/><line style="stroke:#181818;stroke-width:1.0;" x1="27.7793" x2="219.5981" y1="571.5977" y2="571.5977"/><text fill="#000000" font-family="sans-serif" font-size="13" font-weight="bold" lengthAdjust="spacing" textLength="14.46" x="34.7793" y="566.335">13</text><text fill="#000000" font-family="sans-serif" font-size="13" lengthAdjust="spacing" textLength="136.5762" x="53.2393" y="566.335">selects a habit category</text><polygon fill="#181818" points="38.7793,598.8887,28.7793,602.8887,38.7793,606.8887,34.7793,602.8887" style="stroke:#181818;stroke-width:1.0;"/><line style="stroke:#181818;stroke-width:1.0;stroke-dasharray:2.0,2.0;" x1="32.7793" x2="229.5981" y1="602.8887" y2="602.8887"/><text fill="#000000" font-family="sans-serif" font-size="13" font-weight="bold" lengthAdjust="spacing" textLength="14.46" x="44.7793" y="597.626">14</text><text fill="#000000" font-family="sans-serif" font-size="13" lengthAdjust="spacing" textLength="78.7744" x="63.2393" y="597.626">requests data</text><polygon fill="#181818" points="213.5981,630.1797,223.5981,634.1797,213.5981,638.1797,217.5981,634.1797" style="stroke:#181818;stroke-width:1.0;"/><line style="stroke:#181818;stroke-width:1.0;" x1="27.7793" x2="219.5981" y1="634.1797" y2="634.1797"/><text fill="#000000" font-family="sans-serif" font-size="13" font-weight="bold" lengthAdjust="spacing" textLength="14.46" x="34.7793" y="628.917">15</text><text fill="#000000" font-family="sans-serif" font-size="13" lengthAdjust="spacing" textLength="121.418" x="53.2393" y="628.917">types requested data</text><polygon fill="#181818" points="371.5898,661.4707,381.5898,665.4707,371.5898,669.4707,375.5898,665.4707" style="stroke:#181818;stroke-width:1.0;"/><line style="stroke:#181818;stroke-width:1.0;" x1="235.5981" x2="377.5898" y1="665.4707" y2="665.4707"/><text fill="#000000" font-family="sans-serif" font-size="13" font-weight="bold" lengthAdjust="spacing" textLength="14.46" x="242.5981" y="660.208">16</text><text fill="#000000" font-family="sans-serif" font-size="13" lengthAdjust="spacing" textLength="86.7026" x="261.0581" y="660.208">addNewHabit()</text><line style="stroke:#181818;stroke-width:1.0;" x1="393.5898" x2="440.5898" y1="691.7617" y2="691.7617"/><line style="stroke:#181818;stroke-width:1.0;" x1="440.5898" x2="440.5898" y1="691.7617" y2="704.7617"/><line style="stroke:#181818;stroke-width:1.0;" x1="399.5898" x2="440.5898" y1="704.7617" y2="704.7617"/><polygon fill="#181818" points="409.5898,700.7617,399.5898,704.7617,409.5898,708.7617,405.5898,704.7617" style="stroke:#181818;stroke-width:1.0;"/><text fill="#000000" font-family="sans-serif" font-size="13" font-weight="bold" lengthAdjust="spacing" textLength="14.46" x="405.5898" y="686.499">17</text><text fill="#000000" font-family="sans-serif" font-size="13" lengthAdjust="spacing" textLength="80.9263" x="424.0498" y="686.499">validateData()</text><line style="stroke:#181818;stroke-width:1.0;stroke-dasharray:2.0,2.0;" x1="398.5898" x2="440.5898" y1="746.0527" y2="746.0527"/><line style="stroke:#181818;stroke-width:1.0;stroke-dasharray:2.0,2.0;" x1="440.5898" x2="440.5898" y1="746.0527" y2="759.0527"/><line style="stroke:#181818;stroke-width:1.0;stroke-dasharray:2.0,2.0;" x1="393.5898" x2="440.5898" y1="759.0527" y2="759.0527"/><polygon fill="#181818" points="403.5898,755.0527,393.5898,759.0527,403.5898,763.0527,399.5898,759.0527" style="stroke:#181818;stroke-width:1.0;"/><text fill="#000000" font-family="sans-serif" font-size="13" font-weight="bold" lengthAdjust="spacing" textLength="14.46" x="405.5898" y="740.79">18</text><text fill="#000000" font-family="sans-serif" font-size="13" lengthAdjust="spacing" textLength="3.6118" x="424.0498" y="740.79">&#160;</text><line style="stroke:#181818;stroke-width:1.0;" x1="393.5898" x2="440.5898" y1="780.3438" y2="780.3438"/><line style="stroke:#181818;stroke-width:1.0;" x1="440.5898" x2="440.5898" y1="780.3438" y2="793.3438"/><line style="stroke:#181818;stroke-width:1.0;" x1="399.5898" x2="440.5898" y1="793.3438" y2="793.3438"/><polygon fill="#181818" points="409.5898,789.3438,399.5898,793.3438,409.5898,797.3438,405.5898,793.3438" style="stroke:#181818;stroke-width:1.0;"/><text fill="#000000" font-family="sans-serif" font-size="13" font-weight="bold" lengthAdjust="spacing" textLength="14.46" x="405.5898" y="775.0811">19</text><text fill="#000000" font-family="sans-serif" font-size="13" lengthAdjust="spacing" textLength="227.6206" x="424.0498" y="775.0811">getHabitCategoryById(habitCategoryId)</text><polygon fill="#181818" points="651.6704,825.6348,661.6704,829.6348,651.6704,833.6348,655.6704,829.6348" style="stroke:#181818;stroke-width:1.0;"/><line style="stroke:#181818;stroke-width:1.0;" x1="398.5898" x2="657.6704" y1="829.6348" y2="829.6348"/><text fill="#000000" font-family="sans-serif" font-size="13" font-weight="bold" lengthAdjust="spacing" textLength="14.46" x="405.5898" y="824.3721">20</text><text fill="#000000" font-family="sans-serif" font-size="13" lengthAdjust="spacing" textLength="138.728" x="424.0498" y="824.3721">findHabitCategoryById()</text><polygon fill="#181818" points="825.4697,856.9258,835.4697,860.9258,825.4697,864.9258,829.4697,860.9258" style="stroke:#181818;stroke-width:1.0;"/><line style="stroke:#181818;stroke-width:1.0;" x1="673.6704" x2="831.4697" y1="860.9258" y2="860.9258"/><text fill="#000000" font-family="sans-serif" font-size="13" font-weight="bold" lengthAdjust="spacing" textLength="14.46" x="680.6704" y="855.6631">21</text><text fill="#000000" font-family="sans-serif" font-size="13" lengthAdjust="spacing" textLength="117.7681" x="699.1304" y="855.6631">habitCategoryDAO()</text><polygon fill="#181818" points="684.6704,888.2168,674.6704,892.2168,684.6704,896.2168,680.6704,892.2168" style="stroke:#181818;stroke-width:1.0;"/><line style="stroke:#181818;stroke-width:1.0;stroke-dasharray:2.0,2.0;" x1="678.6704" x2="841.4697" y1="892.2168" y2="892.2168"/><text fill="#000000" font-family="sans-serif" font-size="13" font-weight="bold" lengthAdjust="spacing" textLength="14.46" x="690.6704" y="886.9541">22</text><text fill="#000000" font-family="sans-serif" font-size="13" lengthAdjust="spacing" textLength="109.1099" x="709.1304" y="886.9541">habitCategoryDAO</text><polygon fill="#181818" points="980.1968,919.5078,990.1968,923.5078,980.1968,927.5078,984.1968,923.5078" style="stroke:#181818;stroke-width:1.0;"/><line style="stroke:#181818;stroke-width:1.0;" x1="673.6704" x2="986.1968" y1="923.5078" y2="923.5078"/><text fill="#000000" font-family="sans-serif" font-size="13" font-weight="bold" lengthAdjust="spacing" textLength="14.46" x="680.6704" y="918.2451">23</text><text fill="#000000" font-family="sans-serif" font-size="13" lengthAdjust="spacing" textLength="138.728" x="699.1304" y="918.2451">findHabitCategoryById()</text><polygon fill="#181818" points="684.6704,950.7988,674.6704,954.7988,684.6704,958.7988,680.6704,954.7988" style="stroke:#181818;stroke-width:1.0;"/><line style="stroke:#181818;stroke-width:1.0;stroke-dasharray:2.0,2.0;" x1="678.6704" x2="996.1968" y1="954.7988" y2="954.7988"/><text fill="#000000" font-family="sans-serif" font-size="13" font-weight="bold" lengthAdjust="spacing" textLength="14.46" x="690.6704" y="949.5361">24</text><text fill="#000000" font-family="sans-serif" font-size="13" lengthAdjust="spacing" textLength="80.939" x="709.1304" y="949.5361">habitCategory</text><polygon fill="#181818" points="409.5898,982.0898,399.5898,986.0898,409.5898,990.0898,405.5898,986.0898" style="stroke:#181818;stroke-width:1.0;"/><line style="stroke:#181818;stroke-width:1.0;stroke-dasharray:2.0,2.0;" x1="403.5898" x2="667.6704" y1="986.0898" y2="986.0898"/><text fill="#000000" font-family="sans-serif" font-size="13" font-weight="bold" lengthAdjust="spacing" textLength="14.46" x="415.5898" y="980.8271">25</text><text fill="#000000" font-family="sans-serif" font-size="13" lengthAdjust="spacing" textLength="80.939" x="434.0498" y="980.8271">habitCategory</text><line style="stroke:#181818;stroke-width:1.0;stroke-dasharray:2.0,2.0;" x1="398.5898" x2="440.5898" y1="1022.3809" y2="1022.3809"/><line style="stroke:#181818;stroke-width:1.0;stroke-dasharray:2.0,2.0;" x1="440.5898" x2="440.5898" y1="1022.3809" y2="1035.3809"/><line style="stroke:#181818;stroke-width:1.0;stroke-dasharray:2.0,2.0;" x1="393.5898" x2="440.5898" y1="1035.3809" y2="1035.3809"/><polygon fill="#181818" points="403.5898,1031.3809,393.5898,1035.3809,403.5898,1039.3809,399.5898,1035.3809" style="stroke:#181818;stroke-width:1.0;"/><text fill="#000000" font-family="sans-serif" font-size="13" font-weight="bold" lengthAdjust="spacing" textLength="14.46" x="405.5898" y="1017.1182">26</text><text fill="#000000" font-family="sans-serif" font-size="13" lengthAdjust="spacing" textLength="80.939" x="424.0498" y="1017.1182">habitCategory</text><polygon fill="#181818" points="1062.1104,1057.6719,1072.1104,1061.6719,1062.1104,1065.6719,1066.1104,1061.6719" style="stroke:#181818;stroke-width:1.0;"/><line style="stroke:#181818;stroke-width:1.0;" x1="393.5898" x2="1068.1104" y1="1061.6719" y2="1061.6719"/><text fill="#000000" font-family="sans-serif" font-size="13" font-weight="bold" lengthAdjust="spacing" textLength="14.46" x="400.5898" y="1056.4092">27</text><text fill="#000000" font-family="sans-serif" font-size="13" lengthAdjust="spacing" textLength="36.1309" x="419.0498" y="1056.4092">create</text><rect fill="#E3E3E3" height="51.2422" rx="2.5" ry="2.5" style="stroke:#181818;stroke-width:0.5;" width="115.165" x="1074.1104" y="1038.3809"/><text fill="#000000" font-family="sans-serif" font-size="14" lengthAdjust="spacing" textLength="101.165" x="1081.1104" y="1060.4883">habitRepository:</text><text fill="#000000" font-family="sans-serif" font-size="14" lengthAdjust="spacing" textLength="99.5996" x="1081.8931" y="1079.1094">HabitRepository</text><polygon fill="#181818" points="1114.6929,1119.9141,1124.6929,1123.9141,1114.6929,1127.9141,1118.6929,1123.9141" style="stroke:#181818;stroke-width:1.0;"/><line style="stroke:#181818;stroke-width:1.0;" x1="393.5898" x2="1120.6929" y1="1123.9141" y2="1123.9141"/><text fill="#000000" font-family="sans-serif" font-size="13" font-weight="bold" lengthAdjust="spacing" textLength="14.46" x="400.5898" y="1118.6514">28</text><text fill="#000000" font-family="sans-serif" font-size="13" lengthAdjust="spacing" textLength="86.7026" x="419.0498" y="1118.6514">addNewHabit()</text><polygon fill="#181818" points="1308.1611,1151.2051,1318.1611,1155.2051,1308.1611,1159.2051,1312.1611,1155.2051" style="stroke:#181818;stroke-width:1.0;"/><line style="stroke:#181818;stroke-width:1.0;" x1="1136.6929" x2="1314.1611" y1="1155.2051" y2="1155.2051"/><text fill="#000000" font-family="sans-serif" font-size="13" font-weight="bold" lengthAdjust="spacing" textLength="14.46" x="1143.6929" y="1149.9424">29</text><text fill="#000000" font-family="sans-serif" font-size="13" lengthAdjust="spacing" textLength="55.6245" x="1162.1528" y="1149.9424">create(...)</text><rect fill="#E3E3E3" height="51.2422" rx="2.5" ry="2.5" style="stroke:#181818;stroke-width:0.5;" width="50.5723" x="1320.1611" y="1131.9141"/><text fill="#000000" font-family="sans-serif" font-size="14" lengthAdjust="spacing" textLength="30.3584" x="1330.2681" y="1154.0215">habit</text><text fill="#000000" font-family="sans-serif" font-size="14" lengthAdjust="spacing" textLength="36.5723" x="1327.1611" y="1172.6426">:Habit</text><polygon fill="#181818" points="1254.6509,1213.4473,1264.6509,1217.4473,1254.6509,1221.4473,1258.6509,1217.4473" style="stroke:#181818;stroke-width:1.0;"/><line style="stroke:#181818;stroke-width:1.0;" x1="1136.6929" x2="1260.6509" y1="1217.4473" y2="1217.4473"/><text fill="#000000" font-family="sans-serif" font-size="13" font-weight="bold" lengthAdjust="spacing" textLength="14.46" x="1143.6929" y="1212.1846">30</text><text fill="#000000" font-family="sans-serif" font-size="13" lengthAdjust="spacing" textLength="92.498" x="1162.1528" y="1212.1846">addHabit (habit)</text><polygon fill="#181818" points="1147.6929,1244.7383,1137.6929,1248.7383,1147.6929,1252.7383,1143.6929,1248.7383" style="stroke:#181818;stroke-width:1.0;"/><line style="stroke:#181818;stroke-width:1.0;stroke-dasharray:2.0,2.0;" x1="1141.6929" x2="1270.6509" y1="1248.7383" y2="1248.7383"/><text fill="#000000" font-family="sans-serif" font-size="13" font-weight="bold" lengthAdjust="spacing" textLength="14.46" x="1153.6929" y="1243.4756">31</text><text fill="#000000" font-family="sans-serif" font-size="13" lengthAdjust="spacing" textLength="3.6118" x="1172.1528" y="1243.4756">&#160;</text><polygon fill="#181818" points="404.5898,1276.0293,394.5898,1280.0293,404.5898,1284.0293,400.5898,1280.0293" style="stroke:#181818;stroke-width:1.0;"/><line style="stroke:#181818;stroke-width:1.0;stroke-dasharray:2.0,2.0;" x1="398.5898" x2="1130.6929" y1="1280.0293" y2="1280.0293"/><text fill="#000000" font-family="sans-serif" font-size="13" font-weight="bold" lengthAdjust="spacing" textLength="14.46" x="410.5898" y="1274.7666">32</text><text fill="#000000" font-family="sans-serif" font-size="13" lengthAdjust="spacing" textLength="28.1899" x="429.0498" y="1274.7666">habit</text><polygon fill="#181818" points="246.5981,1307.3203,236.5981,1311.3203,246.5981,1315.3203,242.5981,1311.3203" style="stroke:#181818;stroke-width:1.0;"/><line style="stroke:#181818;stroke-width:1.0;stroke-dasharray:2.0,2.0;" x1="240.5981" x2="387.5898" y1="1311.3203" y2="1311.3203"/><text fill="#000000" font-family="sans-serif" font-size="13" font-weight="bold" lengthAdjust="spacing" textLength="14.46" x="252.5981" y="1306.0576">33</text><text fill="#000000" font-family="sans-serif" font-size="13" lengthAdjust="spacing" textLength="62.8672" x="271.0581" y="1306.0576">habitName</text><polygon fill="#181818" points="33.7793,1338.6113,23.7793,1342.6113,33.7793,1346.6113,29.7793,1342.6113" style="stroke:#181818;stroke-width:1.0;"/><line style="stroke:#181818;stroke-width:1.0;stroke-dasharray:2.0,2.0;" x1="27.7793" x2="224.5981" y1="1342.6113" y2="1342.6113"/><text fill="#000000" font-family="sans-serif" font-size="13" font-weight="bold" lengthAdjust="spacing" textLength="14.46" x="39.7793" y="1337.3486">34</text><text fill="#000000" font-family="sans-serif" font-size="13" lengthAdjust="spacing" textLength="155.3589" x="58.2393" y="1337.3486">displays operation success</text><!--SRC=[xLTDZzem4BtxLumuiKZB3-1GgTqzx4hjLkhNYOk9Py4YsAbj5kNVT-AG41CxX5Qqb-QKs3FlpSVp6EnMge8RleETLZhR6Br3S6QFpBOx1S-sV8rVNPaZ6CmSL-kyQs0tNEY3L6juvRb5nlZUQRNVhT3GU-QqWSbtYsR2oDx9J1PSEPXa1hd39xwIxeV4msAf7iAL2N0BrSkWtoSjCEyx- -KMmN-5C9lAye5SrjgKNx3GLbAa9I4znNSyM68l0ltDKDtGF7B7LznYWtksx46RZn0be7fy_xdFJuiHudukiHnIiVlDW2tEibGBltkoyxsMRnGRLDrc3EYftk3-dMy2BCXsQy5fg7i871GjUpnltGBuhlkbwl7EHn3VoTcCi6gC0IkooQLrtP99jDExrgD7MSias6-GQqI2JoWW6j8r0AEY3I9EQR7dKJqfLWgebIXipjGLOGyYQ8KRDQkUnWBkqvdtUUDm0aSI3-HwVdx65ZrT-2hSPFhdbbUKuIF5nIwKOLmWoN9q3yiOzXJpaFOwqZ-DWM6g3atYKDP7dV3yU5c0aBR8ULdZGdO4zgrTAk1Aj8F7Oaut66Y5B44NdLkrcwM15L9Sdbgd80t-tACb447YPMEPNLcWRNnHd9p7pifgwWhnWWVViewqnnIv7LeTdRpnN58KM9t1FnkcNTpVK40_ECfrZS5fBZ-Kps8QwErPtEO68F9NgKIV_Vy8l_487rlslp_4_zq0lz7mlaXrvT4z-otQ_HKrrYSrt_hTxgGQBN54PxDP4yzqFf_VZVRpkgIu_0VK0-ZI71ZkVo2yWKpE-nn5xOKTQIyRGesffg-M8z8Bto4R5aTmMRONkWLTeE5EQWLsdsLeBUjW-ByPlm00]--></g></svg>