<svg xmlns="http://www.w3.org/2000/svg" xmlns:xlink="http://www.w3.org/1999/xlink" contentStyleType="text/css" height="1970px" preserveAspectRatio="none" style="width:1401px;height:1970px;background:#FFFFFF;" version="1.1" viewBox="0 0 1401 1970" width="1401px" zoomAndPan="magnify"><defs/><g><rect fill="#FFFFFF" height="1775.6465" style="stroke:#181818;stroke-width:1.0;" width="10" x="17.7793" y="93.6211"/><rect fill="#FFFFFF" height="423.3945" style="stroke:#181818;stroke-width:1.0;" width="10" x="225.5981" y="116.9121"/><rect fill="#FFFFFF" height="620.1895" style="stroke:#181818;stroke-width:1.0;" width="10" x="225.5981" y="571.5977"/><rect fill="#FFFFFF" height="655.1895" style="stroke:#181818;stroke-width:1.0;" width="10" x="225.5981" y="1223.0781"/><rect fill="#FFFFFF" height="281.2793" style="stroke:#181818;stroke-width:1.0;" width="10" x="390.8198" y="210.4453"/><rect fill="#FFFFFF" height="557.6074" style="stroke:#181818;stroke-width:1.0;" width="10" x="390.8198" y="602.8887"/><rect fill="#FFFFFF" height="230.0371" style="stroke:#181818;stroke-width:1.0;" width="10" x="395.8198" y="642.1797"/><rect fill="#FFFFFF" height="583.6074" style="stroke:#181818;stroke-width:1.0;" width="10" x="390.8198" y="1254.3691"/><rect fill="#FFFFFF" height="42.291" style="stroke:#181818;stroke-width:1.0;" width="10" x="395.8198" y="1293.6602"/><rect fill="#FFFFFF" height="230.0371" style="stroke:#181818;stroke-width:1.0;" width="10" x="395.8198" y="1382.2422"/><rect fill="#FFFFFF" height="156.4551" style="stroke:#181818;stroke-width:1.0;" width="10" x="670.9004" y="303.9785"/><rect fill="#FFFFFF" height="156.4551" style="stroke:#181818;stroke-width:1.0;" width="10" x="670.9004" y="678.4707"/><rect fill="#FFFFFF" height="156.1152" style="stroke:#181818;stroke-width:1.0;" width="10" x="670.9004" y="1650.5703"/><rect fill="#FFFFFF" height="31.291" style="stroke:#181818;stroke-width:1.0;" width="10" x="816.2964" y="335.2695"/><rect fill="#FFFFFF" height="31.291" style="stroke:#181818;stroke-width:1.0;" width="10" x="816.2964" y="709.7617"/><rect fill="#FFFFFF" height="31.291" style="stroke:#181818;stroke-width:1.0;" width="10" x="816.2964" y="1004.041"/><rect fill="#FFFFFF" height="31.291" style="stroke:#181818;stroke-width:1.0;" width="10" x="816.2964" y="1449.8242"/><rect fill="#FFFFFF" height="31.291" style="stroke:#181818;stroke-width:1.0;" width="10" x="942.6201" y="397.8516"/><rect fill="#FFFFFF" height="31.291" style="stroke:#181818;stroke-width:1.0;" width="10" x="942.6201" y="772.3438"/><rect fill="#FFFFFF" height="31.291" style="stroke:#181818;stroke-width:1.0;" width="10" x="942.6201" y="1744.1035"/><rect fill="#FFFFFF" height="156.4551" style="stroke:#181818;stroke-width:1.0;" width="10" x="1077.1162" y="972.75"/><rect fill="#FFFFFF" height="156.4551" style="stroke:#181818;stroke-width:1.0;" width="10" x="1077.1162" y="1418.5332"/><rect fill="#FFFFFF" height="31.291" style="stroke:#181818;stroke-width:1.0;" width="10" x="1263.3042" y="1066.623"/><rect fill="#FFFFFF" height="31.291" style="stroke:#181818;stroke-width:1.0;" width="10" x="1263.3042" y="1512.4063"/><line style="stroke:#181818;stroke-width:0.5;stroke-dasharray:5.0,5.0;" x1="22" x2="22" y1="83.6211" y2="1887.2676"/><line style="stroke:#181818;stroke-width:0.5;stroke-dasharray:5.0,5.0;" x1="229.8535" x2="229.8535" y1="83.6211" y2="1887.2676"/><line style="stroke:#181818;stroke-width:0.5;stroke-dasharray:5.0,5.0;" x1="395.0098" x2="395.0098" y1="166.0332" y2="1887.2676"/><line style="stroke:#181818;stroke-width:0.5;stroke-dasharray:5.0,5.0;" x1="675.3179" x2="675.3179" y1="259.5664" y2="1887.2676"/><line style="stroke:#181818;stroke-width:0.5;stroke-dasharray:5.0,5.0;" x1="820.4829" x2="820.4829" y1="83.6211" y2="1887.2676"/><line style="stroke:#181818;stroke-width:0.5;stroke-dasharray:5.0,5.0;" x1="947.1099" x2="947.1099" y1="83.6211" y2="1887.2676"/><line style="stroke:#181818;stroke-width:0.5;stroke-dasharray:5.0,5.0;" x1="1081.1304" x2="1081.1304" y1="928.3379" y2="1887.2676"/><line style="stroke:#181818;stroke-width:0.5;stroke-dasharray:5.0,5.0;" x1="1267.3906" x2="1267.3906" y1="83.6211" y2="1887.2676"/><line style="stroke:#181818;stroke-width:0.5;stroke-dasharray:5.0,5.0;" x1="1370.2178" x2="1370.2178" y1="1699.6914" y2="1887.2676"/><text fill="#000000" font-family="sans-serif" font-size="14" lengthAdjust="spacing" textLength="29.5586" x="5" y="80.1074">User</text><ellipse cx="22.7793" cy="13.5" fill="#E3E3E3" rx="8" ry="8" style="stroke:#181818;stroke-width:0.5;"/><path d="M22.7793,21.5 L22.7793,48.5 M9.7793,29.5 L35.7793,29.5 M22.7793,48.5 L9.7793,63.5 M22.7793,48.5 L35.7793,63.5 " fill="none" style="stroke:#181818;stroke-width:0.5;"/><text fill="#000000" font-family="sans-serif" font-size="14" lengthAdjust="spacing" textLength="29.5586" x="5" y="1901.375">User</text><ellipse cx="22.7793" cy="1913.3887" fill="#E3E3E3" rx="8" ry="8" style="stroke:#181818;stroke-width:0.5;"/><path d="M22.7793,1921.3887 L22.7793,1948.3887 M9.7793,1929.3887 L35.7793,1929.3887 M22.7793,1948.3887 L9.7793,1963.3887 M22.7793,1948.3887 L35.7793,1963.3887 " fill="none" style="stroke:#181818;stroke-width:0.5;"/><rect fill="#E3E3E3" height="51.2422" rx="2.5" ry="2.5" style="stroke:#181818;stroke-width:0.5;" width="103.4893" x="178.8535" y="31.3789"/><text fill="#000000" font-family="sans-serif" font-size="14" lengthAdjust="spacing" textLength="89.4893" x="185.8535" y="53.4863">editHabitView:</text><text fill="#000000" font-family="sans-serif" font-size="14" lengthAdjust="spacing" textLength="87.1514" x="187.0225" y="72.1074">EditHabitView</text><rect fill="#E3E3E3" height="51.2422" rx="2.5" ry="2.5" style="stroke:#181818;stroke-width:0.5;" width="103.4893" x="178.8535" y="1886.2676"/><text fill="#000000" font-family="sans-serif" font-size="14" lengthAdjust="spacing" textLength="89.4893" x="185.8535" y="1908.375">editHabitView:</text><text fill="#000000" font-family="sans-serif" font-size="14" lengthAdjust="spacing" textLength="87.1514" x="187.0225" y="1926.9961">EditHabitView</text><rect fill="#E3E3E3" height="51.2422" rx="2.5" ry="2.5" style="stroke:#181818;stroke-width:0.5;" width="141.6201" x="325.0098" y="1886.2676"/><text fill="#000000" font-family="sans-serif" font-size="14" lengthAdjust="spacing" textLength="127.6201" x="332.0098" y="1908.375">editHabitViewModel:</text><text fill="#000000" font-family="sans-serif" font-size="14" lengthAdjust="spacing" textLength="125.2822" x="333.1787" y="1926.9961">EditHabitViewModel</text><rect fill="#E3E3E3" height="51.2422" rx="2.5" ry="2.5" style="stroke:#181818;stroke-width:0.5;" width="115.165" x="618.3179" y="1886.2676"/><text fill="#000000" font-family="sans-serif" font-size="14" lengthAdjust="spacing" textLength="101.165" x="625.3179" y="1908.375">habitRepository:</text><text fill="#000000" font-family="sans-serif" font-size="14" lengthAdjust="spacing" textLength="99.5996" x="626.1006" y="1926.9961">HabitRepository</text><rect fill="#E3E3E3" height="51.2422" rx="2.5" ry="2.5" style="stroke:#181818;stroke-width:0.5;" width="155.627" x="743.4829" y="31.3789"/><text fill="#000000" font-family="sans-serif" font-size="14" lengthAdjust="spacing" textLength="141.627" x="750.4829" y="53.4863">habitTrackerDatabase:</text><text fill="#000000" font-family="sans-serif" font-size="14" lengthAdjust="spacing" textLength="140.0615" x="751.2656" y="72.1074">HabitTrackerDatabase</text><rect fill="#E3E3E3" height="51.2422" rx="2.5" ry="2.5" style="stroke:#181818;stroke-width:0.5;" width="155.627" x="743.4829" y="1886.2676"/><text fill="#000000" font-family="sans-serif" font-size="14" lengthAdjust="spacing" textLength="141.627" x="750.4829" y="1908.375">habitTrackerDatabase:</text><text fill="#000000" font-family="sans-serif" font-size="14" lengthAdjust="spacing" textLength="140.0615" x="751.2656" y="1926.9961">HabitTrackerDatabase</text><rect fill="#E3E3E3" height="32.6211" rx="2.5" ry="2.5" style="stroke:#181818;stroke-width:0.5;" width="77.0205" x="909.1099" y="50"/><text fill="#000000" font-family="sans-serif" font-size="14" lengthAdjust="spacing" textLength="63.0205" x="916.1099" y="72.1074">HabitDAO</text><rect fill="#E3E3E3" height="32.6211" rx="2.5" ry="2.5" style="stroke:#181818;stroke-width:0.5;" width="77.0205" x="909.1099" y="1886.2676"/><text fill="#000000" font-family="sans-serif" font-size="14" lengthAdjust="spacing" textLength="63.0205" x="916.1099" y="1908.375">HabitDAO</text><rect fill="#E3E3E3" height="51.2422" rx="2.5" ry="2.5" style="stroke:#181818;stroke-width:0.5;" width="171.9717" x="996.1304" y="1886.2676"/><text fill="#000000" font-family="sans-serif" font-size="14" lengthAdjust="spacing" textLength="157.9717" x="1003.1304" y="1908.375">habitCategoryRepository:</text><text fill="#000000" font-family="sans-serif" font-size="14" lengthAdjust="spacing" textLength="156.4063" x="1003.9131" y="1926.9961">HabitCategoryRepository</text><rect fill="#E3E3E3" height="32.6211" rx="2.5" ry="2.5" style="stroke:#181818;stroke-width:0.5;" width="133.8271" x="1201.3906" y="50"/><text fill="#000000" font-family="sans-serif" font-size="14" lengthAdjust="spacing" textLength="119.8271" x="1208.3906" y="72.1074">HabitCategoryDAO</text><rect fill="#E3E3E3" height="32.6211" rx="2.5" ry="2.5" style="stroke:#181818;stroke-width:0.5;" width="133.8271" x="1201.3906" y="1886.2676"/><text fill="#000000" font-family="sans-serif" font-size="14" lengthAdjust="spacing" textLength="119.8271" x="1208.3906" y="1908.375">HabitCategoryDAO</text><rect fill="#E3E3E3" height="51.2422" rx="2.5" ry="2.5" style="stroke:#181818;stroke-width:0.5;" width="50.5723" x="1345.2178" y="1886.2676"/><text fill="#000000" font-family="sans-serif" font-size="14" lengthAdjust="spacing" textLength="30.3584" x="1355.3247" y="1908.375">habit</text><text fill="#000000" font-family="sans-serif" font-size="14" lengthAdjust="spacing" textLength="36.5723" x="1352.2178" y="1926.9961">:Habit</text><rect fill="#FFFFFF" height="1775.6465" style="stroke:#181818;stroke-width:1.0;" width="10" x="17.7793" y="93.6211"/><rect fill="#FFFFFF" height="423.3945" style="stroke:#181818;stroke-width:1.0;" width="10" x="225.5981" y="116.9121"/><rect fill="#FFFFFF" height="620.1895" style="stroke:#181818;stroke-width:1.0;" width="10" x="225.5981" y="571.5977"/><rect fill="#FFFFFF" height="655.1895" style="stroke:#181818;stroke-width:1.0;" width="10" x="225.5981" y="1223.0781"/><rect fill="#FFFFFF" height="281.2793" style="stroke:#181818;stroke-width:1.0;" width="10" x="390.8198" y="210.4453"/><rect fill="#FFFFFF" height="557.6074" style="stroke:#181818;stroke-width:1.0;" width="10" x="390.8198" y="602.8887"/><rect fill="#FFFFFF" height="230.0371" style="stroke:#181818;stroke-width:1.0;" width="10" x="395.8198" y="642.1797"/><rect fill="#FFFFFF" height="583.6074" style="stroke:#181818;stroke-width:1.0;" width="10" x="390.8198" y="1254.3691"/><rect fill="#FFFFFF" height="42.291" style="stroke:#181818;stroke-width:1.0;" width="10" x="395.8198" y="1293.6602"/><rect fill="#FFFFFF" height="230.0371" style="stroke:#181818;stroke-width:1.0;" width="10" x="395.8198" y="1382.2422"/><rect fill="#FFFFFF" height="156.4551" style="stroke:#181818;stroke-width:1.0;" width="10" x="670.9004" y="303.9785"/><rect fill="#FFFFFF" height="156.4551" style="stroke:#181818;stroke-width:1.0;" width="10" x="670.9004" y="678.4707"/><rect fill="#FFFFFF" height="156.1152" style="stroke:#181818;stroke-width:1.0;" width="10" x="670.9004" y="1650.5703"/><rect fill="#FFFFFF" height="31.291" style="stroke:#181818;stroke-width:1.0;" width="10" x="816.2964" y="335.2695"/><rect fill="#FFFFFF" height="31.291" style="stroke:#181818;stroke-width:1.0;" width="10" x="816.2964" y="709.7617"/><rect fill="#FFFFFF" height="31.291" style="stroke:#181818;stroke-width:1.0;" width="10" x="816.2964" y="1004.041"/><rect fill="#FFFFFF" height="31.291" style="stroke:#181818;stroke-width:1.0;" width="10" x="816.2964" y="1449.8242"/><rect fill="#FFFFFF" height="31.291" style="stroke:#181818;stroke-width:1.0;" width="10" x="942.6201" y="397.8516"/><rect fill="#FFFFFF" height="31.291" style="stroke:#181818;stroke-width:1.0;" width="10" x="942.6201" y="772.3438"/><rect fill="#FFFFFF" height="31.291" style="stroke:#181818;stroke-width:1.0;" width="10" x="942.6201" y="1744.1035"/><rect fill="#FFFFFF" height="156.4551" style="stroke:#181818;stroke-width:1.0;" width="10" x="1077.1162" y="972.75"/><rect fill="#FFFFFF" height="156.4551" style="stroke:#181818;stroke-width:1.0;" width="10" x="1077.1162" y="1418.5332"/><rect fill="#FFFFFF" height="31.291" style="stroke:#181818;stroke-width:1.0;" width="10" x="1263.3042" y="1066.623"/><rect fill="#FFFFFF" height="31.291" style="stroke:#181818;stroke-width:1.0;" width="10" x="1263.3042" y="1512.4063"/><polygon fill="#181818" points="213.5981,112.9121,223.5981,116.9121,213.5981,120.9121,217.5981,116.9121" style="stroke:#181818;stroke-width:1.0;"/><line style="stroke:#181818;stroke-width:1.0;" x1="27.7793" x2="219.5981" y1="116.9121" y2="116.9121"/><text fill="#000000" font-family="sans-serif" font-size="13" font-weight="bold" lengthAdjust="spacing" textLength="7.23" x="34.7793" y="111.6494">1</text><text fill="#000000" font-family="sans-serif" font-size="13" lengthAdjust="spacing" textLength="108.3989" x="46.0093" y="111.6494">asks to edit a habit</text><polygon fill="#181818" points="313.0098,144.2031,323.0098,148.2031,313.0098,152.2031,317.0098,148.2031" style="stroke:#181818;stroke-width:1.0;"/><line style="stroke:#181818;stroke-width:1.0;" x1="235.5981" x2="319.0098" y1="148.2031" y2="148.2031"/><text fill="#000000" font-family="sans-serif" font-size="13" font-weight="bold" lengthAdjust="spacing" textLength="7.23" x="242.5981" y="142.9404">2</text><text fill="#000000" font-family="sans-serif" font-size="13" lengthAdjust="spacing" textLength="36.1309" x="253.8281" y="142.9404">create</text><rect fill="#E3E3E3" height="51.2422" rx="2.5" ry="2.5" style="stroke:#181818;stroke-width:0.5;" width="141.6201" x="325.0098" y="124.9121"/><text fill="#000000" font-family="sans-serif" font-size="14" lengthAdjust="spacing" textLength="127.6201" x="332.0098" y="147.0195">editHabitViewModel:</text><text fill="#000000" font-family="sans-serif" font-size="14" lengthAdjust="spacing" textLength="125.2822" x="333.1787" y="165.6406">EditHabitViewModel</text><polygon fill="#181818" points="378.8198,206.4453,388.8198,210.4453,378.8198,214.4453,382.8198,210.4453" style="stroke:#181818;stroke-width:1.0;"/><line style="stroke:#181818;stroke-width:1.0;" x1="235.5981" x2="384.8198" y1="210.4453" y2="210.4453"/><text fill="#000000" font-family="sans-serif" font-size="13" font-weight="bold" lengthAdjust="spacing" textLength="7.23" x="242.5981" y="205.1826">3</text><text fill="#000000" font-family="sans-serif" font-size="13" lengthAdjust="spacing" textLength="61.3945" x="253.8281" y="205.1826">listHabits()</text><polygon fill="#181818" points="606.3179,237.7363,616.3179,241.7363,606.3179,245.7363,610.3179,241.7363" style="stroke:#181818;stroke-width:1.0;"/><line style="stroke:#181818;stroke-width:1.0;" x1="400.8198" x2="612.3179" y1="241.7363" y2="241.7363"/><text fill="#000000" font-family="sans-serif" font-size="13" font-weight="bold" lengthAdjust="spacing" textLength="7.23" x="407.8198" y="236.4736">4</text><text fill="#000000" font-family="sans-serif" font-size="13" lengthAdjust="spacing" textLength="36.1309" x="419.0498" y="236.4736">create</text><rect fill="#E3E3E3" height="51.2422" rx="2.5" ry="2.5" style="stroke:#181818;stroke-width:0.5;" width="115.165" x="618.3179" y="218.4453"/><text fill="#000000" font-family="sans-serif" font-size="14" lengthAdjust="spacing" textLength="101.165" x="625.3179" y="240.5527">habitRepository:</text><text fill="#000000" font-family="sans-serif" font-size="14" lengthAdjust="spacing" textLength="99.5996" x="626.1006" y="259.1738">HabitRepository</text><polygon fill="#181818" points="658.9004,299.9785,668.9004,303.9785,658.9004,307.9785,662.9004,303.9785" style="stroke:#181818;stroke-width:1.0;"/><line style="stroke:#181818;stroke-width:1.0;" x1="400.8198" x2="664.9004" y1="303.9785" y2="303.9785"/><text fill="#000000" font-family="sans-serif" font-size="13" font-weight="bold" lengthAdjust="spacing" textLength="7.23" x="407.8198" y="298.7158">5</text><text fill="#000000" font-family="sans-serif" font-size="13" lengthAdjust="spacing" textLength="61.3945" x="419.0498" y="298.7158">listHabits()</text><polygon fill="#181818" points="804.2964,331.2695,814.2964,335.2695,804.2964,339.2695,808.2964,335.2695" style="stroke:#181818;stroke-width:1.0;"/><line style="stroke:#181818;stroke-width:1.0;" x1="680.9004" x2="810.2964" y1="335.2695" y2="335.2695"/><text fill="#000000" font-family="sans-serif" font-size="13" font-weight="bold" lengthAdjust="spacing" textLength="7.23" x="687.9004" y="330.0068">6</text><text fill="#000000" font-family="sans-serif" font-size="13" lengthAdjust="spacing" textLength="65.019" x="699.1304" y="330.0068">habitDAO()</text><polygon fill="#181818" points="691.9004,362.5605,681.9004,366.5605,691.9004,370.5605,687.9004,366.5605" style="stroke:#181818;stroke-width:1.0;"/><line style="stroke:#181818;stroke-width:1.0;stroke-dasharray:2.0,2.0;" x1="685.9004" x2="820.2964" y1="366.5605" y2="366.5605"/><text fill="#000000" font-family="sans-serif" font-size="13" font-weight="bold" lengthAdjust="spacing" textLength="7.23" x="697.9004" y="361.2979">7</text><text fill="#000000" font-family="sans-serif" font-size="13" lengthAdjust="spacing" textLength="56.3608" x="709.1304" y="361.2979">habitDAO</text><polygon fill="#181818" points="930.6201,393.8516,940.6201,397.8516,930.6201,401.8516,934.6201,397.8516" style="stroke:#181818;stroke-width:1.0;"/><line style="stroke:#181818;stroke-width:1.0;" x1="680.9004" x2="936.6201" y1="397.8516" y2="397.8516"/><text fill="#000000" font-family="sans-serif" font-size="13" font-weight="bold" lengthAdjust="spacing" textLength="7.23" x="687.9004" y="392.5889">8</text><text fill="#000000" font-family="sans-serif" font-size="13" lengthAdjust="spacing" textLength="61.3945" x="699.1304" y="392.5889">listHabits()</text><polygon fill="#181818" points="691.9004,425.1426,681.9004,429.1426,691.9004,433.1426,687.9004,429.1426" style="stroke:#181818;stroke-width:1.0;"/><line style="stroke:#181818;stroke-width:1.0;stroke-dasharray:2.0,2.0;" x1="685.9004" x2="946.6201" y1="429.1426" y2="429.1426"/><text fill="#000000" font-family="sans-serif" font-size="13" font-weight="bold" lengthAdjust="spacing" textLength="7.23" x="697.9004" y="423.8799">9</text><text fill="#000000" font-family="sans-serif" font-size="13" lengthAdjust="spacing" textLength="48.4199" x="709.1304" y="423.8799">habitList</text><polygon fill="#181818" points="411.8198,456.4336,401.8198,460.4336,411.8198,464.4336,407.8198,460.4336" style="stroke:#181818;stroke-width:1.0;"/><line style="stroke:#181818;stroke-width:1.0;stroke-dasharray:2.0,2.0;" x1="405.8198" x2="674.9004" y1="460.4336" y2="460.4336"/><text fill="#000000" font-family="sans-serif" font-size="13" font-weight="bold" lengthAdjust="spacing" textLength="14.46" x="417.8198" y="455.1709">10</text><text fill="#000000" font-family="sans-serif" font-size="13" lengthAdjust="spacing" textLength="48.4199" x="436.2798" y="455.1709">habitList</text><polygon fill="#181818" points="246.5981,487.7246,236.5981,491.7246,246.5981,495.7246,242.5981,491.7246" style="stroke:#181818;stroke-width:1.0;"/><line style="stroke:#181818;stroke-width:1.0;stroke-dasharray:2.0,2.0;" x1="240.5981" x2="394.8198" y1="491.7246" y2="491.7246"/><text fill="#000000" font-family="sans-serif" font-size="13" font-weight="bold" lengthAdjust="spacing" textLength="14.46" x="252.5981" y="486.4619">11</text><text fill="#000000" font-family="sans-serif" font-size="13" lengthAdjust="spacing" textLength="48.4199" x="271.0581" y="486.4619">habitList</text><polygon fill="#181818" points="38.7793,536.3066,28.7793,540.3066,38.7793,544.3066,34.7793,540.3066" style="stroke:#181818;stroke-width:1.0;"/><line style="stroke:#181818;stroke-width:1.0;stroke-dasharray:2.0,2.0;" x1="32.7793" x2="229.5981" y1="540.3066" y2="540.3066"/><text fill="#000000" font-family="sans-serif" font-size="13" font-weight="bold" lengthAdjust="spacing" textLength="14.46" x="44.7793" y="526.3984">12</text><text fill="#000000" font-family="sans-serif" font-size="13" lengthAdjust="spacing" textLength="98.2681" x="63.2393" y="517.7529">display habits list</text><text fill="#000000" font-family="sans-serif" font-size="13" lengthAdjust="spacing" textLength="129.3589" x="66.8511" y="535.0439">and asks to select one</text><polygon fill="#181818" points="213.5981,567.5977,223.5981,571.5977,213.5981,575.5977,217.5981,571.5977" style="stroke:#181818;stroke-width:1.0;"/><line style="stroke:#181818;stroke-width:1.0;" x1="27.7793" x2="219.5981" y1="571.5977" y2="571.5977"/><text fill="#000000" font-family="sans-serif" font-size="13" font-weight="bold" lengthAdjust="spacing" textLength="14.46" x="34.7793" y="566.335">13</text><text fill="#000000" font-family="sans-serif" font-size="13" lengthAdjust="spacing" textLength="83.1035" x="53.2393" y="566.335">selects a habit</text><polygon fill="#181818" points="378.8198,598.8887,388.8198,602.8887,378.8198,606.8887,382.8198,602.8887" style="stroke:#181818;stroke-width:1.0;"/><line style="stroke:#181818;stroke-width:1.0;" x1="235.5981" x2="384.8198" y1="602.8887" y2="602.8887"/><text fill="#000000" font-family="sans-serif" font-size="13" font-weight="bold" lengthAdjust="spacing" textLength="14.46" x="242.5981" y="597.626">14</text><text fill="#000000" font-family="sans-serif" font-size="13" lengthAdjust="spacing" textLength="117.7617" x="261.0581" y="597.626">listHabitCategories()</text><line style="stroke:#181818;stroke-width:1.0;" x1="400.8198" x2="447.8198" y1="629.1797" y2="629.1797"/><line style="stroke:#181818;stroke-width:1.0;" x1="447.8198" x2="447.8198" y1="629.1797" y2="642.1797"/><line style="stroke:#181818;stroke-width:1.0;" x1="406.8198" x2="447.8198" y1="642.1797" y2="642.1797"/><polygon fill="#181818" points="416.8198,638.1797,406.8198,642.1797,416.8198,646.1797,412.8198,642.1797" style="stroke:#181818;stroke-width:1.0;"/><text fill="#000000" font-family="sans-serif" font-size="13" font-weight="bold" lengthAdjust="spacing" textLength="14.46" x="412.8198" y="623.917">15</text><text fill="#000000" font-family="sans-serif" font-size="13" lengthAdjust="spacing" textLength="122.1226" x="431.2798" y="623.917">getHabitById(habitId)</text><polygon fill="#181818" points="658.9004,674.4707,668.9004,678.4707,658.9004,682.4707,662.9004,678.4707" style="stroke:#181818;stroke-width:1.0;"/><line style="stroke:#181818;stroke-width:1.0;" x1="405.8198" x2="664.9004" y1="678.4707" y2="678.4707"/><text fill="#000000" font-family="sans-serif" font-size="13" font-weight="bold" lengthAdjust="spacing" textLength="14.46" x="412.8198" y="673.208">16</text><text fill="#000000" font-family="sans-serif" font-size="13" lengthAdjust="spacing" textLength="85.979" x="431.2798" y="673.208">findHabitById()</text><polygon fill="#181818" points="804.2964,705.7617,814.2964,709.7617,804.2964,713.7617,808.2964,709.7617" style="stroke:#181818;stroke-width:1.0;"/><line style="stroke:#181818;stroke-width:1.0;" x1="680.9004" x2="810.2964" y1="709.7617" y2="709.7617"/><text fill="#000000" font-family="sans-serif" font-size="13" font-weight="bold" lengthAdjust="spacing" textLength="14.46" x="687.9004" y="704.499">17</text><text fill="#000000" font-family="sans-serif" font-size="13" lengthAdjust="spacing" textLength="65.019" x="706.3604" y="704.499">habitDAO()</text><polygon fill="#181818" points="691.9004,737.0527,681.9004,741.0527,691.9004,745.0527,687.9004,741.0527" style="stroke:#181818;stroke-width:1.0;"/><line style="stroke:#181818;stroke-width:1.0;stroke-dasharray:2.0,2.0;" x1="685.9004" x2="820.2964" y1="741.0527" y2="741.0527"/><text fill="#000000" font-family="sans-serif" font-size="13" font-weight="bold" lengthAdjust="spacing" textLength="14.46" x="697.9004" y="735.79">18</text><text fill="#000000" font-family="sans-serif" font-size="13" lengthAdjust="spacing" textLength="58.519" x="716.3604" y="735.79">HabitDAO</text><polygon fill="#181818" points="930.6201,768.3438,940.6201,772.3438,930.6201,776.3438,934.6201,772.3438" style="stroke:#181818;stroke-width:1.0;"/><line style="stroke:#181818;stroke-width:1.0;" x1="680.9004" x2="936.6201" y1="772.3438" y2="772.3438"/><text fill="#000000" font-family="sans-serif" font-size="13" font-weight="bold" lengthAdjust="spacing" textLength="14.46" x="687.9004" y="767.0811">19</text><text fill="#000000" font-family="sans-serif" font-size="13" lengthAdjust="spacing" textLength="85.979" x="706.3604" y="767.0811">findHabitById()</text><polygon fill="#181818" points="691.9004,799.6348,681.9004,803.6348,691.9004,807.6348,687.9004,803.6348" style="stroke:#181818;stroke-width:1.0;"/><line style="stroke:#181818;stroke-width:1.0;stroke-dasharray:2.0,2.0;" x1="685.9004" x2="946.6201" y1="803.6348" y2="803.6348"/><text fill="#000000" font-family="sans-serif" font-size="13" font-weight="bold" lengthAdjust="spacing" textLength="14.46" x="697.9004" y="798.3721">20</text><text fill="#000000" font-family="sans-serif" font-size="13" lengthAdjust="spacing" textLength="28.1899" x="716.3604" y="798.3721">habit</text><polygon fill="#181818" points="416.8198,830.9258,406.8198,834.9258,416.8198,838.9258,412.8198,834.9258" style="stroke:#181818;stroke-width:1.0;"/><line style="stroke:#181818;stroke-width:1.0;stroke-dasharray:2.0,2.0;" x1="410.8198" x2="674.9004" y1="834.9258" y2="834.9258"/><text fill="#000000" font-family="sans-serif" font-size="13" font-weight="bold" lengthAdjust="spacing" textLength="14.46" x="422.8198" y="829.6631">21</text><text fill="#000000" font-family="sans-serif" font-size="13" lengthAdjust="spacing" textLength="28.1899" x="441.2798" y="829.6631">habit</text><line style="stroke:#181818;stroke-width:1.0;stroke-dasharray:2.0,2.0;" x1="405.8198" x2="447.8198" y1="871.2168" y2="871.2168"/><line style="stroke:#181818;stroke-width:1.0;stroke-dasharray:2.0,2.0;" x1="447.8198" x2="447.8198" y1="871.2168" y2="884.2168"/><line style="stroke:#181818;stroke-width:1.0;stroke-dasharray:2.0,2.0;" x1="400.8198" x2="447.8198" y1="884.2168" y2="884.2168"/><polygon fill="#181818" points="410.8198,880.2168,400.8198,884.2168,410.8198,888.2168,406.8198,884.2168" style="stroke:#181818;stroke-width:1.0;"/><text fill="#000000" font-family="sans-serif" font-size="13" font-weight="bold" lengthAdjust="spacing" textLength="14.46" x="412.8198" y="865.9541">22</text><text fill="#000000" font-family="sans-serif" font-size="13" lengthAdjust="spacing" textLength="28.1899" x="431.2798" y="865.9541">habit</text><polygon fill="#181818" points="984.1304,906.5078,994.1304,910.5078,984.1304,914.5078,988.1304,910.5078" style="stroke:#181818;stroke-width:1.0;"/><line style="stroke:#181818;stroke-width:1.0;" x1="400.8198" x2="990.1304" y1="910.5078" y2="910.5078"/><text fill="#000000" font-family="sans-serif" font-size="13" font-weight="bold" lengthAdjust="spacing" textLength="14.46" x="407.8198" y="905.2451">23</text><text fill="#000000" font-family="sans-serif" font-size="13" lengthAdjust="spacing" textLength="36.1309" x="426.2798" y="905.2451">create</text><rect fill="#E3E3E3" height="51.2422" rx="2.5" ry="2.5" style="stroke:#181818;stroke-width:0.5;" width="171.9717" x="996.1304" y="887.2168"/><text fill="#000000" font-family="sans-serif" font-size="14" lengthAdjust="spacing" textLength="157.9717" x="1003.1304" y="909.3242">habitCategoryRepository:</text><text fill="#000000" font-family="sans-serif" font-size="14" lengthAdjust="spacing" textLength="156.4063" x="1003.9131" y="927.9453">HabitCategoryRepository</text><polygon fill="#181818" points="1065.1162,968.75,1075.1162,972.75,1065.1162,976.75,1069.1162,972.75" style="stroke:#181818;stroke-width:1.0;"/><line style="stroke:#181818;stroke-width:1.0;" x1="400.8198" x2="1071.1162" y1="972.75" y2="972.75"/><text fill="#000000" font-family="sans-serif" font-size="13" font-weight="bold" lengthAdjust="spacing" textLength="14.46" x="407.8198" y="967.4873">24</text><text fill="#000000" font-family="sans-serif" font-size="13" lengthAdjust="spacing" textLength="117.7617" x="426.2798" y="967.4873">listHabitCategories()</text><polygon fill="#181818" points="837.2964,1000.041,827.2964,1004.041,837.2964,1008.041,833.2964,1004.041" style="stroke:#181818;stroke-width:1.0;"/><line style="stroke:#181818;stroke-width:1.0;" x1="831.2964" x2="1076.1162" y1="1004.041" y2="1004.041"/><text fill="#000000" font-family="sans-serif" font-size="13" font-weight="bold" lengthAdjust="spacing" textLength="14.46" x="843.2964" y="998.7783">25</text><text fill="#000000" font-family="sans-serif" font-size="13" lengthAdjust="spacing" textLength="117.7681" x="861.7563" y="998.7783">habitCategoryDAO()</text><polygon fill="#181818" points="1065.1162,1031.332,1075.1162,1035.332,1065.1162,1039.332,1069.1162,1035.332" style="stroke:#181818;stroke-width:1.0;"/><line style="stroke:#181818;stroke-width:1.0;stroke-dasharray:2.0,2.0;" x1="821.2964" x2="1071.1162" y1="1035.332" y2="1035.332"/><text fill="#000000" font-family="sans-serif" font-size="13" font-weight="bold" lengthAdjust="spacing" textLength="14.46" x="828.2964" y="1030.0693">26</text><text fill="#000000" font-family="sans-serif" font-size="13" lengthAdjust="spacing" textLength="109.1099" x="846.7563" y="1030.0693">habitCategoryDAO</text><polygon fill="#181818" points="1251.3042,1062.623,1261.3042,1066.623,1251.3042,1070.623,1255.3042,1066.623" style="stroke:#181818;stroke-width:1.0;"/><line style="stroke:#181818;stroke-width:1.0;" x1="1087.1162" x2="1257.3042" y1="1066.623" y2="1066.623"/><text fill="#000000" font-family="sans-serif" font-size="13" font-weight="bold" lengthAdjust="spacing" textLength="14.46" x="1094.1162" y="1061.3604">27</text><text fill="#000000" font-family="sans-serif" font-size="13" lengthAdjust="spacing" textLength="117.7617" x="1112.5762" y="1061.3604">listHabitCategories()</text><polygon fill="#181818" points="1098.1162,1093.9141,1088.1162,1097.9141,1098.1162,1101.9141,1094.1162,1097.9141" style="stroke:#181818;stroke-width:1.0;"/><line style="stroke:#181818;stroke-width:1.0;stroke-dasharray:2.0,2.0;" x1="1092.1162" x2="1267.3042" y1="1097.9141" y2="1097.9141"/><text fill="#000000" font-family="sans-serif" font-size="13" font-weight="bold" lengthAdjust="spacing" textLength="14.46" x="1104.1162" y="1092.6514">28</text><text fill="#000000" font-family="sans-serif" font-size="13" lengthAdjust="spacing" textLength="101.1689" x="1122.5762" y="1092.6514">habitCategoryList</text><polygon fill="#181818" points="411.8198,1125.2051,401.8198,1129.2051,411.8198,1133.2051,407.8198,1129.2051" style="stroke:#181818;stroke-width:1.0;"/><line style="stroke:#181818;stroke-width:1.0;stroke-dasharray:2.0,2.0;" x1="405.8198" x2="1081.1162" y1="1129.2051" y2="1129.2051"/><text fill="#000000" font-family="sans-serif" font-size="13" font-weight="bold" lengthAdjust="spacing" textLength="14.46" x="417.8198" y="1123.9424">29</text><text fill="#000000" font-family="sans-serif" font-size="13" lengthAdjust="spacing" textLength="101.1689" x="436.2798" y="1123.9424">habitCategoryList</text><polygon fill="#181818" points="246.5981,1156.4961,236.5981,1160.4961,246.5981,1164.4961,242.5981,1160.4961" style="stroke:#181818;stroke-width:1.0;"/><line style="stroke:#181818;stroke-width:1.0;stroke-dasharray:2.0,2.0;" x1="240.5981" x2="394.8198" y1="1160.4961" y2="1160.4961"/><text fill="#000000" font-family="sans-serif" font-size="13" font-weight="bold" lengthAdjust="spacing" textLength="14.46" x="252.5981" y="1155.2334">30</text><text fill="#000000" font-family="sans-serif" font-size="13" lengthAdjust="spacing" textLength="101.1689" x="271.0581" y="1155.2334">habitCategoryList</text><polygon fill="#181818" points="38.7793,1187.7871,28.7793,1191.7871,38.7793,1195.7871,34.7793,1191.7871" style="stroke:#181818;stroke-width:1.0;"/><line style="stroke:#181818;stroke-width:1.0;stroke-dasharray:2.0,2.0;" x1="32.7793" x2="229.5981" y1="1191.7871" y2="1191.7871"/><text fill="#000000" font-family="sans-serif" font-size="13" font-weight="bold" lengthAdjust="spacing" textLength="14.46" x="44.7793" y="1186.5244">31</text><text fill="#000000" font-family="sans-serif" font-size="13" lengthAdjust="spacing" textLength="106.2344" x="63.2393" y="1186.5244">requests new data</text><polygon fill="#181818" points="213.5981,1219.0781,223.5981,1223.0781,213.5981,1227.0781,217.5981,1223.0781" style="stroke:#181818;stroke-width:1.0;"/><line style="stroke:#181818;stroke-width:1.0;" x1="27.7793" x2="219.5981" y1="1223.0781" y2="1223.0781"/><text fill="#000000" font-family="sans-serif" font-size="13" font-weight="bold" lengthAdjust="spacing" textLength="14.46" x="34.7793" y="1217.8154">32</text><text fill="#000000" font-family="sans-serif" font-size="13" lengthAdjust="spacing" textLength="121.418" x="53.2393" y="1217.8154">types requested data</text><polygon fill="#181818" points="378.8198,1250.3691,388.8198,1254.3691,378.8198,1258.3691,382.8198,1254.3691" style="stroke:#181818;stroke-width:1.0;"/><line style="stroke:#181818;stroke-width:1.0;" x1="235.5981" x2="384.8198" y1="1254.3691" y2="1254.3691"/><text fill="#000000" font-family="sans-serif" font-size="13" font-weight="bold" lengthAdjust="spacing" textLength="14.46" x="242.5981" y="1249.1064">33</text><text fill="#000000" font-family="sans-serif" font-size="13" lengthAdjust="spacing" textLength="59.9663" x="261.0581" y="1249.1064">editHabit()</text><line style="stroke:#181818;stroke-width:1.0;" x1="400.8198" x2="447.8198" y1="1280.6602" y2="1280.6602"/><line style="stroke:#181818;stroke-width:1.0;" x1="447.8198" x2="447.8198" y1="1280.6602" y2="1293.6602"/><line style="stroke:#181818;stroke-width:1.0;" x1="406.8198" x2="447.8198" y1="1293.6602" y2="1293.6602"/><polygon fill="#181818" points="416.8198,1289.6602,406.8198,1293.6602,416.8198,1297.6602,412.8198,1293.6602" style="stroke:#181818;stroke-width:1.0;"/><text fill="#000000" font-family="sans-serif" font-size="13" font-weight="bold" lengthAdjust="spacing" textLength="14.46" x="412.8198" y="1275.3975">34</text><text fill="#000000" font-family="sans-serif" font-size="13" lengthAdjust="spacing" textLength="80.9263" x="431.2798" y="1275.3975">validateData()</text><line style="stroke:#181818;stroke-width:1.0;stroke-dasharray:2.0,2.0;" x1="405.8198" x2="447.8198" y1="1334.9512" y2="1334.9512"/><line style="stroke:#181818;stroke-width:1.0;stroke-dasharray:2.0,2.0;" x1="447.8198" x2="447.8198" y1="1334.9512" y2="1347.9512"/><line style="stroke:#181818;stroke-width:1.0;stroke-dasharray:2.0,2.0;" x1="400.8198" x2="447.8198" y1="1347.9512" y2="1347.9512"/><polygon fill="#181818" points="410.8198,1343.9512,400.8198,1347.9512,410.8198,1351.9512,406.8198,1347.9512" style="stroke:#181818;stroke-width:1.0;"/><text fill="#000000" font-family="sans-serif" font-size="13" font-weight="bold" lengthAdjust="spacing" textLength="14.46" x="412.8198" y="1329.6885">35</text><text fill="#000000" font-family="sans-serif" font-size="13" lengthAdjust="spacing" textLength="3.6118" x="431.2798" y="1329.6885">&#160;</text><line style="stroke:#181818;stroke-width:1.0;" x1="400.8198" x2="447.8198" y1="1369.2422" y2="1369.2422"/><line style="stroke:#181818;stroke-width:1.0;" x1="447.8198" x2="447.8198" y1="1369.2422" y2="1382.2422"/><line style="stroke:#181818;stroke-width:1.0;" x1="406.8198" x2="447.8198" y1="1382.2422" y2="1382.2422"/><polygon fill="#181818" points="416.8198,1378.2422,406.8198,1382.2422,416.8198,1386.2422,412.8198,1382.2422" style="stroke:#181818;stroke-width:1.0;"/><text fill="#000000" font-family="sans-serif" font-size="13" font-weight="bold" lengthAdjust="spacing" textLength="14.46" x="412.8198" y="1363.9795">36</text><text fill="#000000" font-family="sans-serif" font-size="13" lengthAdjust="spacing" textLength="227.6206" x="431.2798" y="1363.9795">getHabitCategoryById(habitCategoryId)</text><polygon fill="#181818" points="1065.1162,1414.5332,1075.1162,1418.5332,1065.1162,1422.5332,1069.1162,1418.5332" style="stroke:#181818;stroke-width:1.0;"/><line style="stroke:#181818;stroke-width:1.0;" x1="405.8198" x2="1071.1162" y1="1418.5332" y2="1418.5332"/><text fill="#000000" font-family="sans-serif" font-size="13" font-weight="bold" lengthAdjust="spacing" textLength="14.46" x="412.8198" y="1413.2705">37</text><text fill="#000000" font-family="sans-serif" font-size="13" lengthAdjust="spacing" textLength="138.728" x="431.2798" y="1413.2705">findHabitCategoryById()</text><polygon fill="#181818" points="837.2964,1445.8242,827.2964,1449.8242,837.2964,1453.8242,833.2964,1449.8242" style="stroke:#181818;stroke-width:1.0;"/><line style="stroke:#181818;stroke-width:1.0;" x1="831.2964" x2="1076.1162" y1="1449.8242" y2="1449.8242"/><text fill="#000000" font-family="sans-serif" font-size="13" font-weight="bold" lengthAdjust="spacing" textLength="14.46" x="843.2964" y="1444.5615">38</text><text fill="#000000" font-family="sans-serif" font-size="13" lengthAdjust="spacing" textLength="117.7681" x="861.7563" y="1444.5615">habitCategoryDAO()</text><polygon fill="#181818" points="1065.1162,1477.1152,1075.1162,1481.1152,1065.1162,1485.1152,1069.1162,1481.1152" style="stroke:#181818;stroke-width:1.0;"/><line style="stroke:#181818;stroke-width:1.0;stroke-dasharray:2.0,2.0;" x1="821.2964" x2="1071.1162" y1="1481.1152" y2="1481.1152"/><text fill="#000000" font-family="sans-serif" font-size="13" font-weight="bold" lengthAdjust="spacing" textLength="14.46" x="828.2964" y="1475.8525">39</text><text fill="#000000" font-family="sans-serif" font-size="13" lengthAdjust="spacing" textLength="109.1099" x="846.7563" y="1475.8525">habitCategoryDAO</text><polygon fill="#181818" points="1251.3042,1508.4063,1261.3042,1512.4063,1251.3042,1516.4063,1255.3042,1512.4063" style="stroke:#181818;stroke-width:1.0;"/><line style="stroke:#181818;stroke-width:1.0;" x1="1087.1162" x2="1257.3042" y1="1512.4063" y2="1512.4063"/><text fill="#000000" font-family="sans-serif" font-size="13" font-weight="bold" lengthAdjust="spacing" textLength="14.46" x="1094.1162" y="1507.1436">40</text><text fill="#000000" font-family="sans-serif" font-size="13" lengthAdjust="spacing" textLength="138.728" x="1112.5762" y="1507.1436">findHabitCategoryById()</text><polygon fill="#181818" points="1098.1162,1539.6973,1088.1162,1543.6973,1098.1162,1547.6973,1094.1162,1543.6973" style="stroke:#181818;stroke-width:1.0;"/><line style="stroke:#181818;stroke-width:1.0;stroke-dasharray:2.0,2.0;" x1="1092.1162" x2="1267.3042" y1="1543.6973" y2="1543.6973"/><text fill="#000000" font-family="sans-serif" font-size="13" font-weight="bold" lengthAdjust="spacing" textLength="14.46" x="1104.1162" y="1538.4346">41</text><text fill="#000000" font-family="sans-serif" font-size="13" lengthAdjust="spacing" textLength="80.939" x="1122.5762" y="1538.4346">habitCategory</text><polygon fill="#181818" points="416.8198,1570.9883,406.8198,1574.9883,416.8198,1578.9883,412.8198,1574.9883" style="stroke:#181818;stroke-width:1.0;"/><line style="stroke:#181818;stroke-width:1.0;stroke-dasharray:2.0,2.0;" x1="410.8198" x2="1081.1162" y1="1574.9883" y2="1574.9883"/><text fill="#000000" font-family="sans-serif" font-size="13" font-weight="bold" lengthAdjust="spacing" textLength="14.46" x="422.8198" y="1569.7256">42</text><text fill="#000000" font-family="sans-serif" font-size="13" lengthAdjust="spacing" textLength="80.939" x="441.2798" y="1569.7256">habitCategory</text><line style="stroke:#181818;stroke-width:1.0;stroke-dasharray:2.0,2.0;" x1="405.8198" x2="447.8198" y1="1611.2793" y2="1611.2793"/><line style="stroke:#181818;stroke-width:1.0;stroke-dasharray:2.0,2.0;" x1="447.8198" x2="447.8198" y1="1611.2793" y2="1624.2793"/><line style="stroke:#181818;stroke-width:1.0;stroke-dasharray:2.0,2.0;" x1="400.8198" x2="447.8198" y1="1624.2793" y2="1624.2793"/><polygon fill="#181818" points="410.8198,1620.2793,400.8198,1624.2793,410.8198,1628.2793,406.8198,1624.2793" style="stroke:#181818;stroke-width:1.0;"/><text fill="#000000" font-family="sans-serif" font-size="13" font-weight="bold" lengthAdjust="spacing" textLength="14.46" x="412.8198" y="1606.0166">43</text><text fill="#000000" font-family="sans-serif" font-size="13" lengthAdjust="spacing" textLength="80.939" x="431.2798" y="1606.0166">habitCategory</text><polygon fill="#181818" points="658.9004,1646.5703,668.9004,1650.5703,658.9004,1654.5703,662.9004,1650.5703" style="stroke:#181818;stroke-width:1.0;"/><line style="stroke:#181818;stroke-width:1.0;" x1="400.8198" x2="664.9004" y1="1650.5703" y2="1650.5703"/><text fill="#000000" font-family="sans-serif" font-size="13" font-weight="bold" lengthAdjust="spacing" textLength="14.46" x="407.8198" y="1645.3076">44</text><text fill="#000000" font-family="sans-serif" font-size="13" lengthAdjust="spacing" textLength="78.7681" x="426.2798" y="1645.3076">updateHabit()</text><polygon fill="#181818" points="1333.2178,1677.8613,1343.2178,1681.8613,1333.2178,1685.8613,1337.2178,1681.8613" style="stroke:#181818;stroke-width:1.0;"/><line style="stroke:#181818;stroke-width:1.0;" x1="680.9004" x2="1339.2178" y1="1681.8613" y2="1681.8613"/><text fill="#000000" font-family="sans-serif" font-size="13" font-weight="bold" lengthAdjust="spacing" textLength="14.46" x="687.9004" y="1676.5986">45</text><text fill="#000000" font-family="sans-serif" font-size="13" lengthAdjust="spacing" textLength="55.6245" x="706.3604" y="1676.5986">create(...)</text><rect fill="#E3E3E3" height="51.2422" rx="2.5" ry="2.5" style="stroke:#181818;stroke-width:0.5;" width="50.5723" x="1345.2178" y="1658.5703"/><text fill="#000000" font-family="sans-serif" font-size="14" lengthAdjust="spacing" textLength="30.3584" x="1355.3247" y="1680.6777">habit</text><text fill="#000000" font-family="sans-serif" font-size="14" lengthAdjust="spacing" textLength="36.5723" x="1352.2178" y="1699.2988">:Habit</text><polygon fill="#181818" points="930.6201,1740.1035,940.6201,1744.1035,930.6201,1748.1035,934.6201,1744.1035" style="stroke:#181818;stroke-width:1.0;"/><line style="stroke:#181818;stroke-width:1.0;" x1="680.9004" x2="936.6201" y1="1744.1035" y2="1744.1035"/><text fill="#000000" font-family="sans-serif" font-size="13" font-weight="bold" lengthAdjust="spacing" textLength="14.46" x="687.9004" y="1738.8408">46</text><text fill="#000000" font-family="sans-serif" font-size="13" lengthAdjust="spacing" textLength="110.5698" x="706.3604" y="1738.8408">updateHabit (habit)</text><polygon fill="#181818" points="691.9004,1771.3945,681.9004,1775.3945,691.9004,1779.3945,687.9004,1775.3945" style="stroke:#181818;stroke-width:1.0;"/><line style="stroke:#181818;stroke-width:1.0;stroke-dasharray:2.0,2.0;" x1="685.9004" x2="946.6201" y1="1775.3945" y2="1775.3945"/><text fill="#000000" font-family="sans-serif" font-size="13" font-weight="bold" lengthAdjust="spacing" textLength="14.46" x="697.9004" y="1770.1318">47</text><text fill="#000000" font-family="sans-serif" font-size="13" lengthAdjust="spacing" textLength="3.6118" x="716.3604" y="1770.1318">&#160;</text><polygon fill="#181818" points="411.8198,1802.6855,401.8198,1806.6855,411.8198,1810.6855,407.8198,1806.6855" style="stroke:#181818;stroke-width:1.0;"/><line style="stroke:#181818;stroke-width:1.0;stroke-dasharray:2.0,2.0;" x1="405.8198" x2="674.9004" y1="1806.6855" y2="1806.6855"/><text fill="#000000" font-family="sans-serif" font-size="13" font-weight="bold" lengthAdjust="spacing" textLength="14.46" x="417.8198" y="1801.4229">48</text><text fill="#000000" font-family="sans-serif" font-size="13" lengthAdjust="spacing" textLength="28.1899" x="436.2798" y="1801.4229">habit</text><polygon fill="#181818" points="246.5981,1833.9766,236.5981,1837.9766,246.5981,1841.9766,242.5981,1837.9766" style="stroke:#181818;stroke-width:1.0;"/><line style="stroke:#181818;stroke-width:1.0;stroke-dasharray:2.0,2.0;" x1="240.5981" x2="394.8198" y1="1837.9766" y2="1837.9766"/><text fill="#000000" font-family="sans-serif" font-size="13" font-weight="bold" lengthAdjust="spacing" textLength="14.46" x="252.5981" y="1832.7139">49</text><text fill="#000000" font-family="sans-serif" font-size="13" lengthAdjust="spacing" textLength="62.8672" x="271.0581" y="1832.7139">habitName</text><polygon fill="#181818" points="33.7793,1865.2676,23.7793,1869.2676,33.7793,1873.2676,29.7793,1869.2676" style="stroke:#181818;stroke-width:1.0;"/><line style="stroke:#181818;stroke-width:1.0;stroke-dasharray:2.0,2.0;" x1="27.7793" x2="224.5981" y1="1869.2676" y2="1869.2676"/><text fill="#000000" font-family="sans-serif" font-size="13" font-weight="bold" lengthAdjust="spacing" textLength="14.46" x="39.7793" y="1864.0049">50</text><text fill="#000000" font-family="sans-serif" font-size="13" lengthAdjust="spacing" textLength="155.3589" x="58.2393" y="1864.0049">displays operation success</text><!--SRC=[tLZBZjem5DtxAonM3DBm0ImgjPrAZDI7rDUAZIUv0nR1Jcqp8_w-ZaCI9txW1AQBUfKuzvvpxVi4kQUi988Sy84pdkq4Fm1MuWX8jbzAakt95dweKm5OGAO8snQsWDoHdBzIjiNFf92043agpew79n3wELDSuDal2MA6jBoY6Iq9KtW6ELLhyaJLRmglgmtxPB_FC96uUeZeVE4v54D5izbgcxS-nAwI_0ubbrHRTjBww_wEKHxiUI1-2dql81w88az4GeCps3PWpKiVnOW_lF_MyUaN3z57ec2hRN1jThzqMEut3tiZrBF2slHOis4h8zN96n_J5ws5AoyZXFMgdl3zE-C4lDAoUuaLnvN_CC46oSYrgiRNPgjQHksiRdouM6YKJ80MZKXfcOBAEXZa_AuLT9ZgkEXzRm1h88qw206l1IcACQDwXWrZpf6irX1SyxKXMD-hzfk7fSVK1gHNh5gD1Bvt3zJn-DLpI2JodAN9WmjtvjvRPKtmD8r4v3IVDHswS9euaNCQEp9ZB4E6M0XOWTPbbn_QWWs4V9q_6iTawmhdL9O5ETLuqdXWmp1XUPk_4WhT031dW08qtlIlrUIapBVJvroQADWnaNBADZTjs2tKg1zEZ_dS6FQOtxPcQ99dolAEvR_8_lK_oFvBrtRx0l3soN_Zn0z2foL-FsRTSI7OxrAKBoQjwp_Fm8Ayj-nXSzF06c9YIHUFK3SDFBEOmuUcfKJaRCEnBELomnSSZs5BQiIna_fQr83WyJtH7cGDCOPYAjnDlHJnn1fsKm5_ZY1rrsDwFzT-HzvswUkNwbI2R00WxxH7DCtsfzBLhNA5NqX1jGrGHUzrOxMDUqtHylNnncTTFszsRjFNlMMkRLGzzjHSJEhtDoXuL_V_QOLl_3oGMW1Jhtr26Roo52RD4UDgSM8vJ2x0q-SCBzMKUSE-lcDPrPPXhOeEnwcpv6BHp33pvN9vXqRDe9PTkAudbz8wxix0_8ac3PsZ1ywKOTDr_XdfApa0Ylkwr_xQtv8Iyn84KPGpB8zP1b8Y2yFyOVGN]--></g></svg>