<svg xmlns="http://www.w3.org/2000/svg" xmlns:xlink="http://www.w3.org/1999/xlink" contentStyleType="text/css" height="797px" preserveAspectRatio="none" style="width:712px;height:797px;background:#FFFFFF;" version="1.1" viewBox="0 0 712 797" width="712px" zoomAndPan="magnify"><defs/><g><!--class EditHabitView--><g id="elem_EditHabitView"><rect codeLine="7" fill="#F1F1F1" height="48" id="EditHabitView" rx="2.5" ry="2.5" style="stroke:#181818;stroke-width:0.5;" width="119.1514" x="284.5" y="7"/><ellipse cx="299.5" cy="23" fill="#ADD1B2" rx="11" ry="11" style="stroke:#181818;stroke-width:1.0;"/><path d="M302.2656,18.875 Q302.4219,18.6563 302.6094,18.5469 Q302.7969,18.4375 303.0156,18.4375 Q303.3906,18.4375 303.625,18.7031 Q303.8594,18.9531 303.8594,19.5625 L303.8594,21.0156 Q303.8594,21.625 303.625,21.8906 Q303.3906,22.1563 303.0156,22.1563 Q302.6719,22.1563 302.4688,21.9531 Q302.2656,21.7656 302.1563,21.25 Q302.1094,20.8906 301.9219,20.7031 Q301.5938,20.3281 300.9844,20.1094 Q300.375,19.8906 299.75,19.8906 Q298.9844,19.8906 298.3438,20.2188 Q297.7188,20.5469 297.2188,21.2969 Q296.7344,22.0469 296.7344,23.0781 L296.7344,24.1719 Q296.7344,25.4063 297.625,26.2344 Q298.5156,27.0469 300.1094,27.0469 Q301.0469,27.0469 301.7031,26.7969 Q302.0938,26.6406 302.5156,26.2031 Q302.7813,25.9375 302.9219,25.8594 Q303.0781,25.7813 303.2813,25.7813 Q303.6094,25.7813 303.8594,26.0469 Q304.125,26.2969 304.125,26.6406 Q304.125,26.9844 303.7813,27.3906 Q303.2813,27.9688 302.4844,28.2969 Q301.4063,28.75 300.1094,28.75 Q298.5938,28.75 297.3906,28.125 Q296.4063,27.625 295.7188,26.5625 Q295.0313,25.4844 295.0313,24.2031 L295.0313,23.0469 Q295.0313,21.7188 295.6406,20.5781 Q296.2656,19.4219 297.3594,18.8125 Q298.4531,18.1875 299.6875,18.1875 Q300.4219,18.1875 301.0625,18.3594 Q301.7188,18.5156 302.2656,18.875 Z " fill="#000000"/><text fill="#000000" font-family="sans-serif" font-size="14" lengthAdjust="spacing" textLength="87.1514" x="313.5" y="28.7969">EditHabitView</text><line style="stroke:#181818;stroke-width:0.5;" x1="285.5" x2="402.6514" y1="39" y2="39"/><line style="stroke:#181818;stroke-width:0.5;" x1="285.5" x2="402.6514" y1="47" y2="47"/></g><!--class EditHabitViewModel--><g id="elem_EditHabitViewModel"><rect codeLine="10" fill="#F1F1F1" height="159.7266" id="EditHabitViewModel" rx="2.5" ry="2.5" style="stroke:#181818;stroke-width:0.5;" width="162.9512" x="262.5" y="134"/><ellipse cx="280.051" cy="150" fill="#ADD1B2" rx="11" ry="11" style="stroke:#181818;stroke-width:1.0;"/><path d="M282.8167,145.875 Q282.9729,145.6563 283.1604,145.5469 Q283.3479,145.4375 283.5667,145.4375 Q283.9417,145.4375 284.176,145.7031 Q284.4104,145.9531 284.4104,146.5625 L284.4104,148.0156 Q284.4104,148.625 284.176,148.8906 Q283.9417,149.1563 283.5667,149.1563 Q283.2229,149.1563 283.0198,148.9531 Q282.8167,148.7656 282.7073,148.25 Q282.6604,147.8906 282.4729,147.7031 Q282.1448,147.3281 281.5354,147.1094 Q280.926,146.8906 280.301,146.8906 Q279.5354,146.8906 278.8948,147.2188 Q278.2698,147.5469 277.7698,148.2969 Q277.2854,149.0469 277.2854,150.0781 L277.2854,151.1719 Q277.2854,152.4063 278.176,153.2344 Q279.0667,154.0469 280.6604,154.0469 Q281.5979,154.0469 282.2542,153.7969 Q282.6448,153.6406 283.0667,153.2031 Q283.3323,152.9375 283.4729,152.8594 Q283.6292,152.7813 283.8323,152.7813 Q284.1604,152.7813 284.4104,153.0469 Q284.676,153.2969 284.676,153.6406 Q284.676,153.9844 284.3323,154.3906 Q283.8323,154.9688 283.0354,155.2969 Q281.9573,155.75 280.6604,155.75 Q279.1448,155.75 277.9417,155.125 Q276.9573,154.625 276.2698,153.5625 Q275.5823,152.4844 275.5823,151.2031 L275.5823,150.0469 Q275.5823,148.7188 276.1917,147.5781 Q276.8167,146.4219 277.9104,145.8125 Q279.0042,145.1875 280.2385,145.1875 Q280.9729,145.1875 281.6135,145.3594 Q282.2698,145.5156 282.8167,145.875 Z " fill="#000000"/><text fill="#000000" font-family="sans-serif" font-size="14" lengthAdjust="spacing" textLength="125.2822" x="294.6179" y="155.7969">EditHabitViewModel</text><line style="stroke:#181818;stroke-width:0.5;" x1="263.5" x2="424.4512" y1="166" y2="166"/><line style="stroke:#181818;stroke-width:0.5;" x1="263.5" x2="424.4512" y1="174" y2="174"/><text fill="#000000" font-family="sans-serif" font-size="14" lengthAdjust="spacing" textLength="67.293" x="268.5" y="193.1074">+listHabit()</text><text fill="#000000" font-family="sans-serif" font-size="14" lengthAdjust="spacing" textLength="134.9961" x="268.5" y="211.7285">+listHabitCategories()</text><text fill="#000000" font-family="sans-serif" font-size="14" lengthAdjust="spacing" textLength="94.1445" x="268.5" y="230.3496">-getHabitById()</text><text fill="#000000" font-family="sans-serif" font-size="14" lengthAdjust="spacing" textLength="72.7549" x="268.5" y="248.9707">+editHabit()</text><text fill="#000000" font-family="sans-serif" font-size="14" lengthAdjust="spacing" textLength="95.3271" x="268.5" y="267.5918">+validateData()</text><text fill="#000000" font-family="sans-serif" font-size="14" lengthAdjust="spacing" textLength="150.9512" x="268.5" y="286.2129">-getHabitCategoryById()</text></g><!--class Habit--><g id="elem_Habit"><rect codeLine="19" fill="#F1F1F1" height="234.2109" id="Habit" rx="2.5" ry="2.5" style="stroke:#181818;stroke-width:0.5;" width="139.6064" x="7" y="556"/><ellipse cx="56.2119" cy="572" fill="#ADD1B2" rx="11" ry="11" style="stroke:#181818;stroke-width:1.0;"/><path d="M58.9775,567.875 Q59.1338,567.6563 59.3213,567.5469 Q59.5088,567.4375 59.7275,567.4375 Q60.1025,567.4375 60.3369,567.7031 Q60.5713,567.9531 60.5713,568.5625 L60.5713,570.0156 Q60.5713,570.625 60.3369,570.8906 Q60.1025,571.1563 59.7275,571.1563 Q59.3838,571.1563 59.1807,570.9531 Q58.9775,570.7656 58.8682,570.25 Q58.8213,569.8906 58.6338,569.7031 Q58.3057,569.3281 57.6963,569.1094 Q57.0869,568.8906 56.4619,568.8906 Q55.6963,568.8906 55.0557,569.2188 Q54.4307,569.5469 53.9307,570.2969 Q53.4463,571.0469 53.4463,572.0781 L53.4463,573.1719 Q53.4463,574.4063 54.3369,575.2344 Q55.2275,576.0469 56.8213,576.0469 Q57.7588,576.0469 58.415,575.7969 Q58.8057,575.6406 59.2275,575.2031 Q59.4932,574.9375 59.6338,574.8594 Q59.79,574.7813 59.9932,574.7813 Q60.3213,574.7813 60.5713,575.0469 Q60.8369,575.2969 60.8369,575.6406 Q60.8369,575.9844 60.4932,576.3906 Q59.9932,576.9688 59.1963,577.2969 Q58.1182,577.75 56.8213,577.75 Q55.3057,577.75 54.1025,577.125 Q53.1182,576.625 52.4307,575.5625 Q51.7432,574.4844 51.7432,573.2031 L51.7432,572.0469 Q51.7432,570.7188 52.3525,569.5781 Q52.9775,568.4219 54.0713,567.8125 Q55.165,567.1875 56.3994,567.1875 Q57.1338,567.1875 57.7744,567.3594 Q58.4307,567.5156 58.9775,567.875 Z " fill="#000000"/><text fill="#000000" font-family="sans-serif" font-size="14" lengthAdjust="spacing" textLength="32.6826" x="76.7119" y="577.7969">Habit</text><line style="stroke:#181818;stroke-width:0.5;" x1="8" x2="145.6064" y1="588" y2="588"/><text fill="#000000" font-family="sans-serif" font-size="14" lengthAdjust="spacing" textLength="15.5586" x="13" y="607.1074">-id</text><text fill="#000000" font-family="sans-serif" font-size="14" lengthAdjust="spacing" textLength="26.4482" x="13" y="625.7285">-title</text><text fill="#000000" font-family="sans-serif" font-size="14" lengthAdjust="spacing" textLength="72.3652" x="13" y="644.3496">-description</text><text fill="#000000" font-family="sans-serif" font-size="14" lengthAdjust="spacing" textLength="90.2549" x="13" y="662.9707">-measurement</text><text fill="#000000" font-family="sans-serif" font-size="14" lengthAdjust="spacing" textLength="127.6064" x="13" y="681.5918">-unitOfMeasurement</text><text fill="#000000" font-family="sans-serif" font-size="14" lengthAdjust="spacing" textLength="61.4619" x="13" y="700.2129">-startDate</text><text fill="#000000" font-family="sans-serif" font-size="14" lengthAdjust="spacing" textLength="57.5928" x="13" y="718.834">-endDate</text><text fill="#000000" font-family="sans-serif" font-size="14" lengthAdjust="spacing" textLength="66.1445" x="13" y="737.4551">-frequency</text><text fill="#000000" font-family="sans-serif" font-size="14" lengthAdjust="spacing" textLength="46.6689" x="13" y="756.0762">-priority</text><text fill="#000000" font-family="sans-serif" font-size="14" lengthAdjust="spacing" textLength="70.0342" x="13" y="774.6973">-categoryId</text><line style="stroke:#181818;stroke-width:0.5;" x1="8" x2="145.6064" y1="782.2109" y2="782.2109"/></g><!--class HabitDAO--><g id="elem_HabitDAO"><rect codeLine="32" fill="#F1F1F1" height="103.8633" id="HabitDAO" rx="2.5" ry="2.5" style="stroke:#181818;stroke-width:0.5;" width="112.7686" x="207.5" y="621"/><ellipse cx="230.4866" cy="637" fill="#ADD1B2" rx="11" ry="11" style="stroke:#181818;stroke-width:1.0;"/><path d="M233.2522,632.875 Q233.4085,632.6563 233.596,632.5469 Q233.7835,632.4375 234.0022,632.4375 Q234.3772,632.4375 234.6116,632.7031 Q234.846,632.9531 234.846,633.5625 L234.846,635.0156 Q234.846,635.625 234.6116,635.8906 Q234.3772,636.1563 234.0022,636.1563 Q233.6585,636.1563 233.4554,635.9531 Q233.2522,635.7656 233.1429,635.25 Q233.096,634.8906 232.9085,634.7031 Q232.5804,634.3281 231.971,634.1094 Q231.3616,633.8906 230.7366,633.8906 Q229.971,633.8906 229.3304,634.2188 Q228.7054,634.5469 228.2054,635.2969 Q227.721,636.0469 227.721,637.0781 L227.721,638.1719 Q227.721,639.4063 228.6116,640.2344 Q229.5022,641.0469 231.096,641.0469 Q232.0335,641.0469 232.6897,640.7969 Q233.0804,640.6406 233.5022,640.2031 Q233.7679,639.9375 233.9085,639.8594 Q234.0647,639.7813 234.2679,639.7813 Q234.596,639.7813 234.846,640.0469 Q235.1116,640.2969 235.1116,640.6406 Q235.1116,640.9844 234.7679,641.3906 Q234.2679,641.9688 233.471,642.2969 Q232.3929,642.75 231.096,642.75 Q229.5804,642.75 228.3772,642.125 Q227.3929,641.625 226.7054,640.5625 Q226.0179,639.4844 226.0179,638.2031 L226.0179,637.0469 Q226.0179,635.7188 226.6272,634.5781 Q227.2522,633.4219 228.346,632.8125 Q229.4397,632.1875 230.6741,632.1875 Q231.4085,632.1875 232.0491,632.3594 Q232.7054,632.5156 233.2522,632.875 Z " fill="#000000"/><text fill="#000000" font-family="sans-serif" font-size="14" lengthAdjust="spacing" textLength="63.0205" x="246.2614" y="642.7969">HabitDAO</text><line style="stroke:#181818;stroke-width:0.5;" x1="208.5" x2="319.2686" y1="653" y2="653"/><line style="stroke:#181818;stroke-width:0.5;" x1="208.5" x2="319.2686" y1="661" y2="661"/><text fill="#000000" font-family="sans-serif" font-size="14" lengthAdjust="spacing" textLength="74.293" x="213.5" y="680.1074">+listHabits()</text><text fill="#000000" font-family="sans-serif" font-size="14" lengthAdjust="spacing" textLength="93.0029" x="213.5" y="698.7285">+updateHabit()</text><text fill="#000000" font-family="sans-serif" font-size="14" lengthAdjust="spacing" textLength="100.7686" x="213.5" y="717.3496">+findHabitById()</text></g><!--class HabitCategoryDAO--><g id="elem_HabitCategoryDAO"><rect codeLine="38" fill="#F1F1F1" height="85.2422" id="HabitCategoryDAO" rx="2.5" ry="2.5" style="stroke:#181818;stroke-width:0.5;" width="169.5752" x="441" y="630.5"/><ellipse cx="463.9866" cy="646.5" fill="#ADD1B2" rx="11" ry="11" style="stroke:#181818;stroke-width:1.0;"/><path d="M466.7522,642.375 Q466.9085,642.1563 467.096,642.0469 Q467.2835,641.9375 467.5022,641.9375 Q467.8772,641.9375 468.1116,642.2031 Q468.346,642.4531 468.346,643.0625 L468.346,644.5156 Q468.346,645.125 468.1116,645.3906 Q467.8772,645.6563 467.5022,645.6563 Q467.1585,645.6563 466.9554,645.4531 Q466.7522,645.2656 466.6429,644.75 Q466.596,644.3906 466.4085,644.2031 Q466.0804,643.8281 465.471,643.6094 Q464.8616,643.3906 464.2366,643.3906 Q463.471,643.3906 462.8304,643.7188 Q462.2054,644.0469 461.7054,644.7969 Q461.221,645.5469 461.221,646.5781 L461.221,647.6719 Q461.221,648.9063 462.1116,649.7344 Q463.0022,650.5469 464.596,650.5469 Q465.5335,650.5469 466.1897,650.2969 Q466.5804,650.1406 467.0022,649.7031 Q467.2679,649.4375 467.4085,649.3594 Q467.5647,649.2813 467.7679,649.2813 Q468.096,649.2813 468.346,649.5469 Q468.6116,649.7969 468.6116,650.1406 Q468.6116,650.4844 468.2679,650.8906 Q467.7679,651.4688 466.971,651.7969 Q465.8929,652.25 464.596,652.25 Q463.0804,652.25 461.8772,651.625 Q460.8929,651.125 460.2054,650.0625 Q459.5179,648.9844 459.5179,647.7031 L459.5179,646.5469 Q459.5179,645.2188 460.1272,644.0781 Q460.7522,642.9219 461.846,642.3125 Q462.9397,641.6875 464.1741,641.6875 Q464.9085,641.6875 465.5491,641.8594 Q466.2054,642.0156 466.7522,642.375 Z " fill="#000000"/><text fill="#000000" font-family="sans-serif" font-size="14" lengthAdjust="spacing" textLength="119.8271" x="479.7614" y="652.2969">HabitCategoryDAO</text><line style="stroke:#181818;stroke-width:0.5;" x1="442" x2="609.5752" y1="662.5" y2="662.5"/><line style="stroke:#181818;stroke-width:0.5;" x1="442" x2="609.5752" y1="670.5" y2="670.5"/><text fill="#000000" font-family="sans-serif" font-size="14" lengthAdjust="spacing" textLength="134.9961" x="447" y="689.6074">+listHabitCategories()</text><text fill="#000000" font-family="sans-serif" font-size="14" lengthAdjust="spacing" textLength="157.5752" x="447" y="708.2285">+findHabitCategoryById()</text></g><!--class HabitCategoryRepository--><g id="elem_HabitCategoryRepository"><rect codeLine="43" fill="#F1F1F1" height="85.2422" id="HabitCategoryRepository" rx="2.5" ry="2.5" style="stroke:#181818;stroke-width:0.5;" width="188.4063" x="517" y="382.5"/><ellipse cx="532" cy="398.5" fill="#ADD1B2" rx="11" ry="11" style="stroke:#181818;stroke-width:1.0;"/><path d="M534.7656,394.375 Q534.9219,394.1563 535.1094,394.0469 Q535.2969,393.9375 535.5156,393.9375 Q535.8906,393.9375 536.125,394.2031 Q536.3594,394.4531 536.3594,395.0625 L536.3594,396.5156 Q536.3594,397.125 536.125,397.3906 Q535.8906,397.6563 535.5156,397.6563 Q535.1719,397.6563 534.9688,397.4531 Q534.7656,397.2656 534.6563,396.75 Q534.6094,396.3906 534.4219,396.2031 Q534.0938,395.8281 533.4844,395.6094 Q532.875,395.3906 532.25,395.3906 Q531.4844,395.3906 530.8438,395.7188 Q530.2188,396.0469 529.7188,396.7969 Q529.2344,397.5469 529.2344,398.5781 L529.2344,399.6719 Q529.2344,400.9063 530.125,401.7344 Q531.0156,402.5469 532.6094,402.5469 Q533.5469,402.5469 534.2031,402.2969 Q534.5938,402.1406 535.0156,401.7031 Q535.2813,401.4375 535.4219,401.3594 Q535.5781,401.2813 535.7813,401.2813 Q536.1094,401.2813 536.3594,401.5469 Q536.625,401.7969 536.625,402.1406 Q536.625,402.4844 536.2813,402.8906 Q535.7813,403.4688 534.9844,403.7969 Q533.9063,404.25 532.6094,404.25 Q531.0938,404.25 529.8906,403.625 Q528.9063,403.125 528.2188,402.0625 Q527.5313,400.9844 527.5313,399.7031 L527.5313,398.5469 Q527.5313,397.2188 528.1406,396.0781 Q528.7656,394.9219 529.8594,394.3125 Q530.9531,393.6875 532.1875,393.6875 Q532.9219,393.6875 533.5625,393.8594 Q534.2188,394.0156 534.7656,394.375 Z " fill="#000000"/><text fill="#000000" font-family="sans-serif" font-size="14" lengthAdjust="spacing" textLength="156.4063" x="546" y="404.2969">HabitCategoryRepository</text><line style="stroke:#181818;stroke-width:0.5;" x1="518" x2="704.4063" y1="414.5" y2="414.5"/><line style="stroke:#181818;stroke-width:0.5;" x1="518" x2="704.4063" y1="422.5" y2="422.5"/><text fill="#000000" font-family="sans-serif" font-size="14" lengthAdjust="spacing" textLength="134.9961" x="523" y="441.6074">+listHabitCategories()</text><text fill="#000000" font-family="sans-serif" font-size="14" lengthAdjust="spacing" textLength="157.5752" x="523" y="460.2285">+findHabitCategoryById()</text></g><!--class HabitRepository--><g id="elem_HabitRepository"><rect codeLine="48" fill="#F1F1F1" height="103.8633" id="HabitRepository" rx="2.5" ry="2.5" style="stroke:#181818;stroke-width:0.5;" width="131.5996" x="11" y="373"/><ellipse cx="26" cy="389" fill="#ADD1B2" rx="11" ry="11" style="stroke:#181818;stroke-width:1.0;"/><path d="M28.7656,384.875 Q28.9219,384.6563 29.1094,384.5469 Q29.2969,384.4375 29.5156,384.4375 Q29.8906,384.4375 30.125,384.7031 Q30.3594,384.9531 30.3594,385.5625 L30.3594,387.0156 Q30.3594,387.625 30.125,387.8906 Q29.8906,388.1563 29.5156,388.1563 Q29.1719,388.1563 28.9688,387.9531 Q28.7656,387.7656 28.6563,387.25 Q28.6094,386.8906 28.4219,386.7031 Q28.0938,386.3281 27.4844,386.1094 Q26.875,385.8906 26.25,385.8906 Q25.4844,385.8906 24.8438,386.2188 Q24.2188,386.5469 23.7188,387.2969 Q23.2344,388.0469 23.2344,389.0781 L23.2344,390.1719 Q23.2344,391.4063 24.125,392.2344 Q25.0156,393.0469 26.6094,393.0469 Q27.5469,393.0469 28.2031,392.7969 Q28.5938,392.6406 29.0156,392.2031 Q29.2813,391.9375 29.4219,391.8594 Q29.5781,391.7813 29.7813,391.7813 Q30.1094,391.7813 30.3594,392.0469 Q30.625,392.2969 30.625,392.6406 Q30.625,392.9844 30.2813,393.3906 Q29.7813,393.9688 28.9844,394.2969 Q27.9063,394.75 26.6094,394.75 Q25.0938,394.75 23.8906,394.125 Q22.9063,393.625 22.2188,392.5625 Q21.5313,391.4844 21.5313,390.2031 L21.5313,389.0469 Q21.5313,387.7188 22.1406,386.5781 Q22.7656,385.4219 23.8594,384.8125 Q24.9531,384.1875 26.1875,384.1875 Q26.9219,384.1875 27.5625,384.3594 Q28.2188,384.5156 28.7656,384.875 Z " fill="#000000"/><text fill="#000000" font-family="sans-serif" font-size="14" lengthAdjust="spacing" textLength="99.5996" x="40" y="394.7969">HabitRepository</text><line style="stroke:#181818;stroke-width:0.5;" x1="12" x2="141.5996" y1="405" y2="405"/><line style="stroke:#181818;stroke-width:0.5;" x1="12" x2="141.5996" y1="413" y2="413"/><text fill="#000000" font-family="sans-serif" font-size="14" lengthAdjust="spacing" textLength="74.293" x="17" y="432.1074">+listHabits()</text><text fill="#000000" font-family="sans-serif" font-size="14" lengthAdjust="spacing" textLength="100.7686" x="17" y="450.7285">+findHabitById()</text><text fill="#000000" font-family="sans-serif" font-size="14" lengthAdjust="spacing" textLength="93.0029" x="17" y="469.3496">+updateHabit()</text></g><!--class Database--><g id="elem_Database"><rect codeLine="54" fill="#F1F1F1" height="85.2422" id="Database" rx="2.5" ry="2.5" style="stroke:#181818;stroke-width:0.5;" width="147.0029" x="256.5" y="382.5"/><ellipse cx="296.2825" cy="398.5" fill="#ADD1B2" rx="11" ry="11" style="stroke:#181818;stroke-width:1.0;"/><path d="M299.0481,394.375 Q299.2044,394.1563 299.3919,394.0469 Q299.5794,393.9375 299.7981,393.9375 Q300.1731,393.9375 300.4075,394.2031 Q300.6419,394.4531 300.6419,395.0625 L300.6419,396.5156 Q300.6419,397.125 300.4075,397.3906 Q300.1731,397.6563 299.7981,397.6563 Q299.4544,397.6563 299.2513,397.4531 Q299.0481,397.2656 298.9388,396.75 Q298.8919,396.3906 298.7044,396.2031 Q298.3763,395.8281 297.7669,395.6094 Q297.1575,395.3906 296.5325,395.3906 Q295.7669,395.3906 295.1263,395.7188 Q294.5013,396.0469 294.0013,396.7969 Q293.5169,397.5469 293.5169,398.5781 L293.5169,399.6719 Q293.5169,400.9063 294.4075,401.7344 Q295.2981,402.5469 296.8919,402.5469 Q297.8294,402.5469 298.4856,402.2969 Q298.8763,402.1406 299.2981,401.7031 Q299.5638,401.4375 299.7044,401.3594 Q299.8606,401.2813 300.0638,401.2813 Q300.3919,401.2813 300.6419,401.5469 Q300.9075,401.7969 300.9075,402.1406 Q300.9075,402.4844 300.5638,402.8906 Q300.0638,403.4688 299.2669,403.7969 Q298.1888,404.25 296.8919,404.25 Q295.3763,404.25 294.1731,403.625 Q293.1888,403.125 292.5013,402.0625 Q291.8138,400.9844 291.8138,399.7031 L291.8138,398.5469 Q291.8138,397.2188 292.4231,396.0781 Q293.0481,394.9219 294.1419,394.3125 Q295.2356,393.6875 296.47,393.6875 Q297.2044,393.6875 297.845,393.8594 Q298.5013,394.0156 299.0481,394.375 Z " fill="#000000"/><text fill="#000000" font-family="sans-serif" font-size="14" lengthAdjust="spacing" textLength="59.9307" x="315.7897" y="404.2969">Database</text><line style="stroke:#181818;stroke-width:0.5;" x1="257.5" x2="402.5029" y1="414.5" y2="414.5"/><line style="stroke:#181818;stroke-width:0.5;" x1="257.5" x2="402.5029" y1="422.5" y2="422.5"/><text fill="#000000" font-family="sans-serif" font-size="14" lengthAdjust="spacing" textLength="135.0029" x="262.5" y="441.6074">+habitCategoryDAO()</text><text fill="#000000" font-family="sans-serif" font-size="14" lengthAdjust="spacing" textLength="78.1963" x="262.5" y="460.2285">+habitDAO()</text></g><!--link EditHabitView to EditHabitView--><g id="link_EditHabitView_EditHabitView"><path codeLine="60" d="M403.52,19.38 C423,19.44 438.5,23.31 438.5,31 C438.5,38.69 429,42.5415 409.52,42.6015 " fill="none" id="EditHabitView-to-EditHabitView" style="stroke:#181818;stroke-width:1.0;"/><polygon fill="#181818" points="403.52,42.62,412.5323,46.5923,408.52,42.6046,412.5076,38.5923,403.52,42.62" style="stroke:#181818;stroke-width:1.0;"/><text fill="#000000" font-family="sans-serif" font-size="13" lengthAdjust="spacing" textLength="48.4199" x="444.5" y="36.5283">instance</text></g><!--link EditHabitViewModel to EditHabitViewModel--><g id="link_EditHabitViewModel_EditHabitViewModel"><path codeLine="61" d="M425.66,192.22 C445.63,193.83 460.5,201.09 460.5,214 C460.5,226.91 451.6106,233.6878 431.6406,235.2978 " fill="none" id="EditHabitViewModel-to-EditHabitViewModel" style="stroke:#181818;stroke-width:1.0;"/><polygon fill="#181818" points="425.66,235.78,434.9523,239.0438,430.6438,235.3782,434.3095,231.0697,425.66,235.78" style="stroke:#181818;stroke-width:1.0;"/><text fill="#000000" font-family="sans-serif" font-size="13" lengthAdjust="spacing" textLength="48.4199" x="466.5" y="219.5283">instance</text></g><!--link HabitRepository to HabitRepository--><g id="link_HabitRepository_HabitRepository"><path codeLine="62" d="M143.05,408.16 C162.71,408.66 178,414.28 178,425 C178,435.72 168.7081,441.1875 149.0481,441.6875 " fill="none" id="HabitRepository-to-HabitRepository" style="stroke:#181818;stroke-width:1.0;"/><polygon fill="#181818" points="143.05,441.84,152.1488,445.6099,148.0484,441.7129,151.9454,437.6125,143.05,441.84" style="stroke:#181818;stroke-width:1.0;"/><text fill="#000000" font-family="sans-serif" font-size="13" lengthAdjust="spacing" textLength="48.4199" x="184" y="430.5283">instance</text></g><!--link Database to Database--><g id="link_Database_Database"><path codeLine="63" d="M403.53,408.25 C423.39,409.13 438.5,414.72 438.5,425 C438.5,435.28 429.3841,440.6044 409.5241,441.4844 " fill="none" id="Database-to-Database" style="stroke:#181818;stroke-width:1.0;"/><polygon fill="#181818" points="403.53,441.75,412.6982,445.3477,408.5251,441.5287,412.3441,437.3555,403.53,441.75" style="stroke:#181818;stroke-width:1.0;"/><text fill="#000000" font-family="sans-serif" font-size="13" lengthAdjust="spacing" textLength="48.4199" x="444.5" y="430.5283">instance</text></g><!--link EditHabitView to EditHabitViewModel--><g id="link_EditHabitView_EditHabitViewModel"><path codeLine="66" d="M344,55.29 C344,75.25 344,99.19 344,127.64 " fill="none" id="EditHabitView-to-EditHabitViewModel" style="stroke:#181818;stroke-width:1.0;"/><polygon fill="#181818" points="344,133.64,348,124.64,344,128.64,340,124.64,344,133.64" style="stroke:#181818;stroke-width:1.0;"/><text fill="#000000" font-family="sans-serif" font-size="13" lengthAdjust="spacing" textLength="42.6309" x="345" y="100.0283">creates</text></g><!--link EditHabitViewModel to HabitRepository--><g id="link_EditHabitViewModel_HabitRepository"><path codeLine="67" d="M262.44,278.84 C223.95,308.97 183.3544,340.7514 147.1544,369.0914 " fill="none" id="EditHabitViewModel-to-HabitRepository" style="stroke:#181818;stroke-width:1.0;"/><polygon fill="#181818" points="142.43,372.79,151.9824,370.3917,146.367,369.7078,147.0509,364.0924,142.43,372.79" style="stroke:#181818;stroke-width:1.0;"/><text fill="#000000" font-family="sans-serif" font-size="13" lengthAdjust="spacing" textLength="90.3271" x="204" y="339.0283">habitRepository</text></g><!--link EditHabitViewModel to HabitCategoryRepository--><g id="link_EditHabitViewModel_HabitCategoryRepository"><path codeLine="68" d="M425.56,278.84 C468.5,312.46 515.2048,349.0224 553.0048,378.6024 " fill="none" id="EditHabitViewModel-to-HabitCategoryRepository" style="stroke:#181818;stroke-width:1.0;"/><polygon fill="#181818" points="557.73,382.3,553.1073,373.6034,553.7923,379.2186,548.1771,379.9037,557.73,382.3" style="stroke:#181818;stroke-width:1.0;"/><text fill="#000000" font-family="sans-serif" font-size="13" lengthAdjust="spacing" textLength="143.0762" x="503" y="339.0283">habitCategoryRepository</text></g><!--link HabitRepository to Habit--><g id="link_HabitRepository_Habit"><path codeLine="70" d="M77,477.27 C77,500.22 77,522.3 77,549.91 " fill="none" id="HabitRepository-to-Habit" style="stroke:#181818;stroke-width:1.0;"/><polygon fill="#181818" points="77,555.91,81,546.91,77,550.91,73,546.91,77,555.91" style="stroke:#181818;stroke-width:1.0;"/><text fill="#000000" font-family="sans-serif" font-size="13" lengthAdjust="spacing" textLength="42.6309" x="78" y="522.0283">creates</text></g><!--link HabitRepository to HabitDAO--><g id="link_HabitRepository_HabitDAO"><path codeLine="71" d="M115.97,477.27 C147.98,519.37 189.4594,573.9331 221.4494,616.0231 " fill="none" id="HabitRepository-to-HabitDAO" style="stroke:#181818;stroke-width:1.0;"/><polygon fill="#181818" points="225.08,620.8,222.8187,611.2143,222.0545,616.8193,216.4495,616.0551,225.08,620.8" style="stroke:#181818;stroke-width:1.0;"/></g><!--link HabitCategoryRepository to HabitCategoryDAO--><g id="link_HabitCategoryRepository_HabitCategoryDAO"><path codeLine="72" d="M596.58,467.73 C580.9,513.1 557.9592,579.5089 542.3092,624.8089 " fill="none" id="HabitCategoryRepository-to-HabitCategoryDAO" style="stroke:#181818;stroke-width:1.0;"/><polygon fill="#181818" points="540.35,630.48,547.0696,623.2795,541.9827,625.7541,539.5081,620.6672,540.35,630.48" style="stroke:#181818;stroke-width:1.0;"/></g><!--link Database to HabitDAO--><g id="link_Database_HabitDAO"><path codeLine="74" d="M318.8,467.73 C307.48,509.95 291.506,569.5053 279.326,614.8653 " fill="none" id="Database-to-HabitDAO" style="stroke:#181818;stroke-width:1.0;"/><polygon fill="#181818" points="277.77,620.66,283.9671,613.0052,279.0667,615.8311,276.2408,610.9306,277.77,620.66" style="stroke:#181818;stroke-width:1.0;"/></g><!--link Database to HabitCategoryDAO--><g id="link_Database_HabitCategoryDAO"><path codeLine="75" d="M363.25,467.73 C399.4,513.1 453.0913,580.4872 489.1813,625.7872 " fill="none" id="Database-to-HabitCategoryDAO" style="stroke:#181818;stroke-width:1.0;"/><polygon fill="#181818" points="492.92,630.48,490.4405,620.9484,489.8044,626.5693,484.1834,625.9333,492.92,630.48" style="stroke:#181818;stroke-width:1.0;"/></g><!--SRC=[hLFBJiCm4BpxAtm4eKgSUq0g58aUgafKukxQcsHLrmdsXYeW_XsdSIpdqPx8oPxP7S-E7NT4KmahJhmIyYXos5EZWLkG94okWRbOu0gXoZEQd6T2kvJHQ82Q2dXLwgRT99pKmhaLaSL3JR2HfTdZD_17njY5ugyAwKqSa3uGplo7_SuIsrA1zYpttuC_q7NKtVqOUH44UMaHNE0MF8UEUcusAZP0hnwHBw5H-Uwr837f3R9Dq8WcBsJmjU2emeAGV7RTMe6J5Yl2qWJa1CBL5avWA22rGTfbsmdkI5ZoXdejC2hPPHO-Qp2o2VlAef-S-gqCdZTgv7UzsasZT368kcfZ68QJeL5fY4F1FfrPuScD96etO-t9TwXAX-HN_oX-IzHT7NikeAZRFfo3S105Yr4sKQ08jz1ri-4li7WQ_HDBZiO_12E1pVmJu_8EJNh6u_g6CPHKno5yMLmd_CJjjVEb1J-vcxKyQw4O8ZSRPvx6SXXt8ZHDe9T9R5wjyTV4hfqvyTCM9n6c6bDqqCJ-0000]--></g></svg>