<svg xmlns="http://www.w3.org/2000/svg" xmlns:xlink="http://www.w3.org/1999/xlink" contentStyleType="text/css" height="414px" preserveAspectRatio="none" style="width:729px;height:414px;background:#FFFFFF;" version="1.1" viewBox="0 0 729 414" width="729px" zoomAndPan="magnify"><title>System Sequence Diagram (SSD) - Alternative One</title><defs/><g><text fill="#000000" font-family="sans-serif" font-size="14" font-weight="bold" lengthAdjust="spacing" textLength="337.6611" x="195.1091" y="30.1074">System Sequence Diagram (SSD) - Alternative One</text><rect fill="#FFFFFF" height="188.7461" style="stroke:#181818;stroke-width:1.0;" width="10" x="17.7793" y="133.2422"/><rect fill="#FFFFFF" height="31.291" style="stroke:#181818;stroke-width:1.0;" width="10" x="686.5967" y="156.5332"/><rect fill="#FFFFFF" height="31.291" style="stroke:#181818;stroke-width:1.0;" width="10" x="686.5967" y="219.1152"/><rect fill="#FFFFFF" height="31.291" style="stroke:#181818;stroke-width:1.0;" width="10" x="686.5967" y="281.6973"/><line style="stroke:#181818;stroke-width:0.5;stroke-dasharray:5.0,5.0;" x1="22" x2="22" y1="123.2422" y2="330.9883"/><line style="stroke:#181818;stroke-width:0.5;stroke-dasharray:5.0,5.0;" x1="691.314" x2="691.314" y1="123.2422" y2="330.9883"/><text fill="#000000" font-family="sans-serif" font-size="14" lengthAdjust="spacing" textLength="29.5586" x="5" y="119.7285">User</text><ellipse cx="22.7793" cy="53.1211" fill="#E3E3E3" rx="8" ry="8" style="stroke:#181818;stroke-width:0.5;"/><path d="M22.7793,61.1211 L22.7793,88.1211 M9.7793,69.1211 L35.7793,69.1211 M22.7793,88.1211 L9.7793,103.1211 M22.7793,88.1211 L35.7793,103.1211 " fill="none" style="stroke:#181818;stroke-width:0.5;"/><text fill="#000000" font-family="sans-serif" font-size="14" lengthAdjust="spacing" textLength="29.5586" x="5" y="345.0957">User</text><ellipse cx="22.7793" cy="357.1094" fill="#E3E3E3" rx="8" ry="8" style="stroke:#181818;stroke-width:0.5;"/><path d="M22.7793,365.1094 L22.7793,392.1094 M9.7793,373.1094 L35.7793,373.1094 M22.7793,392.1094 L9.7793,407.1094 M22.7793,392.1094 L35.7793,407.1094 " fill="none" style="stroke:#181818;stroke-width:0.5;"/><rect fill="#E3E3E3" height="32.6211" rx="2.5" ry="2.5" style="stroke:#181818;stroke-width:0.5;" width="64.5654" x="659.314" y="89.6211"/><text fill="#000000" font-family="sans-serif" font-size="14" lengthAdjust="spacing" textLength="50.5654" x="666.314" y="111.7285">:System</text><rect fill="#E3E3E3" height="32.6211" rx="2.5" ry="2.5" style="stroke:#181818;stroke-width:0.5;" width="64.5654" x="659.314" y="329.9883"/><text fill="#000000" font-family="sans-serif" font-size="14" lengthAdjust="spacing" textLength="50.5654" x="666.314" y="352.0957">:System</text><rect fill="#FFFFFF" height="188.7461" style="stroke:#181818;stroke-width:1.0;" width="10" x="17.7793" y="133.2422"/><rect fill="#FFFFFF" height="31.291" style="stroke:#181818;stroke-width:1.0;" width="10" x="686.5967" y="156.5332"/><rect fill="#FFFFFF" height="31.291" style="stroke:#181818;stroke-width:1.0;" width="10" x="686.5967" y="219.1152"/><rect fill="#FFFFFF" height="31.291" style="stroke:#181818;stroke-width:1.0;" width="10" x="686.5967" y="281.6973"/><polygon fill="#181818" points="674.5967,152.5332,684.5967,156.5332,674.5967,160.5332,678.5967,156.5332" style="stroke:#181818;stroke-width:1.0;"/><line style="stroke:#181818;stroke-width:1.0;" x1="27.7793" x2="680.5967" y1="156.5332" y2="156.5332"/><text fill="#000000" font-family="sans-serif" font-size="13" font-weight="bold" lengthAdjust="spacing" textLength="7.23" x="34.7793" y="151.2705">1</text><text fill="#000000" font-family="sans-serif" font-size="13" lengthAdjust="spacing" textLength="108.3989" x="46.0093" y="151.2705">asks to edit a habit</text><polygon fill="#181818" points="38.7793,183.8242,28.7793,187.8242,38.7793,191.8242,34.7793,187.8242" style="stroke:#181818;stroke-width:1.0;"/><line style="stroke:#181818;stroke-width:1.0;stroke-dasharray:2.0,2.0;" x1="32.7793" x2="690.5967" y1="187.8242" y2="187.8242"/><text fill="#000000" font-family="sans-serif" font-size="13" font-weight="bold" lengthAdjust="spacing" textLength="7.23" x="44.7793" y="182.5615">2</text><text fill="#000000" font-family="sans-serif" font-size="13" lengthAdjust="spacing" textLength="274.5933" x="56.0093" y="182.5615">shows habit category list and asks to select one</text><polygon fill="#181818" points="674.5967,215.1152,684.5967,219.1152,674.5967,223.1152,678.5967,219.1152" style="stroke:#181818;stroke-width:1.0;"/><line style="stroke:#181818;stroke-width:1.0;" x1="27.7793" x2="680.5967" y1="219.1152" y2="219.1152"/><text fill="#000000" font-family="sans-serif" font-size="13" font-weight="bold" lengthAdjust="spacing" textLength="7.23" x="34.7793" y="213.8525">3</text><text fill="#000000" font-family="sans-serif" font-size="13" lengthAdjust="spacing" textLength="136.5762" x="46.0093" y="213.8525">selects a habit category</text><polygon fill="#181818" points="38.7793,246.4063,28.7793,250.4063,38.7793,254.4063,34.7793,250.4063" style="stroke:#181818;stroke-width:1.0;"/><line style="stroke:#181818;stroke-width:1.0;stroke-dasharray:2.0,2.0;" x1="32.7793" x2="690.5967" y1="250.4063" y2="250.4063"/><text fill="#000000" font-family="sans-serif" font-size="13" font-weight="bold" lengthAdjust="spacing" textLength="7.23" x="44.7793" y="245.1436">4</text><text fill="#000000" font-family="sans-serif" font-size="13" lengthAdjust="spacing" textLength="623.5874" x="56.0093" y="245.1436">requests data (title, description, measurement, priority, unit of measurement, start date, end date, frequency)</text><polygon fill="#181818" points="674.5967,277.6973,684.5967,281.6973,674.5967,285.6973,678.5967,281.6973" style="stroke:#181818;stroke-width:1.0;"/><line style="stroke:#181818;stroke-width:1.0;" x1="27.7793" x2="680.5967" y1="281.6973" y2="281.6973"/><text fill="#000000" font-family="sans-serif" font-size="13" font-weight="bold" lengthAdjust="spacing" textLength="7.23" x="34.7793" y="276.4346">5</text><text fill="#000000" font-family="sans-serif" font-size="13" lengthAdjust="spacing" textLength="121.418" x="46.0093" y="276.4346">types requested data</text><polygon fill="#181818" points="38.7793,308.9883,28.7793,312.9883,38.7793,316.9883,34.7793,312.9883" style="stroke:#181818;stroke-width:1.0;"/><line style="stroke:#181818;stroke-width:1.0;stroke-dasharray:2.0,2.0;" x1="32.7793" x2="690.5967" y1="312.9883" y2="312.9883"/><text fill="#000000" font-family="sans-serif" font-size="13" font-weight="bold" lengthAdjust="spacing" textLength="7.23" x="44.7793" y="307.7256">6</text><text fill="#000000" font-family="sans-serif" font-size="13" lengthAdjust="spacing" textLength="155.3589" x="56.0093" y="307.7256">displays operation success</text><!--SRC=[bL51Ri903Bpd5HOdaC87E5IgnBs7g0ym6nCiajtKTa3vVRq9HAqAIDt3obhFZ6VMUkROes07NOefd2Hr12O35RfqUWndRAYoiIKG2eQnQNy2z8Hrkd9iu8YjKb4OcqEhKOqwgEXhe1W8zenDXg-hQh-1BRotHXBH-4Bm4Ps6WwKuT0SIhuCbWTMdagm05N9H-3ZZm3r6WzLkrf-wSpcn-896Cxm0Fxc2xTlTpSxXPmLBG3KR89pmm3OX5_9DBRzDLput-jQL9iMTfqvNdUaGdDOa6Q5bTT5OBrEKMlynI9ulozJqSieVipDTxpwNGGyDlp0hUGdgGZKQmdfQKEbkD0ZtnYcMq17g8DHHj19wuIHiOmb3zB7f-Bkjvfl8MYv2ddQkZZAlUjmyoVfu8JRsf7U7D8dXV_FLh7sBeqBgIJ070Xr28DKdLhu1]--></g></svg>