<svg xmlns="http://www.w3.org/2000/svg" xmlns:xlink="http://www.w3.org/1999/xlink" contentStyleType="text/css" height="475px" preserveAspectRatio="none" style="width:488px;height:475px;background:#FFFFFF;" version="1.1" viewBox="0 0 488 475" width="488px" zoomAndPan="magnify"><defs/><g><!--entity User--><g id="elem_User"><ellipse cx="20.7793" cy="200.7627" fill="#F1F1F1" rx="8" ry="8" style="stroke:#181818;stroke-width:0.5;"/><path d="M20.7793,208.7627 L20.7793,235.7627 M7.7793,216.7627 L33.7793,216.7627 M20.7793,235.7627 L7.7793,250.7627 M20.7793,235.7627 L33.7793,250.7627 " fill="none" style="stroke:#181818;stroke-width:0.5;"/><text fill="#000000" font-family="sans-serif" font-size="14" lengthAdjust="spacing" textLength="29.5586" x="6" y="267.3701">User</text></g><g id="elem_US001"><ellipse cx="138.9579" cy="25.999" fill="#F1F1F1" rx="41.9579" ry="16.2363" style="stroke:#181818;stroke-width:0.5;"/><text fill="#000000" font-family="sans-serif" font-size="14" lengthAdjust="spacing" textLength="42.8066" x="114.741" y="30.7518">US001</text></g><g id="elem_US002"><ellipse cx="138.9579" cy="94.999" fill="#F1F1F1" rx="41.9579" ry="16.2363" style="stroke:#181818;stroke-width:0.5;"/><text fill="#000000" font-family="sans-serif" font-size="14" lengthAdjust="spacing" textLength="42.8066" x="114.741" y="99.7518">US002</text></g><g id="elem_US003"><ellipse cx="138.9579" cy="163.999" fill="#F1F1F1" rx="41.9579" ry="16.2363" style="stroke:#181818;stroke-width:0.5;"/><text fill="#000000" font-family="sans-serif" font-size="14" lengthAdjust="spacing" textLength="42.8066" x="114.741" y="168.7518">US003</text></g><g id="elem_US004"><ellipse cx="138.9579" cy="231.999" fill="#F1F1F1" rx="41.9579" ry="16.2363" style="stroke:#181818;stroke-width:0.5;"/><text fill="#000000" font-family="sans-serif" font-size="14" lengthAdjust="spacing" textLength="42.8066" x="114.741" y="236.7518">US004</text></g><g id="elem_US005"><ellipse cx="138.9579" cy="300.999" fill="#F1F1F1" rx="41.9579" ry="16.2363" style="stroke:#181818;stroke-width:0.5;"/><text fill="#000000" font-family="sans-serif" font-size="14" lengthAdjust="spacing" textLength="42.8066" x="114.741" y="305.7518">US005</text></g><g id="elem_US006"><ellipse cx="138.9579" cy="371.999" fill="#F1F1F1" rx="41.9579" ry="16.2363" style="stroke:#181818;stroke-width:0.5;"/><text fill="#000000" font-family="sans-serif" font-size="14" lengthAdjust="spacing" textLength="42.8066" x="114.741" y="376.7518">US006</text></g><g id="elem_US007"><ellipse cx="138.9579" cy="446.999" fill="#F1F1F1" rx="41.9579" ry="16.2363" style="stroke:#181818;stroke-width:0.5;"/><text fill="#000000" font-family="sans-serif" font-size="14" lengthAdjust="spacing" textLength="42.8066" x="114.741" y="451.7518">US007</text></g><g id="elem_Create a Habit"><ellipse cx="395.0558" cy="24.8739" fill="#F1F1F1" rx="73.5558" ry="17.1112" style="stroke:#181818;stroke-width:0.5;"/><text fill="#000000" font-family="sans-serif" font-size="14" lengthAdjust="spacing" textLength="90.2686" x="346.9215" y="29.6776">Create a Habit</text></g><g id="elem_Delete a Habit"><ellipse cx="395.0288" cy="93.7684" fill="#F1F1F1" rx="73.0288" ry="17.0058" style="stroke:#181818;stroke-width:0.5;"/><text fill="#000000" font-family="sans-serif" font-size="14" lengthAdjust="spacing" textLength="88.7168" x="347.6704" y="98.5722">Delete a Habit</text></g><g id="elem_Edit a Habit"><ellipse cx="394.9994" cy="162.7254" fill="#F1F1F1" rx="63.9994" ry="16.4627" style="stroke:#181818;stroke-width:0.5;"/><text fill="#000000" font-family="sans-serif" font-size="14" lengthAdjust="spacing" textLength="72.3721" x="355.8133" y="167.5291">Edit a Habit</text></g><g id="elem_Pause a Habit"><ellipse cx="394.7681" cy="231.7163" fill="#F1F1F1" rx="72.7681" ry="16.9536" style="stroke:#181818;stroke-width:0.5;"/><text fill="#000000" font-family="sans-serif" font-size="14" lengthAdjust="spacing" textLength="87.9443" x="347.796" y="236.52">Pause a Habit</text></g><g id="elem_Complete a Habit"><ellipse cx="394.9391" cy="302.6505" fill="#F1F1F1" rx="79.9391" ry="18.3878" style="stroke:#181818;stroke-width:0.5;"/><text fill="#000000" font-family="sans-serif" font-size="14" lengthAdjust="spacing" textLength="108.165" x="337.8566" y="307.4542">Complete a Habit</text></g><g id="elem_Create a Database"><ellipse cx="394.9692" cy="375.8565" fill="#F1F1F1" rx="83.4692" ry="19.0938" style="stroke:#181818;stroke-width:0.5;"/><text fill="#000000" font-family="sans-serif" font-size="14" lengthAdjust="spacing" textLength="117.5166" x="333.2109" y="380.6603">Create a Database</text></g><g id="elem_View Habit Progress"><ellipse cx="395.095" cy="449.5817" fill="#F1F1F1" rx="87.095" ry="19.819" style="stroke:#181818;stroke-width:0.5;"/><text fill="#000000" font-family="sans-serif" font-size="14" lengthAdjust="spacing" textLength="126.8271" x="328.6814" y="454.3854">View Habit Progress</text></g><!--link User to US001--><g id="link_User_US001"><path d="M33.71,192.1027 C45.73,155.6327 66.95,101.2327 97,60.7627 C102.8,52.9527 105.9798,49.4571 113.2598,43.6171 " fill="none" id="User-to-US001" style="stroke:#181818;stroke-width:1.0;"/><polygon fill="#181818" points="117.94,39.8627,108.4168,42.3742,114.0398,42.9914,113.4227,48.6145,117.94,39.8627" style="stroke:#181818;stroke-width:1.0;"/></g><!--link User to US002--><g id="link_User_US002"><path d="M36.16,209.5427 C50.32,188.0927 73.35,155.1927 97,129.7627 C103.76,122.5027 107.3256,119.0756 114.5956,113.0656 " fill="none" id="User-to-US002" style="stroke:#181818;stroke-width:1.0;"/><polygon fill="#181818" points="119.22,109.2427,109.7348,111.8942,115.3663,112.4285,114.832,118.06,119.22,109.2427" style="stroke:#181818;stroke-width:1.0;"/></g><!--link User to US003--><g id="link_User_US003"><path d="M36.26,223.3127 C44.86,218.2127 56.05,211.6027 66,205.7627 C82.47,196.0927 95.9139,188.24 110.0939,179.99 " fill="none" id="User-to-US003" style="stroke:#181818;stroke-width:1.0;"/><polygon fill="#181818" points="115.28,176.9727,105.4893,178.0413,110.9582,179.4871,109.5124,184.9561,115.28,176.9727" style="stroke:#181818;stroke-width:1.0;"/></g><!--link User to US004--><g id="link_User_US004"><path d="M36.22,231.7627 C51.29,231.7627 69.77,231.7627 90.95,231.7627 " fill="none" id="User-to-US004" style="stroke:#181818;stroke-width:1.0;"/><polygon fill="#181818" points="96.95,231.7627,87.95,227.7627,91.95,231.7627,87.95,235.7627,96.95,231.7627" style="stroke:#181818;stroke-width:1.0;"/></g><!--link User to US005--><g id="link_User_US005"><path d="M36.22,240.2227 C55.95,251.9527 86.6529,270.2261 110.1129,284.1761 " fill="none" id="User-to-US005" style="stroke:#181818;stroke-width:1.0;"/><polygon fill="#181818" points="115.27,287.2427,109.5787,279.2047,110.9724,284.6872,105.4899,286.0809,115.27,287.2427" style="stroke:#181818;stroke-width:1.0;"/></g><!--link User to US006--><g id="link_User_US006"><path d="M36.12,253.3627 C50.43,274.6527 73.73,307.6927 97,333.7627 C104.37,342.0127 108.8214,346.46 116.4714,353.28 " fill="none" id="User-to-US006" style="stroke:#181818;stroke-width:1.0;"/><polygon fill="#181818" points="120.95,357.2727,116.8939,348.2979,117.2178,353.9454,111.5702,354.2694,120.95,357.2727" style="stroke:#181818;stroke-width:1.0;"/></g><!--link User to US007--><g id="link_User_US007"><path d="M34.32,271.5827 C46.78,308.3327 68.28,363.4327 97,405.7627 C103.56,415.4227 108.181,420.6832 116.101,427.9932 " fill="none" id="User-to-US007" style="stroke:#181818;stroke-width:1.0;"/><polygon fill="#181818" points="120.51,432.0627,116.6094,423.0192,116.8358,428.6715,111.1835,428.8979,120.51,432.0627" style="stroke:#181818;stroke-width:1.0;"/></g><!--link US001 to Create a Habit--><g id="link_US001_Create a Habit"><path d="M181.09,25.6027 C218.93,25.4527 269.92,25.2451 315.42,25.0751 " fill="none" id="US001-to-Create a Habit" style="stroke:#181818;stroke-width:1.0;"/><polygon fill="#181818" points="321.42,25.0527,312.4051,21.0863,316.42,25.0714,312.435,29.0863,321.42,25.0527" style="stroke:#181818;stroke-width:1.0;"/><text fill="#000000" font-family="sans-serif" font-size="13" lengthAdjust="spacing" textLength="65.0254" x="212" y="21.791">Description</text></g><!--link US002 to Delete a Habit--><g id="link_US002_Delete a Habit"><path d="M181.09,94.6027 C219.07,94.4527 270.35,94.2464 315.93,94.0664 " fill="none" id="US002-to-Delete a Habit" style="stroke:#181818;stroke-width:1.0;"/><polygon fill="#181818" points="321.93,94.0427,312.9143,90.0783,316.93,94.0624,312.9459,98.0782,321.93,94.0427" style="stroke:#181818;stroke-width:1.0;"/><text fill="#000000" font-family="sans-serif" font-size="13" lengthAdjust="spacing" textLength="65.0254" x="212" y="90.791">Description</text></g><!--link US003 to Edit a Habit--><g id="link_US003_Edit a Habit"><path d="M181.09,163.6027 C221.53,163.4427 277.84,163.2158 324.62,163.0358 " fill="none" id="US003-to-Edit a Habit" style="stroke:#181818;stroke-width:1.0;"/><polygon fill="#181818" points="330.62,163.0127,321.6047,159.0474,325.62,163.0319,321.6355,167.0473,330.62,163.0127" style="stroke:#181818;stroke-width:1.0;"/><text fill="#000000" font-family="sans-serif" font-size="13" lengthAdjust="spacing" textLength="65.0254" x="212" y="159.791">Description</text></g><!--link US004 to Pause a Habit--><g id="link_US004_Pause a Habit"><path d="M181.09,231.7627 C219.07,231.7627 270.35,231.7627 315.93,231.7627 " fill="none" id="US004-to-Pause a Habit" style="stroke:#181818;stroke-width:1.0;"/><polygon fill="#181818" points="321.93,231.7627,312.93,227.7627,316.93,231.7627,312.93,235.7627,321.93,231.7627" style="stroke:#181818;stroke-width:1.0;"/><text fill="#000000" font-family="sans-serif" font-size="13" lengthAdjust="spacing" textLength="65.0254" x="212" y="227.791">Description</text></g><!--link US005 to Complete a Habit--><g id="link_US005_Complete a Habit"><path d="M181.09,301.0827 C217.18,301.3727 264.6802,301.7453 309.0202,302.0953 " fill="none" id="US005-to-Complete a Habit" style="stroke:#181818;stroke-width:1.0;"/><polygon fill="#181818" points="315.02,302.1427,306.0519,298.0718,310.0202,302.1032,305.9887,306.0715,315.02,302.1427" style="stroke:#181818;stroke-width:1.0;"/><text fill="#000000" font-family="sans-serif" font-size="13" lengthAdjust="spacing" textLength="65.0254" x="212" y="297.791">Description</text></g><!--link US006 to Create a Database--><g id="link_US006_Create a Database"><path d="M181.09,372.4127 C216.26,372.9627 261.9807,373.6893 305.6407,374.3693 " fill="none" id="US006-to-Create a Database" style="stroke:#181818;stroke-width:1.0;"/><polygon fill="#181818" points="311.64,374.4627,302.7034,370.323,306.6406,374.3848,302.5788,378.3221,311.64,374.4627" style="stroke:#181818;stroke-width:1.0;"/><text fill="#000000" font-family="sans-serif" font-size="13" lengthAdjust="spacing" textLength="65.0254" x="212" y="369.791">Description</text></g><!--link US007 to View Habit Progress--><g id="link_US007_View Habit Progress"><path d="M181.09,447.2527 C215.28,447.6527 259.1104,448.1727 301.9604,448.6727 " fill="none" id="US007-to-View Habit Progress" style="stroke:#181818;stroke-width:1.0;"/><polygon fill="#181818" points="307.96,448.7427,299.0073,444.638,302.9603,448.6844,298.9139,452.6374,307.96,448.7427" style="stroke:#181818;stroke-width:1.0;"/><text fill="#000000" font-family="sans-serif" font-size="13" lengthAdjust="spacing" textLength="65.0254" x="212" y="442.791">Description</text></g><!--SRC=[XO-x2i9044Nx_OefJH68vWKMDaQm34Zi9yce2z4DioF-lcZMPf2acU9mkFVEG1S1SS3sUXFeBLCdrZqCTk8O6azipET27EzWrPoIP1qfiD4WrI3J8DUWqA2CZ0br4zmpeH0W7B6r4i4MAl8Ts_4xDmoPr8e6Mb3Je1vwAxDY5iGQdtu-ClyDTVTniR_GNrKesAAdltOPxBEbrnGADRiha_VAVmC0]--></g></svg>