<svg xmlns="http://www.w3.org/2000/svg" xmlns:xlink="http://www.w3.org/1999/xlink" contentStyleType="text/css" height="1168px" preserveAspectRatio="none" style="width:876px;height:1168px;background:#FFFFFF;" version="1.1" viewBox="0 0 876 1168" width="876px" zoomAndPan="magnify"><defs/><g><rect fill="#FFFFFF" height="973.3418" style="stroke:#181818;stroke-width:1.0;" width="10" x="17.7793" y="93.6211"/><rect fill="#FFFFFF" height="423.3945" style="stroke:#181818;stroke-width:1.0;" width="10" x="225.5981" y="116.9121"/><rect fill="#FFFFFF" height="504.3652" style="stroke:#181818;stroke-width:1.0;" width="10" x="225.5981" y="571.5977"/><rect fill="#FFFFFF" height="281.2793" style="stroke:#181818;stroke-width:1.0;" width="10" x="380.5552" y="210.4453"/><rect fill="#FFFFFF" height="432.7832" style="stroke:#181818;stroke-width:1.0;" width="10" x="380.5552" y="602.8887"/><rect fill="#FFFFFF" height="230.0371" style="stroke:#181818;stroke-width:1.0;" width="10" x="385.5552" y="642.1797"/><rect fill="#FFFFFF" height="156.4551" style="stroke:#181818;stroke-width:1.0;" width="10" x="555.1377" y="303.9785"/><rect fill="#FFFFFF" height="156.4551" style="stroke:#181818;stroke-width:1.0;" width="10" x="555.1377" y="678.4707"/><rect fill="#FFFFFF" height="93.873" style="stroke:#181818;stroke-width:1.0;" width="10" x="555.1377" y="910.5078"/><rect fill="#FFFFFF" height="31.291" style="stroke:#181818;stroke-width:1.0;" width="10" x="700.5337" y="335.2695"/><rect fill="#FFFFFF" height="31.291" style="stroke:#181818;stroke-width:1.0;" width="10" x="700.5337" y="709.7617"/><rect fill="#FFFFFF" height="31.291" style="stroke:#181818;stroke-width:1.0;" width="10" x="826.8574" y="397.8516"/><rect fill="#FFFFFF" height="31.291" style="stroke:#181818;stroke-width:1.0;" width="10" x="826.8574" y="772.3438"/><rect fill="#FFFFFF" height="31.291" style="stroke:#181818;stroke-width:1.0;" width="10" x="826.8574" y="941.7988"/><line style="stroke:#181818;stroke-width:0.5;stroke-dasharray:5.0,5.0;" x1="22" x2="22" y1="83.6211" y2="1084.9629"/><line style="stroke:#181818;stroke-width:0.5;stroke-dasharray:5.0,5.0;" x1="230.0674" x2="230.0674" y1="83.6211" y2="1084.9629"/><line style="stroke:#181818;stroke-width:0.5;stroke-dasharray:5.0,5.0;" x1="384.959" x2="384.959" y1="166.0332" y2="1084.9629"/><line style="stroke:#181818;stroke-width:0.5;stroke-dasharray:5.0,5.0;" x1="559.5552" x2="559.5552" y1="259.5664" y2="1084.9629"/><line style="stroke:#181818;stroke-width:0.5;stroke-dasharray:5.0,5.0;" x1="704.7202" x2="704.7202" y1="83.6211" y2="1084.9629"/><line style="stroke:#181818;stroke-width:0.5;stroke-dasharray:5.0,5.0;" x1="831.3472" x2="831.3472" y1="83.6211" y2="1084.9629"/><text fill="#000000" font-family="sans-serif" font-size="14" lengthAdjust="spacing" textLength="29.5586" x="5" y="80.1074">User</text><ellipse cx="22.7793" cy="13.5" fill="#E3E3E3" rx="8" ry="8" style="stroke:#181818;stroke-width:0.5;"/><path d="M22.7793,21.5 L22.7793,48.5 M9.7793,29.5 L35.7793,29.5 M22.7793,48.5 L9.7793,63.5 M22.7793,48.5 L35.7793,63.5 " fill="none" style="stroke:#181818;stroke-width:0.5;"/><text fill="#000000" font-family="sans-serif" font-size="14" lengthAdjust="spacing" textLength="29.5586" x="5" y="1099.0703">User</text><ellipse cx="22.7793" cy="1111.084" fill="#E3E3E3" rx="8" ry="8" style="stroke:#181818;stroke-width:0.5;"/><path d="M22.7793,1119.084 L22.7793,1146.084 M9.7793,1127.084 L35.7793,1127.084 M22.7793,1146.084 L9.7793,1161.084 M22.7793,1146.084 L35.7793,1161.084 " fill="none" style="stroke:#181818;stroke-width:0.5;"/><rect fill="#E3E3E3" height="51.2422" rx="2.5" ry="2.5" style="stroke:#181818;stroke-width:0.5;" width="119.0615" x="171.0674" y="31.3789"/><text fill="#000000" font-family="sans-serif" font-size="14" lengthAdjust="spacing" textLength="105.0615" x="178.0674" y="53.4863">deleteHabitView:</text><text fill="#000000" font-family="sans-serif" font-size="14" lengthAdjust="spacing" textLength="103.4961" x="178.8501" y="72.1074">DeleteHabitView</text><rect fill="#E3E3E3" height="51.2422" rx="2.5" ry="2.5" style="stroke:#181818;stroke-width:0.5;" width="119.0615" x="171.0674" y="1083.9629"/><text fill="#000000" font-family="sans-serif" font-size="14" lengthAdjust="spacing" textLength="105.0615" x="178.0674" y="1106.0703">deleteHabitView:</text><text fill="#000000" font-family="sans-serif" font-size="14" lengthAdjust="spacing" textLength="103.4961" x="178.8501" y="1124.6914">DeleteHabitView</text><rect fill="#E3E3E3" height="51.2422" rx="2.5" ry="2.5" style="stroke:#181818;stroke-width:0.5;" width="157.1924" x="306.959" y="1083.9629"/><text fill="#000000" font-family="sans-serif" font-size="14" lengthAdjust="spacing" textLength="143.1924" x="313.959" y="1106.0703">deleteHabitViewModel:</text><text fill="#000000" font-family="sans-serif" font-size="14" lengthAdjust="spacing" textLength="141.627" x="314.7417" y="1124.6914">DeleteHabitViewModel</text><rect fill="#E3E3E3" height="51.2422" rx="2.5" ry="2.5" style="stroke:#181818;stroke-width:0.5;" width="115.165" x="502.5552" y="1083.9629"/><text fill="#000000" font-family="sans-serif" font-size="14" lengthAdjust="spacing" textLength="101.165" x="509.5552" y="1106.0703">habitRepository:</text><text fill="#000000" font-family="sans-serif" font-size="14" lengthAdjust="spacing" textLength="99.5996" x="510.3379" y="1124.6914">HabitRepository</text><rect fill="#E3E3E3" height="51.2422" rx="2.5" ry="2.5" style="stroke:#181818;stroke-width:0.5;" width="155.627" x="627.7202" y="31.3789"/><text fill="#000000" font-family="sans-serif" font-size="14" lengthAdjust="spacing" textLength="141.627" x="634.7202" y="53.4863">habitTrackerDatabase:</text><text fill="#000000" font-family="sans-serif" font-size="14" lengthAdjust="spacing" textLength="140.0615" x="635.5029" y="72.1074">HabitTrackerDatabase</text><rect fill="#E3E3E3" height="51.2422" rx="2.5" ry="2.5" style="stroke:#181818;stroke-width:0.5;" width="155.627" x="627.7202" y="1083.9629"/><text fill="#000000" font-family="sans-serif" font-size="14" lengthAdjust="spacing" textLength="141.627" x="634.7202" y="1106.0703">habitTrackerDatabase:</text><text fill="#000000" font-family="sans-serif" font-size="14" lengthAdjust="spacing" textLength="140.0615" x="635.5029" y="1124.6914">HabitTrackerDatabase</text><rect fill="#E3E3E3" height="32.6211" rx="2.5" ry="2.5" style="stroke:#181818;stroke-width:0.5;" width="77.0205" x="793.3472" y="50"/><text fill="#000000" font-family="sans-serif" font-size="14" lengthAdjust="spacing" textLength="63.0205" x="800.3472" y="72.1074">HabitDAO</text><rect fill="#E3E3E3" height="32.6211" rx="2.5" ry="2.5" style="stroke:#181818;stroke-width:0.5;" width="77.0205" x="793.3472" y="1083.9629"/><text fill="#000000" font-family="sans-serif" font-size="14" lengthAdjust="spacing" textLength="63.0205" x="800.3472" y="1106.0703">HabitDAO</text><rect fill="#FFFFFF" height="973.3418" style="stroke:#181818;stroke-width:1.0;" width="10" x="17.7793" y="93.6211"/><rect fill="#FFFFFF" height="423.3945" style="stroke:#181818;stroke-width:1.0;" width="10" x="225.5981" y="116.9121"/><rect fill="#FFFFFF" height="504.3652" style="stroke:#181818;stroke-width:1.0;" width="10" x="225.5981" y="571.5977"/><rect fill="#FFFFFF" height="281.2793" style="stroke:#181818;stroke-width:1.0;" width="10" x="380.5552" y="210.4453"/><rect fill="#FFFFFF" height="432.7832" style="stroke:#181818;stroke-width:1.0;" width="10" x="380.5552" y="602.8887"/><rect fill="#FFFFFF" height="230.0371" style="stroke:#181818;stroke-width:1.0;" width="10" x="385.5552" y="642.1797"/><rect fill="#FFFFFF" height="156.4551" style="stroke:#181818;stroke-width:1.0;" width="10" x="555.1377" y="303.9785"/><rect fill="#FFFFFF" height="156.4551" style="stroke:#181818;stroke-width:1.0;" width="10" x="555.1377" y="678.4707"/><rect fill="#FFFFFF" height="93.873" style="stroke:#181818;stroke-width:1.0;" width="10" x="555.1377" y="910.5078"/><rect fill="#FFFFFF" height="31.291" style="stroke:#181818;stroke-width:1.0;" width="10" x="700.5337" y="335.2695"/><rect fill="#FFFFFF" height="31.291" style="stroke:#181818;stroke-width:1.0;" width="10" x="700.5337" y="709.7617"/><rect fill="#FFFFFF" height="31.291" style="stroke:#181818;stroke-width:1.0;" width="10" x="826.8574" y="397.8516"/><rect fill="#FFFFFF" height="31.291" style="stroke:#181818;stroke-width:1.0;" width="10" x="826.8574" y="772.3438"/><rect fill="#FFFFFF" height="31.291" style="stroke:#181818;stroke-width:1.0;" width="10" x="826.8574" y="941.7988"/><polygon fill="#181818" points="213.5981,112.9121,223.5981,116.9121,213.5981,120.9121,217.5981,116.9121" style="stroke:#181818;stroke-width:1.0;"/><line style="stroke:#181818;stroke-width:1.0;" x1="27.7793" x2="219.5981" y1="116.9121" y2="116.9121"/><text fill="#000000" font-family="sans-serif" font-size="13" font-weight="bold" lengthAdjust="spacing" textLength="7.23" x="34.7793" y="111.6494">1</text><text fill="#000000" font-family="sans-serif" font-size="13" lengthAdjust="spacing" textLength="122.8589" x="46.0093" y="111.6494">asks to delete a habit</text><polygon fill="#181818" points="294.959,144.2031,304.959,148.2031,294.959,152.2031,298.959,148.2031" style="stroke:#181818;stroke-width:1.0;"/><line style="stroke:#181818;stroke-width:1.0;" x1="235.5981" x2="300.959" y1="148.2031" y2="148.2031"/><text fill="#000000" font-family="sans-serif" font-size="13" font-weight="bold" lengthAdjust="spacing" textLength="7.23" x="242.5981" y="142.9404">2</text><text fill="#000000" font-family="sans-serif" font-size="13" lengthAdjust="spacing" textLength="36.1309" x="253.8281" y="142.9404">create</text><rect fill="#E3E3E3" height="51.2422" rx="2.5" ry="2.5" style="stroke:#181818;stroke-width:0.5;" width="157.1924" x="306.959" y="124.9121"/><text fill="#000000" font-family="sans-serif" font-size="14" lengthAdjust="spacing" textLength="143.1924" x="313.959" y="147.0195">deleteHabitViewModel:</text><text fill="#000000" font-family="sans-serif" font-size="14" lengthAdjust="spacing" textLength="141.627" x="314.7417" y="165.6406">DeleteHabitViewModel</text><polygon fill="#181818" points="368.5552,206.4453,378.5552,210.4453,368.5552,214.4453,372.5552,210.4453" style="stroke:#181818;stroke-width:1.0;"/><line style="stroke:#181818;stroke-width:1.0;" x1="235.5981" x2="374.5552" y1="210.4453" y2="210.4453"/><text fill="#000000" font-family="sans-serif" font-size="13" font-weight="bold" lengthAdjust="spacing" textLength="7.23" x="242.5981" y="205.1826">3</text><text fill="#000000" font-family="sans-serif" font-size="13" lengthAdjust="spacing" textLength="75.8418" x="253.8281" y="205.1826">listAllHabits()</text><polygon fill="#181818" points="490.5552,237.7363,500.5552,241.7363,490.5552,245.7363,494.5552,241.7363" style="stroke:#181818;stroke-width:1.0;"/><line style="stroke:#181818;stroke-width:1.0;" x1="390.5552" x2="496.5552" y1="241.7363" y2="241.7363"/><text fill="#000000" font-family="sans-serif" font-size="13" font-weight="bold" lengthAdjust="spacing" textLength="7.23" x="397.5552" y="236.4736">4</text><text fill="#000000" font-family="sans-serif" font-size="13" lengthAdjust="spacing" textLength="36.1309" x="408.7852" y="236.4736">create</text><rect fill="#E3E3E3" height="51.2422" rx="2.5" ry="2.5" style="stroke:#181818;stroke-width:0.5;" width="115.165" x="502.5552" y="218.4453"/><text fill="#000000" font-family="sans-serif" font-size="14" lengthAdjust="spacing" textLength="101.165" x="509.5552" y="240.5527">habitRepository:</text><text fill="#000000" font-family="sans-serif" font-size="14" lengthAdjust="spacing" textLength="99.5996" x="510.3379" y="259.1738">HabitRepository</text><polygon fill="#181818" points="543.1377,299.9785,553.1377,303.9785,543.1377,307.9785,547.1377,303.9785" style="stroke:#181818;stroke-width:1.0;"/><line style="stroke:#181818;stroke-width:1.0;" x1="390.5552" x2="549.1377" y1="303.9785" y2="303.9785"/><text fill="#000000" font-family="sans-serif" font-size="13" font-weight="bold" lengthAdjust="spacing" textLength="7.23" x="397.5552" y="298.7158">5</text><text fill="#000000" font-family="sans-serif" font-size="13" lengthAdjust="spacing" textLength="75.8418" x="408.7852" y="298.7158">listAllHabits()</text><polygon fill="#181818" points="688.5337,331.2695,698.5337,335.2695,688.5337,339.2695,692.5337,335.2695" style="stroke:#181818;stroke-width:1.0;"/><line style="stroke:#181818;stroke-width:1.0;" x1="565.1377" x2="694.5337" y1="335.2695" y2="335.2695"/><text fill="#000000" font-family="sans-serif" font-size="13" font-weight="bold" lengthAdjust="spacing" textLength="7.23" x="572.1377" y="330.0068">6</text><text fill="#000000" font-family="sans-serif" font-size="13" lengthAdjust="spacing" textLength="65.019" x="583.3677" y="330.0068">habitDAO()</text><polygon fill="#181818" points="576.1377,362.5605,566.1377,366.5605,576.1377,370.5605,572.1377,366.5605" style="stroke:#181818;stroke-width:1.0;"/><line style="stroke:#181818;stroke-width:1.0;stroke-dasharray:2.0,2.0;" x1="570.1377" x2="704.5337" y1="366.5605" y2="366.5605"/><text fill="#000000" font-family="sans-serif" font-size="13" font-weight="bold" lengthAdjust="spacing" textLength="7.23" x="582.1377" y="361.2979">7</text><text fill="#000000" font-family="sans-serif" font-size="13" lengthAdjust="spacing" textLength="56.3608" x="593.3677" y="361.2979">habitDAO</text><polygon fill="#181818" points="814.8574,393.8516,824.8574,397.8516,814.8574,401.8516,818.8574,397.8516" style="stroke:#181818;stroke-width:1.0;"/><line style="stroke:#181818;stroke-width:1.0;" x1="565.1377" x2="820.8574" y1="397.8516" y2="397.8516"/><text fill="#000000" font-family="sans-serif" font-size="13" font-weight="bold" lengthAdjust="spacing" textLength="7.23" x="572.1377" y="392.5889">8</text><text fill="#000000" font-family="sans-serif" font-size="13" lengthAdjust="spacing" textLength="75.8418" x="583.3677" y="392.5889">listAllHabits()</text><polygon fill="#181818" points="576.1377,425.1426,566.1377,429.1426,576.1377,433.1426,572.1377,429.1426" style="stroke:#181818;stroke-width:1.0;"/><line style="stroke:#181818;stroke-width:1.0;stroke-dasharray:2.0,2.0;" x1="570.1377" x2="830.8574" y1="429.1426" y2="429.1426"/><text fill="#000000" font-family="sans-serif" font-size="13" font-weight="bold" lengthAdjust="spacing" textLength="7.23" x="582.1377" y="423.8799">9</text><text fill="#000000" font-family="sans-serif" font-size="13" lengthAdjust="spacing" textLength="48.4199" x="593.3677" y="423.8799">habitList</text><polygon fill="#181818" points="401.5552,456.4336,391.5552,460.4336,401.5552,464.4336,397.5552,460.4336" style="stroke:#181818;stroke-width:1.0;"/><line style="stroke:#181818;stroke-width:1.0;stroke-dasharray:2.0,2.0;" x1="395.5552" x2="559.1377" y1="460.4336" y2="460.4336"/><text fill="#000000" font-family="sans-serif" font-size="13" font-weight="bold" lengthAdjust="spacing" textLength="14.46" x="407.5552" y="455.1709">10</text><text fill="#000000" font-family="sans-serif" font-size="13" lengthAdjust="spacing" textLength="48.4199" x="426.0151" y="455.1709">habitList</text><polygon fill="#181818" points="246.5981,487.7246,236.5981,491.7246,246.5981,495.7246,242.5981,491.7246" style="stroke:#181818;stroke-width:1.0;"/><line style="stroke:#181818;stroke-width:1.0;stroke-dasharray:2.0,2.0;" x1="240.5981" x2="384.5552" y1="491.7246" y2="491.7246"/><text fill="#000000" font-family="sans-serif" font-size="13" font-weight="bold" lengthAdjust="spacing" textLength="14.46" x="252.5981" y="486.4619">11</text><text fill="#000000" font-family="sans-serif" font-size="13" lengthAdjust="spacing" textLength="48.4199" x="271.0581" y="486.4619">habitList</text><polygon fill="#181818" points="38.7793,536.3066,28.7793,540.3066,38.7793,544.3066,34.7793,540.3066" style="stroke:#181818;stroke-width:1.0;"/><line style="stroke:#181818;stroke-width:1.0;stroke-dasharray:2.0,2.0;" x1="32.7793" x2="229.5981" y1="540.3066" y2="540.3066"/><text fill="#000000" font-family="sans-serif" font-size="13" font-weight="bold" lengthAdjust="spacing" textLength="14.46" x="44.7793" y="526.3984">12</text><text fill="#000000" font-family="sans-serif" font-size="13" lengthAdjust="spacing" textLength="91.7681" x="63.2393" y="517.7529">display habit list</text><text fill="#000000" font-family="sans-serif" font-size="13" lengthAdjust="spacing" textLength="129.3589" x="66.8511" y="535.0439">and asks to select one</text><polygon fill="#181818" points="213.5981,567.5977,223.5981,571.5977,213.5981,575.5977,217.5981,571.5977" style="stroke:#181818;stroke-width:1.0;"/><line style="stroke:#181818;stroke-width:1.0;" x1="27.7793" x2="219.5981" y1="571.5977" y2="571.5977"/><text fill="#000000" font-family="sans-serif" font-size="13" font-weight="bold" lengthAdjust="spacing" textLength="14.46" x="34.7793" y="566.335">13</text><text fill="#000000" font-family="sans-serif" font-size="13" lengthAdjust="spacing" textLength="83.1035" x="53.2393" y="566.335">selects a habit</text><polygon fill="#181818" points="368.5552,598.8887,378.5552,602.8887,368.5552,606.8887,372.5552,602.8887" style="stroke:#181818;stroke-width:1.0;"/><line style="stroke:#181818;stroke-width:1.0;" x1="235.5981" x2="374.5552" y1="602.8887" y2="602.8887"/><text fill="#000000" font-family="sans-serif" font-size="13" font-weight="bold" lengthAdjust="spacing" textLength="14.46" x="242.5981" y="597.626">14</text><text fill="#000000" font-family="sans-serif" font-size="13" lengthAdjust="spacing" textLength="74.4263" x="261.0581" y="597.626">deleteHabit()</text><line style="stroke:#181818;stroke-width:1.0;" x1="390.5552" x2="437.5552" y1="629.1797" y2="629.1797"/><line style="stroke:#181818;stroke-width:1.0;" x1="437.5552" x2="437.5552" y1="629.1797" y2="642.1797"/><line style="stroke:#181818;stroke-width:1.0;" x1="396.5552" x2="437.5552" y1="642.1797" y2="642.1797"/><polygon fill="#181818" points="406.5552,638.1797,396.5552,642.1797,406.5552,646.1797,402.5552,642.1797" style="stroke:#181818;stroke-width:1.0;"/><text fill="#000000" font-family="sans-serif" font-size="13" font-weight="bold" lengthAdjust="spacing" textLength="14.46" x="402.5552" y="623.917">15</text><text fill="#000000" font-family="sans-serif" font-size="13" lengthAdjust="spacing" textLength="122.1226" x="421.0151" y="623.917">getHabitById(habitId)</text><polygon fill="#181818" points="543.1377,674.4707,553.1377,678.4707,543.1377,682.4707,547.1377,678.4707" style="stroke:#181818;stroke-width:1.0;"/><line style="stroke:#181818;stroke-width:1.0;" x1="395.5552" x2="549.1377" y1="678.4707" y2="678.4707"/><text fill="#000000" font-family="sans-serif" font-size="13" font-weight="bold" lengthAdjust="spacing" textLength="14.46" x="402.5552" y="673.208">16</text><text fill="#000000" font-family="sans-serif" font-size="13" lengthAdjust="spacing" textLength="85.979" x="421.0151" y="673.208">findHabitById()</text><polygon fill="#181818" points="688.5337,705.7617,698.5337,709.7617,688.5337,713.7617,692.5337,709.7617" style="stroke:#181818;stroke-width:1.0;"/><line style="stroke:#181818;stroke-width:1.0;" x1="565.1377" x2="694.5337" y1="709.7617" y2="709.7617"/><text fill="#000000" font-family="sans-serif" font-size="13" font-weight="bold" lengthAdjust="spacing" textLength="14.46" x="572.1377" y="704.499">17</text><text fill="#000000" font-family="sans-serif" font-size="13" lengthAdjust="spacing" textLength="65.019" x="590.5977" y="704.499">habitDAO()</text><polygon fill="#181818" points="576.1377,737.0527,566.1377,741.0527,576.1377,745.0527,572.1377,741.0527" style="stroke:#181818;stroke-width:1.0;"/><line style="stroke:#181818;stroke-width:1.0;stroke-dasharray:2.0,2.0;" x1="570.1377" x2="704.5337" y1="741.0527" y2="741.0527"/><text fill="#000000" font-family="sans-serif" font-size="13" font-weight="bold" lengthAdjust="spacing" textLength="14.46" x="582.1377" y="735.79">18</text><text fill="#000000" font-family="sans-serif" font-size="13" lengthAdjust="spacing" textLength="56.3608" x="600.5977" y="735.79">habitDAO</text><polygon fill="#181818" points="814.8574,768.3438,824.8574,772.3438,814.8574,776.3438,818.8574,772.3438" style="stroke:#181818;stroke-width:1.0;"/><line style="stroke:#181818;stroke-width:1.0;" x1="565.1377" x2="820.8574" y1="772.3438" y2="772.3438"/><text fill="#000000" font-family="sans-serif" font-size="13" font-weight="bold" lengthAdjust="spacing" textLength="14.46" x="572.1377" y="767.0811">19</text><text fill="#000000" font-family="sans-serif" font-size="13" lengthAdjust="spacing" textLength="85.979" x="590.5977" y="767.0811">findHabitById()</text><polygon fill="#181818" points="576.1377,799.6348,566.1377,803.6348,576.1377,807.6348,572.1377,803.6348" style="stroke:#181818;stroke-width:1.0;"/><line style="stroke:#181818;stroke-width:1.0;stroke-dasharray:2.0,2.0;" x1="570.1377" x2="830.8574" y1="803.6348" y2="803.6348"/><text fill="#000000" font-family="sans-serif" font-size="13" font-weight="bold" lengthAdjust="spacing" textLength="14.46" x="582.1377" y="798.3721">20</text><text fill="#000000" font-family="sans-serif" font-size="13" lengthAdjust="spacing" textLength="28.1899" x="600.5977" y="798.3721">habit</text><polygon fill="#181818" points="406.5552,830.9258,396.5552,834.9258,406.5552,838.9258,402.5552,834.9258" style="stroke:#181818;stroke-width:1.0;"/><line style="stroke:#181818;stroke-width:1.0;stroke-dasharray:2.0,2.0;" x1="400.5552" x2="559.1377" y1="834.9258" y2="834.9258"/><text fill="#000000" font-family="sans-serif" font-size="13" font-weight="bold" lengthAdjust="spacing" textLength="14.46" x="412.5552" y="829.6631">21</text><text fill="#000000" font-family="sans-serif" font-size="13" lengthAdjust="spacing" textLength="28.1899" x="431.0151" y="829.6631">habit</text><line style="stroke:#181818;stroke-width:1.0;stroke-dasharray:2.0,2.0;" x1="395.5552" x2="437.5552" y1="871.2168" y2="871.2168"/><line style="stroke:#181818;stroke-width:1.0;stroke-dasharray:2.0,2.0;" x1="437.5552" x2="437.5552" y1="871.2168" y2="884.2168"/><line style="stroke:#181818;stroke-width:1.0;stroke-dasharray:2.0,2.0;" x1="390.5552" x2="437.5552" y1="884.2168" y2="884.2168"/><polygon fill="#181818" points="400.5552,880.2168,390.5552,884.2168,400.5552,888.2168,396.5552,884.2168" style="stroke:#181818;stroke-width:1.0;"/><text fill="#000000" font-family="sans-serif" font-size="13" font-weight="bold" lengthAdjust="spacing" textLength="14.46" x="402.5552" y="865.9541">22</text><text fill="#000000" font-family="sans-serif" font-size="13" lengthAdjust="spacing" textLength="28.1899" x="421.0151" y="865.9541">habit</text><polygon fill="#181818" points="543.1377,906.5078,553.1377,910.5078,543.1377,914.5078,547.1377,910.5078" style="stroke:#181818;stroke-width:1.0;"/><line style="stroke:#181818;stroke-width:1.0;" x1="390.5552" x2="549.1377" y1="910.5078" y2="910.5078"/><text fill="#000000" font-family="sans-serif" font-size="13" font-weight="bold" lengthAdjust="spacing" textLength="14.46" x="397.5552" y="905.2451">23</text><text fill="#000000" font-family="sans-serif" font-size="13" lengthAdjust="spacing" textLength="102.6162" x="416.0151" y="905.2451">deleteHabit(habit)</text><polygon fill="#181818" points="814.8574,937.7988,824.8574,941.7988,814.8574,945.7988,818.8574,941.7988" style="stroke:#181818;stroke-width:1.0;"/><line style="stroke:#181818;stroke-width:1.0;" x1="565.1377" x2="820.8574" y1="941.7988" y2="941.7988"/><text fill="#000000" font-family="sans-serif" font-size="13" font-weight="bold" lengthAdjust="spacing" textLength="14.46" x="572.1377" y="936.5361">24</text><text fill="#000000" font-family="sans-serif" font-size="13" lengthAdjust="spacing" textLength="106.228" x="590.5977" y="936.5361">deleteHabit (habit)</text><polygon fill="#181818" points="576.1377,969.0898,566.1377,973.0898,576.1377,977.0898,572.1377,973.0898" style="stroke:#181818;stroke-width:1.0;"/><line style="stroke:#181818;stroke-width:1.0;stroke-dasharray:2.0,2.0;" x1="570.1377" x2="830.8574" y1="973.0898" y2="973.0898"/><text fill="#000000" font-family="sans-serif" font-size="13" font-weight="bold" lengthAdjust="spacing" textLength="14.46" x="582.1377" y="967.8271">25</text><text fill="#000000" font-family="sans-serif" font-size="13" lengthAdjust="spacing" textLength="3.6118" x="600.5977" y="967.8271">&#160;</text><polygon fill="#181818" points="401.5552,1000.3809,391.5552,1004.3809,401.5552,1008.3809,397.5552,1004.3809" style="stroke:#181818;stroke-width:1.0;"/><line style="stroke:#181818;stroke-width:1.0;stroke-dasharray:2.0,2.0;" x1="395.5552" x2="559.1377" y1="1004.3809" y2="1004.3809"/><text fill="#000000" font-family="sans-serif" font-size="13" font-weight="bold" lengthAdjust="spacing" textLength="14.46" x="407.5552" y="999.1182">26</text><text fill="#000000" font-family="sans-serif" font-size="13" lengthAdjust="spacing" textLength="3.6118" x="426.0151" y="999.1182">&#160;</text><polygon fill="#181818" points="246.5981,1031.6719,236.5981,1035.6719,246.5981,1039.6719,242.5981,1035.6719" style="stroke:#181818;stroke-width:1.0;"/><line style="stroke:#181818;stroke-width:1.0;stroke-dasharray:2.0,2.0;" x1="240.5981" x2="384.5552" y1="1035.6719" y2="1035.6719"/><text fill="#000000" font-family="sans-serif" font-size="13" font-weight="bold" lengthAdjust="spacing" textLength="14.46" x="252.5981" y="1030.4092">27</text><text fill="#000000" font-family="sans-serif" font-size="13" lengthAdjust="spacing" textLength="62.8672" x="271.0581" y="1030.4092">habitName</text><polygon fill="#181818" points="33.7793,1062.9629,23.7793,1066.9629,33.7793,1070.9629,29.7793,1066.9629" style="stroke:#181818;stroke-width:1.0;"/><line style="stroke:#181818;stroke-width:1.0;stroke-dasharray:2.0,2.0;" x1="27.7793" x2="224.5981" y1="1066.9629" y2="1066.9629"/><text fill="#000000" font-family="sans-serif" font-size="13" font-weight="bold" lengthAdjust="spacing" textLength="14.46" x="39.7793" y="1061.7002">28</text><text fill="#000000" font-family="sans-serif" font-size="13" lengthAdjust="spacing" textLength="155.3589" x="58.2393" y="1061.7002">displays operation success</text><!--SRC=[xLR9Rjim4BtpAmO-fG7o0puKIE530dG1kfro6KiJcx142YJTm7_VqIXQg3s1UojF4ZNptcnl87_Ifa27EUJMsEJeR4uGt9cKRxuKc9pmG3_29IDmb0GqXwnhu8-OsXTj3l2CcIUby1oiEUTxSloS1EjWyykJsoYs3phH1Pe0cvGo2lI0Unr-QthPFfbTVBC1z50-pFfziNmnT9Rh1a7UOfXZQVcT2kirHtXXX8VuHfnxToCGFntNXzmE0-xHKutJknQm-YL64VFT_RUMZr-aSFeF1eAoT4e1d_89xZvAHh1byvE7OA4g2218F6BPE4lvvAeyulWA82MvlMMSn16RpbYnJQPzkCyo2S_VV6Xi1sHLfQFlDMQ5nS2zeeu6iSPn8QuejduZ1vRbwUCpPTFNghhScX6MYAdfygXPUMeBk1lcrFACkwUqacWabtgubiisB9tCv5H2jSLCGf-PKIqaD4yqIAWxedCiVOQvAUYCMokqSUWExCJWLq9Y717k5bBjYmml5PxquCa0chHHicSb9m6i8JN1Che8AZV_hWrGXjLkpiueh4ck4MONxa11i3vT7jCR2UWnlUx2O99dRTAMvR_kL-f-gMpNr_s_r_oLzJu9lKxlKpCRoqpG9qIn6FDiXpiiC4RpXWxFTLUzgwMpxLHlxU6mTwzj-ufvjK2dMnQjvcOpUx05EGpQ6l3d927lLGT3_iJ-0W00]--></g></svg>