<svg xmlns="http://www.w3.org/2000/svg" xmlns:xlink="http://www.w3.org/1999/xlink" contentStyleType="text/css" height="704px" preserveAspectRatio="none" style="width:467px;height:704px;background:#FFFFFF;" version="1.1" viewBox="0 0 467 704" width="467px" zoomAndPan="magnify"><defs/><g><!--class DeleteHabitView--><g id="elem_DeleteHabitView"><rect codeLine="7" fill="#F1F1F1" height="48" id="DeleteHabitView" rx="2.5" ry="2.5" style="stroke:#181818;stroke-width:0.5;" width="135.4961" x="26.5" y="7"/><ellipse cx="41.5" cy="23" fill="#ADD1B2" rx="11" ry="11" style="stroke:#181818;stroke-width:1.0;"/><path d="M44.2656,18.875 Q44.4219,18.6563 44.6094,18.5469 Q44.7969,18.4375 45.0156,18.4375 Q45.3906,18.4375 45.625,18.7031 Q45.8594,18.9531 45.8594,19.5625 L45.8594,21.0156 Q45.8594,21.625 45.625,21.8906 Q45.3906,22.1563 45.0156,22.1563 Q44.6719,22.1563 44.4688,21.9531 Q44.2656,21.7656 44.1563,21.25 Q44.1094,20.8906 43.9219,20.7031 Q43.5938,20.3281 42.9844,20.1094 Q42.375,19.8906 41.75,19.8906 Q40.9844,19.8906 40.3438,20.2188 Q39.7188,20.5469 39.2188,21.2969 Q38.7344,22.0469 38.7344,23.0781 L38.7344,24.1719 Q38.7344,25.4063 39.625,26.2344 Q40.5156,27.0469 42.1094,27.0469 Q43.0469,27.0469 43.7031,26.7969 Q44.0938,26.6406 44.5156,26.2031 Q44.7813,25.9375 44.9219,25.8594 Q45.0781,25.7813 45.2813,25.7813 Q45.6094,25.7813 45.8594,26.0469 Q46.125,26.2969 46.125,26.6406 Q46.125,26.9844 45.7813,27.3906 Q45.2813,27.9688 44.4844,28.2969 Q43.4063,28.75 42.1094,28.75 Q40.5938,28.75 39.3906,28.125 Q38.4063,27.625 37.7188,26.5625 Q37.0313,25.4844 37.0313,24.2031 L37.0313,23.0469 Q37.0313,21.7188 37.6406,20.5781 Q38.2656,19.4219 39.3594,18.8125 Q40.4531,18.1875 41.6875,18.1875 Q42.4219,18.1875 43.0625,18.3594 Q43.7188,18.5156 44.2656,18.875 Z " fill="#000000"/><text fill="#000000" font-family="sans-serif" font-size="14" lengthAdjust="spacing" textLength="103.4961" x="55.5" y="28.7969">DeleteHabitView</text><line style="stroke:#181818;stroke-width:0.5;" x1="27.5" x2="160.9961" y1="39" y2="39"/><line style="stroke:#181818;stroke-width:0.5;" x1="27.5" x2="160.9961" y1="47" y2="47"/></g><!--class DeleteHabitViewModel--><g id="elem_DeleteHabitViewModel"><rect codeLine="10" fill="#F1F1F1" height="103.8633" id="DeleteHabitViewModel" rx="2.5" ry="2.5" style="stroke:#181818;stroke-width:0.5;" width="173.627" x="7" y="134"/><ellipse cx="22" cy="150" fill="#ADD1B2" rx="11" ry="11" style="stroke:#181818;stroke-width:1.0;"/><path d="M24.7656,145.875 Q24.9219,145.6563 25.1094,145.5469 Q25.2969,145.4375 25.5156,145.4375 Q25.8906,145.4375 26.125,145.7031 Q26.3594,145.9531 26.3594,146.5625 L26.3594,148.0156 Q26.3594,148.625 26.125,148.8906 Q25.8906,149.1563 25.5156,149.1563 Q25.1719,149.1563 24.9688,148.9531 Q24.7656,148.7656 24.6563,148.25 Q24.6094,147.8906 24.4219,147.7031 Q24.0938,147.3281 23.4844,147.1094 Q22.875,146.8906 22.25,146.8906 Q21.4844,146.8906 20.8438,147.2188 Q20.2188,147.5469 19.7188,148.2969 Q19.2344,149.0469 19.2344,150.0781 L19.2344,151.1719 Q19.2344,152.4063 20.125,153.2344 Q21.0156,154.0469 22.6094,154.0469 Q23.5469,154.0469 24.2031,153.7969 Q24.5938,153.6406 25.0156,153.2031 Q25.2813,152.9375 25.4219,152.8594 Q25.5781,152.7813 25.7813,152.7813 Q26.1094,152.7813 26.3594,153.0469 Q26.625,153.2969 26.625,153.6406 Q26.625,153.9844 26.2813,154.3906 Q25.7813,154.9688 24.9844,155.2969 Q23.9063,155.75 22.6094,155.75 Q21.0938,155.75 19.8906,155.125 Q18.9063,154.625 18.2188,153.5625 Q17.5313,152.4844 17.5313,151.2031 L17.5313,150.0469 Q17.5313,148.7188 18.1406,147.5781 Q18.7656,146.4219 19.8594,145.8125 Q20.9531,145.1875 22.1875,145.1875 Q22.9219,145.1875 23.5625,145.3594 Q24.2188,145.5156 24.7656,145.875 Z " fill="#000000"/><text fill="#000000" font-family="sans-serif" font-size="14" lengthAdjust="spacing" textLength="141.627" x="36" y="155.7969">DeleteHabitViewModel</text><line style="stroke:#181818;stroke-width:0.5;" x1="8" x2="179.627" y1="166" y2="166"/><line style="stroke:#181818;stroke-width:0.5;" x1="8" x2="179.627" y1="174" y2="174"/><text fill="#000000" font-family="sans-serif" font-size="14" lengthAdjust="spacing" textLength="88.3271" x="13" y="193.1074">+deleteHabit()</text><text fill="#000000" font-family="sans-serif" font-size="14" lengthAdjust="spacing" textLength="94.1445" x="13" y="211.7285">-getHabitById()</text><text fill="#000000" font-family="sans-serif" font-size="14" lengthAdjust="spacing" textLength="89.8516" x="13" y="230.3496">+listAllHabits()</text></g><!--class Habit--><g id="elem_Habit"><rect codeLine="16" fill="#F1F1F1" height="234.2109" id="Habit" rx="2.5" ry="2.5" style="stroke:#181818;stroke-width:0.5;" width="139.6064" x="24" y="463"/><ellipse cx="73.2119" cy="479" fill="#ADD1B2" rx="11" ry="11" style="stroke:#181818;stroke-width:1.0;"/><path d="M75.9775,474.875 Q76.1338,474.6563 76.3213,474.5469 Q76.5088,474.4375 76.7275,474.4375 Q77.1025,474.4375 77.3369,474.7031 Q77.5713,474.9531 77.5713,475.5625 L77.5713,477.0156 Q77.5713,477.625 77.3369,477.8906 Q77.1025,478.1563 76.7275,478.1563 Q76.3838,478.1563 76.1807,477.9531 Q75.9775,477.7656 75.8682,477.25 Q75.8213,476.8906 75.6338,476.7031 Q75.3057,476.3281 74.6963,476.1094 Q74.0869,475.8906 73.4619,475.8906 Q72.6963,475.8906 72.0557,476.2188 Q71.4307,476.5469 70.9307,477.2969 Q70.4463,478.0469 70.4463,479.0781 L70.4463,480.1719 Q70.4463,481.4063 71.3369,482.2344 Q72.2275,483.0469 73.8213,483.0469 Q74.7588,483.0469 75.415,482.7969 Q75.8057,482.6406 76.2275,482.2031 Q76.4932,481.9375 76.6338,481.8594 Q76.79,481.7813 76.9932,481.7813 Q77.3213,481.7813 77.5713,482.0469 Q77.8369,482.2969 77.8369,482.6406 Q77.8369,482.9844 77.4932,483.3906 Q76.9932,483.9688 76.1963,484.2969 Q75.1182,484.75 73.8213,484.75 Q72.3057,484.75 71.1025,484.125 Q70.1182,483.625 69.4307,482.5625 Q68.7432,481.4844 68.7432,480.2031 L68.7432,479.0469 Q68.7432,477.7188 69.3525,476.5781 Q69.9775,475.4219 71.0713,474.8125 Q72.165,474.1875 73.3994,474.1875 Q74.1338,474.1875 74.7744,474.3594 Q75.4307,474.5156 75.9775,474.875 Z " fill="#000000"/><text fill="#000000" font-family="sans-serif" font-size="14" lengthAdjust="spacing" textLength="32.6826" x="93.7119" y="484.7969">Habit</text><line style="stroke:#181818;stroke-width:0.5;" x1="25" x2="162.6064" y1="495" y2="495"/><text fill="#000000" font-family="sans-serif" font-size="14" lengthAdjust="spacing" textLength="15.5586" x="30" y="514.1074">-id</text><text fill="#000000" font-family="sans-serif" font-size="14" lengthAdjust="spacing" textLength="26.4482" x="30" y="532.7285">-title</text><text fill="#000000" font-family="sans-serif" font-size="14" lengthAdjust="spacing" textLength="72.3652" x="30" y="551.3496">-description</text><text fill="#000000" font-family="sans-serif" font-size="14" lengthAdjust="spacing" textLength="90.2549" x="30" y="569.9707">-measurement</text><text fill="#000000" font-family="sans-serif" font-size="14" lengthAdjust="spacing" textLength="127.6064" x="30" y="588.5918">-unitOfMeasurement</text><text fill="#000000" font-family="sans-serif" font-size="14" lengthAdjust="spacing" textLength="61.4619" x="30" y="607.2129">-startDate</text><text fill="#000000" font-family="sans-serif" font-size="14" lengthAdjust="spacing" textLength="57.5928" x="30" y="625.834">-endDate</text><text fill="#000000" font-family="sans-serif" font-size="14" lengthAdjust="spacing" textLength="66.1445" x="30" y="644.4551">-frequency</text><text fill="#000000" font-family="sans-serif" font-size="14" lengthAdjust="spacing" textLength="46.6689" x="30" y="663.0762">-priority</text><text fill="#000000" font-family="sans-serif" font-size="14" lengthAdjust="spacing" textLength="70.0342" x="30" y="681.6973">-categoryId</text><line style="stroke:#181818;stroke-width:0.5;" x1="25" x2="162.6064" y1="689.2109" y2="689.2109"/></g><!--class HabitDAO--><g id="elem_HabitDAO"><rect codeLine="29" fill="#F1F1F1" height="66.6211" id="HabitDAO" rx="2.5" ry="2.5" style="stroke:#181818;stroke-width:0.5;" width="100.3271" x="234" y="546.5"/><ellipse cx="251.388" cy="562.5" fill="#ADD1B2" rx="11" ry="11" style="stroke:#181818;stroke-width:1.0;"/><path d="M254.1536,558.375 Q254.3099,558.1563 254.4974,558.0469 Q254.6849,557.9375 254.9036,557.9375 Q255.2786,557.9375 255.513,558.2031 Q255.7474,558.4531 255.7474,559.0625 L255.7474,560.5156 Q255.7474,561.125 255.513,561.3906 Q255.2786,561.6563 254.9036,561.6563 Q254.5599,561.6563 254.3567,561.4531 Q254.1536,561.2656 254.0442,560.75 Q253.9974,560.3906 253.8099,560.2031 Q253.4817,559.8281 252.8724,559.6094 Q252.263,559.3906 251.638,559.3906 Q250.8724,559.3906 250.2317,559.7188 Q249.6067,560.0469 249.1067,560.7969 Q248.6224,561.5469 248.6224,562.5781 L248.6224,563.6719 Q248.6224,564.9063 249.513,565.7344 Q250.4036,566.5469 251.9974,566.5469 Q252.9349,566.5469 253.5911,566.2969 Q253.9817,566.1406 254.4036,565.7031 Q254.6692,565.4375 254.8099,565.3594 Q254.9661,565.2813 255.1692,565.2813 Q255.4974,565.2813 255.7474,565.5469 Q256.013,565.7969 256.013,566.1406 Q256.013,566.4844 255.6692,566.8906 Q255.1692,567.4688 254.3724,567.7969 Q253.2942,568.25 251.9974,568.25 Q250.4817,568.25 249.2786,567.625 Q248.2942,567.125 247.6067,566.0625 Q246.9192,564.9844 246.9192,563.7031 L246.9192,562.5469 Q246.9192,561.2188 247.5286,560.0781 Q248.1536,558.9219 249.2474,558.3125 Q250.3411,557.6875 251.5755,557.6875 Q252.3099,557.6875 252.9505,557.8594 Q253.6067,558.0156 254.1536,558.375 Z " fill="#000000"/><text fill="#000000" font-family="sans-serif" font-size="14" lengthAdjust="spacing" textLength="63.0205" x="265.9187" y="568.2969">HabitDAO</text><line style="stroke:#181818;stroke-width:0.5;" x1="235" x2="333.3271" y1="578.5" y2="578.5"/><line style="stroke:#181818;stroke-width:0.5;" x1="235" x2="333.3271" y1="586.5" y2="586.5"/><text fill="#000000" font-family="sans-serif" font-size="14" lengthAdjust="spacing" textLength="88.3271" x="240" y="605.6074">+deleteHabit()</text></g><!--class HabitRepository--><g id="elem_HabitRepository"><rect codeLine="34" fill="#F1F1F1" height="66.6211" id="HabitRepository" rx="2.5" ry="2.5" style="stroke:#181818;stroke-width:0.5;" width="131.5996" x="28" y="317"/><ellipse cx="43" cy="333" fill="#ADD1B2" rx="11" ry="11" style="stroke:#181818;stroke-width:1.0;"/><path d="M45.7656,328.875 Q45.9219,328.6563 46.1094,328.5469 Q46.2969,328.4375 46.5156,328.4375 Q46.8906,328.4375 47.125,328.7031 Q47.3594,328.9531 47.3594,329.5625 L47.3594,331.0156 Q47.3594,331.625 47.125,331.8906 Q46.8906,332.1563 46.5156,332.1563 Q46.1719,332.1563 45.9688,331.9531 Q45.7656,331.7656 45.6563,331.25 Q45.6094,330.8906 45.4219,330.7031 Q45.0938,330.3281 44.4844,330.1094 Q43.875,329.8906 43.25,329.8906 Q42.4844,329.8906 41.8438,330.2188 Q41.2188,330.5469 40.7188,331.2969 Q40.2344,332.0469 40.2344,333.0781 L40.2344,334.1719 Q40.2344,335.4063 41.125,336.2344 Q42.0156,337.0469 43.6094,337.0469 Q44.5469,337.0469 45.2031,336.7969 Q45.5938,336.6406 46.0156,336.2031 Q46.2813,335.9375 46.4219,335.8594 Q46.5781,335.7813 46.7813,335.7813 Q47.1094,335.7813 47.3594,336.0469 Q47.625,336.2969 47.625,336.6406 Q47.625,336.9844 47.2813,337.3906 Q46.7813,337.9688 45.9844,338.2969 Q44.9063,338.75 43.6094,338.75 Q42.0938,338.75 40.8906,338.125 Q39.9063,337.625 39.2188,336.5625 Q38.5313,335.4844 38.5313,334.2031 L38.5313,333.0469 Q38.5313,331.7188 39.1406,330.5781 Q39.7656,329.4219 40.8594,328.8125 Q41.9531,328.1875 43.1875,328.1875 Q43.9219,328.1875 44.5625,328.3594 Q45.2188,328.5156 45.7656,328.875 Z " fill="#000000"/><text fill="#000000" font-family="sans-serif" font-size="14" lengthAdjust="spacing" textLength="99.5996" x="57" y="338.7969">HabitRepository</text><line style="stroke:#181818;stroke-width:0.5;" x1="29" x2="158.5996" y1="349" y2="349"/><line style="stroke:#181818;stroke-width:0.5;" x1="29" x2="158.5996" y1="357" y2="357"/><text fill="#000000" font-family="sans-serif" font-size="14" lengthAdjust="spacing" textLength="88.3271" x="34" y="376.1074">+deleteHabit()</text></g><!--class Database--><g id="elem_Database"><rect codeLine="38" fill="#F1F1F1" height="66.6211" id="Database" rx="2.5" ry="2.5" style="stroke:#181818;stroke-width:0.5;" width="91.9307" x="273" y="317"/><ellipse cx="288" cy="333" fill="#ADD1B2" rx="11" ry="11" style="stroke:#181818;stroke-width:1.0;"/><path d="M290.7656,328.875 Q290.9219,328.6563 291.1094,328.5469 Q291.2969,328.4375 291.5156,328.4375 Q291.8906,328.4375 292.125,328.7031 Q292.3594,328.9531 292.3594,329.5625 L292.3594,331.0156 Q292.3594,331.625 292.125,331.8906 Q291.8906,332.1563 291.5156,332.1563 Q291.1719,332.1563 290.9688,331.9531 Q290.7656,331.7656 290.6563,331.25 Q290.6094,330.8906 290.4219,330.7031 Q290.0938,330.3281 289.4844,330.1094 Q288.875,329.8906 288.25,329.8906 Q287.4844,329.8906 286.8438,330.2188 Q286.2188,330.5469 285.7188,331.2969 Q285.2344,332.0469 285.2344,333.0781 L285.2344,334.1719 Q285.2344,335.4063 286.125,336.2344 Q287.0156,337.0469 288.6094,337.0469 Q289.5469,337.0469 290.2031,336.7969 Q290.5938,336.6406 291.0156,336.2031 Q291.2813,335.9375 291.4219,335.8594 Q291.5781,335.7813 291.7813,335.7813 Q292.1094,335.7813 292.3594,336.0469 Q292.625,336.2969 292.625,336.6406 Q292.625,336.9844 292.2813,337.3906 Q291.7813,337.9688 290.9844,338.2969 Q289.9063,338.75 288.6094,338.75 Q287.0938,338.75 285.8906,338.125 Q284.9063,337.625 284.2188,336.5625 Q283.5313,335.4844 283.5313,334.2031 L283.5313,333.0469 Q283.5313,331.7188 284.1406,330.5781 Q284.7656,329.4219 285.8594,328.8125 Q286.9531,328.1875 288.1875,328.1875 Q288.9219,328.1875 289.5625,328.3594 Q290.2188,328.5156 290.7656,328.875 Z " fill="#000000"/><text fill="#000000" font-family="sans-serif" font-size="14" lengthAdjust="spacing" textLength="59.9307" x="302" y="338.7969">Database</text><line style="stroke:#181818;stroke-width:0.5;" x1="274" x2="363.9307" y1="349" y2="349"/><line style="stroke:#181818;stroke-width:0.5;" x1="274" x2="363.9307" y1="357" y2="357"/><text fill="#000000" font-family="sans-serif" font-size="14" lengthAdjust="spacing" textLength="78.1963" x="279" y="376.1074">+habitDAO()</text></g><!--link DeleteHabitView to DeleteHabitView--><g id="link_DeleteHabitView_DeleteHabitView"><path codeLine="43" d="M161.53,19.41 C181.23,19.81 196.5,23.67 196.5,31 C196.5,38.33 187.2288,42.0682 167.5288,42.4682 " fill="none" id="DeleteHabitView-to-DeleteHabitView" style="stroke:#181818;stroke-width:1.0;"/><polygon fill="#181818" points="161.53,42.59,170.6093,46.4065,166.529,42.4885,170.4469,38.4081,161.53,42.59" style="stroke:#181818;stroke-width:1.0;"/><text fill="#000000" font-family="sans-serif" font-size="13" lengthAdjust="spacing" textLength="48.4199" x="202.5" y="36.5283">instance</text></g><!--link DeleteHabitViewModel to DeleteHabitViewModel--><g id="link_DeleteHabitViewModel_DeleteHabitViewModel"><path codeLine="44" d="M181.18,169.5 C201.26,170.92 216,176.42 216,186 C216,195.58 207.2451,200.6568 187.1651,202.0768 " fill="none" id="DeleteHabitViewModel-to-DeleteHabitViewModel" style="stroke:#181818;stroke-width:1.0;"/><polygon fill="#181818" points="181.18,202.5,190.4397,205.8552,186.1675,202.1473,189.8754,197.8751,181.18,202.5" style="stroke:#181818;stroke-width:1.0;"/><text fill="#000000" font-family="sans-serif" font-size="13" lengthAdjust="spacing" textLength="48.4199" x="222" y="191.5283">instance</text></g><!--link HabitRepository to HabitRepository--><g id="link_HabitRepository_HabitRepository"><path codeLine="45" d="M160.05,337.03 C179.71,337.43 195,341.92 195,350.5 C195,359.08 185.7088,363.4479 166.0488,363.8479 " fill="none" id="HabitRepository-to-HabitRepository" style="stroke:#181818;stroke-width:1.0;"/><polygon fill="#181818" points="160.05,363.97,169.1295,367.7861,165.049,363.8683,168.9668,359.7878,160.05,363.97" style="stroke:#181818;stroke-width:1.0;"/><text fill="#000000" font-family="sans-serif" font-size="13" lengthAdjust="spacing" textLength="48.4199" x="201" y="356.0283">instance</text></g><!--link Database to Database--><g id="link_Database_Database"><path codeLine="46" d="M365.21,337.1 C384.08,336.26 400,340.73 400,350.5 C400,360.27 390.0741,365.0068 371.2041,364.1668 " fill="none" id="Database-to-Database" style="stroke:#181818;stroke-width:1.0;"/><polygon fill="#181818" points="365.21,363.9,374.0232,368.2963,370.2051,364.1224,374.379,360.3042,365.21,363.9" style="stroke:#181818;stroke-width:1.0;"/><text fill="#000000" font-family="sans-serif" font-size="13" lengthAdjust="spacing" textLength="48.4199" x="406" y="356.0283">instance</text></g><!--link DeleteHabitView to DeleteHabitViewModel--><g id="link_DeleteHabitView_DeleteHabitViewModel"><path codeLine="49" d="M94,55.24 C94,76.05 94,101.31 94,127.94 " fill="none" id="DeleteHabitView-to-DeleteHabitViewModel" style="stroke:#181818;stroke-width:1.0;"/><polygon fill="#181818" points="94,133.94,98,124.94,94,128.94,90,124.94,94,133.94" style="stroke:#181818;stroke-width:1.0;"/><text fill="#000000" font-family="sans-serif" font-size="13" lengthAdjust="spacing" textLength="42.6309" x="95" y="100.0283">creates</text></g><!--link DeleteHabitViewModel to HabitRepository--><g id="link_DeleteHabitViewModel_HabitRepository"><path codeLine="50" d="M94,238.42 C94,264.08 94,288.35 94,310.81 " fill="none" id="DeleteHabitViewModel-to-HabitRepository" style="stroke:#181818;stroke-width:1.0;"/><polygon fill="#181818" points="94,316.81,98,307.81,94,311.81,90,307.81,94,316.81" style="stroke:#181818;stroke-width:1.0;"/><text fill="#000000" font-family="sans-serif" font-size="13" lengthAdjust="spacing" textLength="90.3271" x="95" y="283.0283">habitRepository</text></g><!--link HabitRepository to Habit--><g id="link_HabitRepository_Habit"><path codeLine="52" d="M94,384.1 C94,405.1 94,427.82 94,456.75 " fill="none" id="HabitRepository-to-Habit" style="stroke:#181818;stroke-width:1.0;"/><polygon fill="#181818" points="94,462.75,98,453.75,94,457.75,90,453.75,94,462.75" style="stroke:#181818;stroke-width:1.0;"/><text fill="#000000" font-family="sans-serif" font-size="13" lengthAdjust="spacing" textLength="42.6309" x="95" y="429.0283">creates</text></g><!--link HabitRepository to HabitDAO--><g id="link_HabitRepository_HabitDAO"><path codeLine="53" d="M121.22,384.1 C157.34,427.34 216.8837,498.645 252.9837,541.865 " fill="none" id="HabitRepository-to-HabitDAO" style="stroke:#181818;stroke-width:1.0;"/><polygon fill="#181818" points="256.83,546.47,254.1305,536.9983,253.6247,542.6325,247.9905,542.1268,256.83,546.47" style="stroke:#181818;stroke-width:1.0;"/></g><!--link Database to HabitDAO--><g id="link_Database_HabitDAO"><path codeLine="55" d="M313.99,384.1 C307.33,427.34 296.5611,497.3196 289.9211,540.5396 " fill="none" id="Database-to-HabitDAO" style="stroke:#181818;stroke-width:1.0;"/><polygon fill="#181818" points="289.01,546.47,294.3303,538.1818,289.7693,541.528,286.423,536.967,289.01,546.47" style="stroke:#181818;stroke-width:1.0;"/></g><!--SRC=[TL71Ri8m3BtdAtBSX91stc5I9mxZW926jBj9JB48IPQuGjt4lo-Kb8MMvcI_Pxyys_50raE0e_IW3b3ZXbk3Cg1YiBL14My5SG_QdSZMSWScbemXYznwbDwPzf8Kd38GOyKSQDimBfMp6_f1-IA4w2YvG8EC7x0b_Y8yoLzndg1MJgD9l4nl9lK_-VJSONDP8tV0UxlK6PmbTv4hOpeY9lGcto5PRov9vu29qzpNM6DKWJoJinav8iGcu14jPwInnElTQeH7Xi0Bu5uBhIwoNS3l1grgS-u3kK3SfofLrYwaEGP-5zLwOWLdSLVuYTv5ugGnNP_N30nRY7Yhs-UFikZmGlEtqT5U9TaqhrKe7Xvjt7B5YxwXwTGoXCfVUiyNvJuk-0UkfpseW6dTSSBwGoFxUqICxVTjXVvaJTgrA4QwWyKV]--></g></svg>